<svg width="36" height="36" viewBox="0 0 36 36" fill="none" xmlns="http://www.w3.org/2000/svg">
<path id="Vector" d="M18 0C14.4399 0 10.9598 1.05568 7.99974 3.03355C5.03966 5.01141 2.73255 7.82263 1.37018 11.1117C0.00779911 14.4008 -0.348661 18.02 0.345873 21.5116C1.04041 25.0033 2.75474 28.2106 5.27209 30.7279C7.78943 33.2453 10.9967 34.9596 14.4884 35.6541C17.98 36.3487 21.5992 35.9922 24.8883 34.6298C28.1774 33.2674 30.9886 30.9603 32.9665 28.0003C34.9443 25.0402 36 21.5601 36 18C36 15.6362 35.5344 13.2956 34.6298 11.1117C33.7253 8.92783 32.3994 6.94353 30.7279 5.27208C29.0565 3.60062 27.0722 2.27475 24.8883 1.37017C22.7044 0.465584 20.3638 0 18 0ZM18 32.4C15.152 32.4 12.3679 31.5554 9.99979 29.9732C7.63173 28.3909 5.78604 26.1419 4.69614 23.5106C3.60624 20.8794 3.32107 17.984 3.8767 15.1907C4.43233 12.3974 5.80379 9.83154 7.81767 7.81766C9.83154 5.80378 12.3974 4.43232 15.1907 3.87669C17.984 3.32106 20.8794 3.60623 23.5106 4.69613C26.1419 5.78604 28.3909 7.63172 29.9732 9.99979C31.5555 12.3679 32.4 15.1519 32.4 18C32.4 21.8191 30.8829 25.4818 28.1823 28.1823C25.4818 30.8829 21.8191 32.4 18 32.4ZM25.2 16.2H19.8V10.8C19.8 10.3226 19.6104 9.86477 19.2728 9.52721C18.9352 9.18964 18.4774 9 18 9C17.5226 9 17.0648 9.18964 16.7272 9.52721C16.3896 9.86477 16.2 10.3226 16.2 10.8V16.2H10.8C10.3226 16.2 9.86478 16.3896 9.52721 16.7272C9.18965 17.0648 9.00001 17.5226 9.00001 18C9.00001 18.4774 9.18965 18.9352 9.52721 19.2728C9.86478 19.6104 10.3226 19.8 10.8 19.8H16.2V25.2C16.2 25.6774 16.3896 26.1352 16.7272 26.4728C17.0648 26.8104 17.5226 27 18 27C18.4774 27 18.9352 26.8104 19.2728 26.4728C19.6104 26.1352 19.8 25.6774 19.8 25.2V19.8H25.2C25.6774 19.8 26.1352 19.6104 26.4728 19.2728C26.8104 18.9352 27 18.4774 27 18C27 17.5226 26.8104 17.0648 26.4728 16.7272C26.1352 16.3896 25.6774 16.2 25.2 16.2Z" fill="white"/>
</svg>
