<svg width="29" height="24" viewBox="0 0 29 24" fill="none" xmlns="http://www.w3.org/2000/svg">
<path id="Vector" d="M8.58275e-07 12C8.09794e-07 12.5546 0.184331 13.0218 0.552991 13.4018L10.2826 23.43C10.6712 23.81 11.1245 24 11.6427 24C12.1508 24 12.5992 23.81 12.9878 23.43L14.1087 22.2747C14.4873 21.8845 14.6766 21.4172 14.6766 20.8729C14.6766 20.3286 14.4873 19.8614 14.1087 19.4711L9.72962 14.9576L27.2514 14.9576C27.7695 14.9576 28.1904 14.7651 28.5143 14.38C28.8381 13.9949 29 13.5302 29 12.9859L29 11.0141C29 10.4698 28.8381 10.0051 28.5143 9.62003C28.1904 9.23492 27.7695 9.04236 27.2514 9.04236L9.72962 9.04236L14.1087 4.51348C14.4873 4.14377 14.6766 3.68164 14.6766 3.12709C14.6766 2.57253 14.4873 2.1104 14.1087 1.74069L12.9878 0.585364C12.6091 0.195121 12.1608 -1.47213e-06 11.6427 -1.51743e-06C11.1146 -1.56359e-06 10.6612 0.19512 10.2826 0.585364L0.552991 10.6136C0.184331 10.973 9.07654e-07 11.4352 8.58275e-07 12Z" fill="#9F06FF"/>
</svg>
