<svg width="107" height="81" viewBox="0 0 107 81" fill="none" xmlns="http://www.w3.org/2000/svg">
<g id="Vector">
<path d="M30.6034 80.7433C28.2071 78.3217 25.7205 75.8067 23.1823 73.2368C24.8046 71.7116 26.5462 70.0768 28.1878 68.5322C22.7663 63.1087 17.6157 57.956 12.362 52.7033C10.8913 54.3123 9.28197 56.0761 7.76615 57.7335C4.92802 54.9314 2.38016 52.4164 0 50.0657C10.2431 39.8087 20.5732 29.4646 30.8259 19.1946C33.1384 21.5324 35.6572 24.0765 38.2567 26.7012C36.728 28.1619 34.9961 29.816 33.3319 31.4057C38.6953 36.7712 43.8555 41.9304 49.1641 47.2379C50.7219 45.5644 52.357 43.8102 53.8535 42.2045C56.5787 44.8969 59.1234 47.4088 61.5455 49.8045C51.283 60.0648 40.9658 70.3799 30.6002 80.7433H30.6034ZM31.5129 64.205C36.041 59.6746 40.6143 55.1023 44.8747 50.8364C39.8951 45.8062 34.78 40.6438 29.8132 35.6265C25.3754 40.0634 20.828 44.6067 16.3644 49.0694C21.3795 54.0834 26.4978 59.1974 31.5129 64.2082V64.205ZM27.1977 32.4279C26.3656 31.6314 25.5206 30.8221 24.9723 30.2997C23.879 31.1445 23.0017 31.8281 22.1729 32.4698C23.0953 33.4017 23.879 34.1949 24.6562 34.9784C25.4722 34.1626 26.2849 33.3468 27.1977 32.4311V32.4279ZM45.7197 55.9471C46.484 56.7597 47.2484 57.5723 48.045 58.4171C48.9126 57.5884 49.7769 56.7662 50.4929 56.0826C49.6124 55.141 48.8481 54.3252 48.1321 53.561C47.3322 54.3543 46.5389 55.141 45.7229 55.9471H45.7197ZM30.597 28.9293C31.5194 27.9942 32.3256 27.1817 32.8836 26.6174C32.2063 25.7532 31.4903 24.8439 30.8001 23.9669C29.81 24.8955 28.9908 25.6629 28.1297 26.4755C29.007 27.3461 29.8003 28.1393 30.597 28.9325V28.9293ZM18.4478 41.0436C19.3315 40.1569 20.1507 39.3347 20.8151 38.6672C20.0733 37.8804 19.2896 37.0485 18.7478 36.4746C17.877 37.1549 16.9643 37.8675 16.0774 38.5608C16.9836 39.512 17.7222 40.2859 18.4478 41.0436ZM12.3362 46.8799C13.2328 46.1802 14.1519 45.4612 15.1001 44.7163C14.1681 43.7748 13.3811 42.9783 12.62 42.2141C11.7686 43.0944 10.9687 43.9263 10.2205 44.7034C10.9494 45.4547 11.7266 46.2512 12.333 46.8799H12.3362ZM7.2082 52.2293C8.05319 51.4168 8.8885 50.6139 9.77542 49.7562C8.98203 48.9887 8.17897 48.2084 7.32108 47.3797C6.53737 48.2245 5.75043 49.0694 5.0022 49.8787C5.76656 50.6945 6.55995 51.5393 7.20498 52.2293H7.2082ZM51.8023 49.8497C52.6053 50.6655 53.4116 51.4845 54.1179 52.2003C54.9049 51.4426 55.7402 50.6429 56.4658 49.9432C55.6596 49.0951 54.8726 48.2632 54.1921 47.5442C53.3633 48.3438 52.5602 49.1177 51.8023 49.8465V49.8497ZM44.3651 62.2155C43.5169 61.3256 42.7171 60.4904 41.8688 59.5972C41.1109 60.3711 40.3272 61.1708 39.6016 61.9092C40.4336 62.7508 41.2464 63.5762 42.0688 64.4082C42.888 63.6246 43.7233 62.8282 44.3619 62.2155H44.3651ZM33.5028 68.026C34.3704 68.9418 35.1315 69.7511 35.9088 70.5733C36.7699 69.7124 37.5858 68.8934 38.2664 68.213C37.4601 67.4069 36.6441 66.5911 35.7636 65.7108C35.038 66.4525 34.2607 67.2489 33.5028 68.0228V68.026ZM30.7776 70.9442C29.9584 71.7406 29.1327 72.5467 28.4426 73.2206C29.2037 74.0461 29.9906 74.8974 30.655 75.6196C31.5161 74.7684 32.3289 73.9623 33.0223 73.2787C32.2837 72.5112 31.5129 71.7084 30.7776 70.9442Z" fill="#545454"/>
<path d="M27.1977 32.4279C26.2849 33.3436 25.469 34.1594 24.6562 34.9752C23.879 34.1884 23.0953 33.3984 22.1729 32.4666C23.0017 31.8249 23.879 31.1445 24.9723 30.2965C25.5206 30.8221 26.3656 31.6314 27.1977 32.4246V32.4279Z" fill="white"/>
<path d="M45.7229 55.9504C46.5388 55.141 47.3322 54.3543 48.1321 53.5643C48.848 54.3317 49.6124 55.1443 50.4929 56.0858C49.7769 56.7694 48.9126 57.5916 48.045 58.4203C47.2516 57.5755 46.4872 56.7629 45.7197 55.9504H45.7229Z" fill="white"/>
<path d="M30.597 28.9293C29.8003 28.1361 29.007 27.3461 28.1297 26.4723C28.9941 25.6629 29.81 24.8955 30.8001 23.9636C31.4903 24.8407 32.2031 25.75 32.8836 26.6141C32.3256 27.1784 31.5226 27.991 30.597 28.9261V28.9293Z" fill="white"/>
<path d="M18.4478 41.0436C17.7222 40.2827 16.9836 39.5088 16.0774 38.5608C16.9643 37.8675 17.877 37.1549 18.7478 36.4746C19.2896 37.0485 20.0733 37.8804 20.8151 38.6672C20.1507 39.3347 19.3315 40.1569 18.4478 41.0436Z" fill="white"/>
<path d="M12.3362 46.8767C11.7266 46.2512 10.9526 45.4515 10.2237 44.7002C10.9719 43.9263 11.775 43.0912 12.6232 42.2109C13.3811 42.9751 14.1713 43.7748 15.1034 44.7131C14.1519 45.4579 13.2328 46.1738 12.3394 46.8767H12.3362Z" fill="white"/>
<path d="M7.2082 52.2261C6.56317 51.5361 5.76979 50.6913 5.00543 49.8755C5.75366 49.0694 6.5406 48.2213 7.32431 47.3765C8.1822 48.2052 8.98526 48.9855 9.77864 49.7529C8.89173 50.6074 8.05641 51.4135 7.21143 52.2261H7.2082Z" fill="white"/>
<path d="M51.8023 49.8465C52.5602 49.1145 53.3633 48.3438 54.1921 47.5442C54.8726 48.2632 55.6628 49.0951 56.4658 49.9432C55.7402 50.6429 54.9049 51.4426 54.1179 52.2003C53.4149 51.4845 52.6054 50.6622 51.8023 49.8497V49.8465Z" fill="white"/>
<path d="M44.3651 62.2123C43.7233 62.8249 42.8912 63.6214 42.072 64.4049C41.2496 63.573 40.4369 62.7476 39.6048 61.906C40.3305 61.1676 41.1109 60.3679 41.8721 59.594C42.7235 60.484 43.5201 61.3223 44.3683 62.2123H44.3651Z" fill="white"/>
<path d="M33.4996 68.026C34.2575 67.2521 35.0348 66.4557 35.7604 65.7141C36.6376 66.5911 37.4568 67.4101 38.2631 68.2163C37.5826 68.8966 36.7667 69.7124 35.9055 70.5766C35.1315 69.7543 34.3671 68.945 33.4996 68.0292V68.026Z" fill="white"/>
<path d="M30.7743 70.9409C31.5097 71.7051 32.2805 72.508 33.019 73.2754C32.3256 73.959 31.5129 74.7652 30.6518 75.6164C29.9874 74.8941 29.2005 74.0429 28.4393 73.2174C29.1327 72.5435 29.9584 71.7374 30.7743 70.9409Z" fill="white"/>
<path d="M76.0547 61.8053C73.6584 59.3837 71.1719 56.8686 68.6337 54.2987C70.2559 52.7735 71.9975 51.1387 73.6391 49.5942C68.2176 44.1706 63.0671 39.0179 57.8133 33.7653C56.3426 35.3743 54.7333 37.1381 53.2175 38.7954C50.3794 35.9934 47.8315 33.4783 45.4513 31.1277C55.6944 20.8706 66.0245 10.5265 76.2773 0.256592C78.5897 2.59433 81.1085 5.13844 83.708 7.76316C82.1793 9.22384 80.4474 10.878 78.7832 12.4677C84.1466 17.8332 89.3069 22.9923 94.6154 28.2998C96.1732 26.6263 97.8083 24.8722 99.3048 23.2664C102.03 25.9588 104.575 28.4707 106.997 30.8665C96.7344 41.1267 86.4171 51.4418 76.0515 61.8053H76.0547ZM76.9642 45.267C81.4923 40.7366 86.0656 36.1643 90.326 31.8983C85.3464 26.8681 80.2313 21.7058 75.2646 16.6885C70.8268 21.1254 66.2793 25.6686 61.8157 30.1313C66.8308 35.1454 71.9491 40.2594 76.9642 45.2702V45.267ZM72.649 13.4898C71.8169 12.6934 70.9719 11.884 70.4236 11.3617C69.3303 12.2065 68.4531 12.8901 67.6242 13.5317C68.5466 14.4636 69.3303 15.2568 70.1076 16.0404C70.9235 15.2246 71.7363 14.4088 72.649 13.493V13.4898ZM91.171 37.0091C91.9353 37.8217 92.6997 38.6342 93.4963 39.479C94.3639 38.6503 95.2282 37.8281 95.9442 37.1445C95.0637 36.203 94.2994 35.3872 93.5834 34.623C92.7836 35.4162 91.9902 36.203 91.1742 37.0091H91.171ZM76.0483 9.99127C76.9707 9.05617 77.777 8.2436 78.3349 7.67932C77.6576 6.81516 76.9416 5.90586 76.2515 5.02881C75.2613 5.95745 74.4422 6.72488 73.5811 7.53744C74.4583 8.40805 75.2517 9.20127 76.0483 9.99449V9.99127ZM63.8992 22.1056C64.7829 21.2189 65.602 20.3966 66.2664 19.7292C65.5246 18.9424 64.7409 18.1105 64.1991 17.5365C63.3283 18.2169 62.4156 18.9295 61.5287 19.6228C62.4349 20.574 63.1735 21.3478 63.8992 22.1056ZM57.7875 27.9419C58.6841 27.2422 59.6033 26.5231 60.5515 25.7783C59.6194 24.8367 58.8325 24.0403 58.0713 23.2761C57.2199 24.1564 56.4201 24.9883 55.6718 25.7654C56.4007 26.5167 57.178 27.3131 57.7843 27.9419H57.7875ZM52.6595 33.2913C53.5045 32.4787 54.3398 31.6758 55.2267 30.8181C54.4334 30.0507 53.6303 29.2704 52.7724 28.4417C51.9887 29.2865 51.2018 30.1313 50.4535 30.9406C51.2179 31.7564 52.0113 32.6012 52.6563 33.2913H52.6595ZM97.2536 30.9116C98.0567 31.7274 98.863 32.5464 99.5693 33.2623C100.356 32.5045 101.192 31.7048 101.917 31.0051C101.111 30.1571 100.324 29.3252 99.6434 28.6061C98.8146 29.4058 98.0115 30.1797 97.2536 30.9084V30.9116ZM89.8164 43.2775C88.9682 42.3875 88.1684 41.5524 87.3202 40.6592C86.5623 41.4331 85.7785 42.2327 85.0529 42.9711C85.885 43.8127 86.6977 44.6382 87.5201 45.4701C88.3393 44.6866 89.1746 43.8901 89.8132 43.2775H89.8164ZM78.9541 49.088C79.8217 50.0037 80.5828 50.813 81.3601 51.6353C82.2212 50.7744 83.0372 49.9553 83.7177 49.275C82.9114 48.4689 82.0954 47.6531 81.215 46.7728C80.4893 47.5144 79.712 48.3109 78.9541 49.0847V49.088ZM76.2289 52.0061C75.4097 52.8025 74.5841 53.6087 73.8939 54.2826C74.655 55.108 75.442 55.9593 76.1063 56.6816C76.9675 55.8303 77.7802 55.0242 78.4736 54.3406C77.735 53.5732 76.9642 52.7703 76.2289 52.0061Z" fill="#545454"/>
<path d="M72.649 13.4898C71.7363 14.4056 70.9203 15.2214 70.1076 16.0371C69.3303 15.2504 68.5466 14.4604 67.6242 13.5285C68.4531 12.8868 69.3303 12.2065 70.4236 11.3584C70.9719 11.884 71.8169 12.6934 72.649 13.4866V13.4898Z" fill="white"/>
<path d="M91.1742 37.0123C91.9902 36.203 92.7836 35.4162 93.5834 34.6262C94.2994 35.3936 95.0637 36.2062 95.9442 37.1477C95.2282 37.8313 94.3639 38.6536 93.4963 39.4823C92.7029 38.6375 91.9386 37.8249 91.171 37.0123H91.1742Z" fill="white"/>
<path d="M76.0483 9.99127C75.2517 9.19805 74.4583 8.40805 73.581 7.53422C74.4454 6.72488 75.2613 5.95745 76.2515 5.02558C76.9416 5.90264 77.6544 6.81194 78.3349 7.6761C77.777 8.24038 76.9739 9.05294 76.0483 9.98804V9.99127Z" fill="white"/>
<path d="M63.8992 22.1056C63.1735 21.3446 62.4349 20.5707 61.5287 19.6228C62.4156 18.9295 63.3283 18.2169 64.1991 17.5365C64.7409 18.1105 65.5246 18.9424 66.2664 19.7292C65.602 20.3966 64.7829 21.2189 63.8992 22.1056Z" fill="white"/>
<path d="M57.7875 27.9387C57.178 27.3131 56.4039 26.5134 55.675 25.7621C56.4233 24.9883 57.2263 24.1531 58.0746 23.2729C58.8325 24.0371 59.6226 24.8367 60.5547 25.775C59.6033 26.5199 58.6841 27.2357 57.7907 27.9387H57.7875Z" fill="white"/>
<path d="M52.6595 33.2881C52.0145 32.598 51.2211 31.7532 50.4568 30.9374C51.205 30.1313 51.9919 29.2833 52.7756 28.4385C53.6335 29.2671 54.4366 30.0475 55.23 30.8149C54.3431 31.6694 53.5077 32.4755 52.6628 33.2881H52.6595Z" fill="white"/>
<path d="M97.2536 30.9084C98.0115 30.1764 98.8146 29.4058 99.6434 28.6061C100.324 29.3252 101.114 30.1571 101.917 31.0051C101.192 31.7048 100.356 32.5045 99.5693 33.2623C98.8662 32.5464 98.0567 31.7242 97.2536 30.9116V30.9084Z" fill="white"/>
<path d="M89.8164 43.2742C89.1746 43.8869 88.3425 44.6833 87.5233 45.4669C86.7009 44.635 85.8882 43.8095 85.0561 42.9679C85.7818 42.2295 86.5623 41.4298 87.3234 40.656C88.1748 41.5459 88.9714 42.3843 89.8197 43.2742H89.8164Z" fill="white"/>
<path d="M78.9509 49.088C79.7088 48.3141 80.4861 47.5176 81.2117 46.776C82.089 47.6531 82.9082 48.4721 83.7144 49.2782C83.0339 49.9586 82.218 50.7744 81.3569 51.6385C80.5828 50.8163 79.8185 50.0069 78.9509 49.0912V49.088Z" fill="white"/>
<path d="M76.2257 52.0029C76.961 52.7671 77.7318 53.57 78.4704 54.3374C77.777 55.021 76.9642 55.8271 76.1031 56.6784C75.4387 55.9561 74.6518 55.1048 73.8907 54.2793C74.5841 53.6054 75.4097 52.7993 76.2257 52.0029Z" fill="white"/>
</g>
</svg>
