<svg width="74" height="74" viewBox="0 0 74 74" fill="none" xmlns="http://www.w3.org/2000/svg">
<g id="translation-icon-translate-language 1">
<path id="Vector" d="M18.0375 29.1953C17.6039 28.5883 17.4305 28.2125 17.5172 28.068C17.575 27.9235 17.9797 27.8657 18.6445 27.9235C19.3094 27.9813 19.8586 28.068 20.3211 28.1836C20.7547 28.2992 21.1305 28.4727 21.4195 28.675C21.7086 28.8774 21.9398 29.1086 22.0844 29.4266C22.2578 29.7157 22.3734 30.0914 22.4891 30.4961C22.6914 31.3055 22.6336 31.8547 22.3445 32.1438C22.0266 32.4328 21.593 32.375 21.0148 31.9703C20.4078 31.5656 19.8875 31.161 19.425 30.7563C18.9336 30.3805 18.4711 29.8313 18.0375 29.1953ZM11.7648 54.9508C13.1523 54.3438 14.3664 53.7367 15.407 53.1008C16.4187 52.4938 17.3148 51.8289 18.0953 51.1352C18.8469 50.4703 19.5406 49.7188 20.1187 48.9094C20.6969 48.1289 21.2172 47.2328 21.6797 46.25C22.0555 46.5969 22.4023 46.9438 22.7781 47.2617C23.125 47.5797 23.5008 47.8977 23.8766 48.2446C24.2523 48.5914 24.6859 48.9383 25.1195 49.343C25.5531 49.7477 26.0734 50.1524 26.6516 50.6438C26.8539 50.7883 27.0563 50.9039 27.2586 50.9328C27.4609 50.9617 27.75 50.9328 28.1547 50.7594C28.5305 50.6149 29.0219 50.3547 29.6289 49.95C30.2359 49.5742 30.9875 49.0539 31.9125 48.3891C32.375 48.0711 32.6062 47.811 32.5773 47.6086C32.5484 47.4063 32.2883 47.3196 31.7969 47.3485C30.9008 47.3774 30.0914 47.3774 29.3977 47.3196C28.675 47.2617 27.9523 47.1461 27.2586 46.9149C26.5648 46.6836 25.8422 46.3656 25.0906 45.9321C24.3391 45.4985 23.4719 44.8914 22.4602 44.1399C22.7492 43.0125 22.9805 41.8274 23.1539 40.5555C23.2406 39.8328 23.3273 39.3125 23.3852 38.9367C23.443 38.5899 23.5297 38.243 23.6453 37.9828C23.732 37.7516 23.7609 37.5782 23.7898 37.4336C23.8188 37.2891 23.7609 37.1446 23.6742 36.9711C23.5586 36.8266 23.3852 36.6531 23.125 36.4797C22.8648 36.3063 22.4891 36.075 21.9977 35.8149C22.6914 35.5547 23.4719 35.3235 24.2812 35.0633C25.0617 34.8032 25.9289 34.543 26.825 34.2828C27.6922 34.0227 28.1258 33.7336 28.1547 33.3867C28.1836 33.0399 27.8945 32.7219 27.2297 32.375C26.7961 32.1438 26.3914 32.0571 25.9867 32.1149C25.582 32.1727 25.0617 32.375 24.4258 32.7508C24.2523 32.8664 23.9055 33.011 23.443 33.2133C22.9516 33.4156 22.4023 33.6469 21.7086 33.936C21.0148 34.225 20.2633 34.5141 19.4539 34.8321C18.6156 35.15 17.7773 35.468 16.9391 35.7571C16.1008 36.075 15.2914 36.3352 14.5688 36.5664C13.8172 36.7977 13.2391 36.9711 12.8055 37.0289C11.707 37.2602 11.1289 37.4914 11.1 37.7227C11.1 37.9539 11.5336 38.1852 12.3719 38.4164C12.7188 38.5031 13.0367 38.5899 13.268 38.5899C13.4992 38.6188 13.7594 38.6188 13.9906 38.5899C14.2219 38.561 14.4531 38.5031 14.6844 38.4453C14.9156 38.3586 15.1758 38.243 15.4937 38.1274C15.9562 37.8961 16.6211 37.636 17.4883 37.318C18.3266 37.0289 19.3961 36.6242 20.7258 36.1617C20.9859 36.9422 21.1305 37.8961 21.1305 38.9946C21.1305 40.093 21.0148 41.336 20.7258 42.7524C20.35 42.4344 19.9453 42.0875 19.5117 41.7117C19.0781 41.336 18.6734 40.9602 18.2688 40.5844C17.8063 40.1508 17.3438 39.8617 16.9102 39.7172C16.4477 39.5727 15.9273 39.5727 15.3203 39.7172C14.3664 39.9774 13.875 40.2664 13.9039 40.6133C13.9039 40.9602 14.2797 41.1336 15.0023 41.1625C15.2625 41.1914 15.5227 41.2492 15.7828 41.336C16.043 41.4227 16.332 41.5961 16.7078 41.8563C17.0836 42.1164 17.5461 42.4922 18.0664 42.9547C18.5867 43.4172 19.2805 44.0242 20.0898 44.7758C19.743 45.6141 19.3383 46.3946 18.9047 47.0883C18.4711 47.811 17.9219 48.5336 17.3148 49.1985C16.6789 49.8922 15.9563 50.586 15.0891 51.2797C14.2219 52.0024 13.1813 52.7539 11.9672 53.5344C10.7242 54.3438 10.0883 54.893 10.0883 55.1531C10.1172 55.5289 10.6953 55.4133 11.7648 54.9508ZM72.4102 23.6453V71.4274L40.1508 60.9055L3.03516 73.2485V21.9977L11.6781 19.1071V3.00627L35.15 11.3024L66.8602 0.751587V21.8821L72.4102 23.6453ZM35.9016 14.6266L6.44609 24.4547V68.45L35.9016 58.6508V14.6266ZM63.4203 20.7836V5.49221L39.9195 13.2969L63.4203 20.7836ZM65.6172 58.3617L56.8008 26.5938L50.875 24.7438L41.943 50.9906L47.4062 52.6961L49.0828 47.2906L58.3039 50.1813L59.9516 56.6274L65.6172 58.3617ZM50.5281 42.6946L56.9453 44.6891L53.7945 32.2883L50.5281 42.6946Z" fill="#545454"/>
</g>
</svg>
