<svg width="36" height="35" viewBox="0 0 36 35" fill="none" xmlns="http://www.w3.org/2000/svg">
<g id="Group">
<path id="Vector" d="M17.8441 34.9983C14.1201 34.9983 10.3962 35.0002 6.67316 34.9983C3.76456 34.9964 1.41288 33.1058 0.796833 30.2613C0.719588 29.9049 0.681442 29.5323 0.680488 29.1664C0.673813 21.5943 0.670952 14.0223 0.677628 6.45032C0.680489 3.56102 2.87672 1.07386 5.74813 0.683162C6.04185 0.643138 6.33938 0.620265 6.63501 0.620265C14.1306 0.616453 21.6253 0.615504 29.1209 0.618363C32.4558 0.619316 35.0821 3.23131 35.084 6.55609C35.0887 14.0566 35.0887 21.5572 35.084 29.0577C35.0821 32.3816 32.4548 34.9954 29.1218 34.9983C25.3626 35.0021 21.6033 34.9983 17.8431 34.9983H17.8441ZM13.5899 17.8093C13.5899 19.556 13.5947 21.3027 13.5861 23.0495C13.5842 23.5174 13.731 23.8919 14.1526 24.1168C14.5893 24.3483 14.9994 24.2521 15.3866 23.9757C17.8231 22.2357 20.2616 20.4994 22.6953 18.7556C23.4439 18.2191 23.4458 17.4081 22.6972 16.8716C20.2539 15.1201 17.805 13.3781 15.3589 11.6295C14.9794 11.3579 14.5798 11.2817 14.1564 11.5056C13.732 11.7296 13.5823 12.1003 13.5842 12.5691C13.5928 14.3158 13.588 16.0626 13.588 17.8093H13.5899ZM14.3833 7.04685C14.6685 7.04685 14.9536 7.05257 15.2378 7.0459C16.0722 7.02494 16.7331 6.38647 16.8008 5.54312C16.8637 4.75886 16.2591 3.96506 15.4514 3.89169C14.7467 3.82879 14.0267 3.82975 13.321 3.89169C12.5199 3.96125 11.9306 4.71788 11.9697 5.505C12.0116 6.36455 12.6763 7.02398 13.5279 7.0459C13.8131 7.05353 14.0982 7.04685 14.3824 7.04685H14.3833ZM21.3449 7.04685C21.6415 7.04685 21.939 7.05353 22.2356 7.0459C23.071 7.02398 23.7223 6.38647 23.7881 5.53454C23.8492 4.74837 23.2445 3.9622 22.4311 3.89073C21.7254 3.82879 21.0064 3.82975 20.3007 3.89264C19.5053 3.96316 18.916 4.72837 18.957 5.51358C19.0009 6.35216 19.6655 7.01922 20.4895 7.04495C20.7737 7.05352 21.0588 7.0459 21.3439 7.04685H21.3449ZM28.3332 7.04685C28.6297 7.04685 28.9273 7.05353 29.2239 7.0459C30.0631 7.02303 30.7135 6.38551 30.7697 5.53454C30.8231 4.72741 30.2395 3.96411 29.4194 3.89073C28.7146 3.82879 27.9946 3.8288 27.2899 3.8936C26.4764 3.96792 25.8957 4.7398 25.95 5.5498C26.0044 6.36932 26.6672 7.02017 27.4797 7.04495C27.7638 7.05352 28.049 7.0459 28.3341 7.04685H28.3332ZM14.3747 31.785C14.3747 31.7688 14.3747 31.7536 14.3747 31.7374C14.7305 31.7374 15.09 31.7745 15.44 31.7297C16.2506 31.6259 16.8571 30.8692 16.8008 30.0821C16.7417 29.2416 16.077 28.586 15.2483 28.5698C14.6666 28.5584 14.0848 28.5574 13.5031 28.5698C12.6735 28.5889 12.0212 29.2474 11.9697 30.0974C11.9229 30.8797 12.5142 31.6173 13.3086 31.7278C13.6595 31.7764 14.0181 31.7669 14.3728 31.7831L14.3747 31.785ZM28.3437 31.785C28.7089 31.7679 29.0799 31.7783 29.4423 31.7278C30.2385 31.6163 30.8174 30.8864 30.7716 30.0926C30.723 29.2426 30.0717 28.5889 29.2382 28.5698C28.6565 28.5574 28.0747 28.5574 27.493 28.5698C26.6748 28.587 26.013 29.2302 25.95 30.0507C25.888 30.8559 26.4726 31.6097 27.2765 31.7259C27.6265 31.7764 27.986 31.7669 28.3437 31.7841V31.785ZM21.3878 28.5679C21.0912 28.5679 20.7937 28.5612 20.4971 28.5689C19.6694 28.5927 19.0075 29.2512 18.957 30.0926C18.9112 30.875 19.4996 31.6487 20.293 31.7193C21.0102 31.7831 21.7416 31.7831 22.4578 31.7193C23.2493 31.6478 23.8425 30.8607 23.7872 30.0869C23.7261 29.2359 23.0729 28.5917 22.2413 28.5698C21.9562 28.5622 21.671 28.5689 21.3869 28.5689L21.3878 28.5679ZM7.37504 7.04495C7.67162 7.04495 7.96915 7.05162 8.26574 7.04399C9.08014 7.02112 9.74483 6.38075 9.81159 5.56218C9.87643 4.76553 9.28804 3.96888 8.48412 3.89455C7.76794 3.8288 7.03649 3.8288 6.31936 3.89264C5.51925 3.96316 4.94707 4.72074 4.98998 5.5193C5.03671 6.37027 5.68423 7.01922 6.52153 7.04399C6.80571 7.05257 7.09085 7.04495 7.37599 7.0459L7.37504 7.04495ZM7.39697 28.567C7.11183 28.567 6.82669 28.5612 6.54251 28.5679C5.69663 28.5889 5.05197 29.2159 4.99094 30.0707C4.93372 30.8816 5.51162 31.6487 6.3308 31.7221C7.03554 31.785 7.75554 31.785 8.46028 31.7221C9.27087 31.6497 9.86118 30.874 9.81159 30.0726C9.76009 29.2426 9.08491 28.5889 8.25143 28.5679C7.96629 28.5612 7.68211 28.567 7.39697 28.567Z" fill="white"/>
<path id="Vector_2" d="M13.59 17.8094C13.59 16.0626 13.5948 14.3159 13.5862 12.5692C13.5843 12.1003 13.734 11.7296 14.1584 11.5057C14.5818 11.2827 14.9804 11.358 15.3609 11.6296C17.807 13.3773 20.256 15.1202 22.6992 16.8717C23.4478 17.4082 23.4459 18.2191 22.6973 18.7556C20.2636 20.4995 17.8242 22.2357 15.3886 23.9758C15.0014 24.2521 14.5913 24.3484 14.1546 24.1168C13.7321 23.8919 13.5852 23.5174 13.5881 23.0495C13.5967 21.3028 13.5919 19.5561 13.5919 17.8094H13.59Z" fill="#9F06FF"/>
<path id="Vector_3" d="M14.3823 7.04682C14.0972 7.04682 13.812 7.05255 13.5279 7.04588C12.6763 7.02396 12.0116 6.36452 11.9696 5.50498C11.9305 4.71785 12.5199 3.96218 13.3209 3.89166C14.0266 3.82972 14.7457 3.82877 15.4513 3.89166C16.2591 3.96409 16.8646 4.75883 16.8007 5.5431C16.733 6.38644 16.0722 7.02491 15.2377 7.04588C14.9526 7.0535 14.6675 7.04682 14.3833 7.04682H14.3823Z" fill="#9F06FF"/>
<path id="Vector_4" d="M21.3448 7.04683C21.0597 7.04683 20.7745 7.0535 20.4903 7.04493C19.6664 7.0192 19.0017 6.35214 18.9578 5.51356C18.9168 4.72835 19.5052 3.96314 20.3015 3.89262C21.0072 3.82973 21.7262 3.82877 22.4319 3.89071C23.2454 3.96218 23.85 4.74835 23.789 5.53452C23.7232 6.38645 23.0718 7.02301 22.2364 7.04588C21.9399 7.05351 21.6433 7.04683 21.3457 7.04588L21.3448 7.04683Z" fill="#9F06FF"/>
<path id="Vector_5" d="M28.3331 7.04684C28.0479 7.04684 27.7628 7.05351 27.4786 7.04493C26.6661 7.01921 26.0033 6.36835 25.949 5.54978C25.8956 4.74074 26.4763 3.96791 27.2888 3.89358C27.9936 3.82974 28.7136 3.82878 29.4183 3.89072C30.2394 3.96314 30.8221 4.7274 30.7687 5.53453C30.7124 6.3855 30.063 7.02397 29.2228 7.04589C28.9262 7.05351 28.6296 7.04684 28.3321 7.04589L28.3331 7.04684Z" fill="#9F06FF"/>
<path id="Vector_6" d="M14.3749 31.7851C14.0201 31.7679 13.6606 31.7784 13.3106 31.7298C12.5162 31.6193 11.924 30.8817 11.9717 30.0993C12.0232 29.2493 12.6755 28.5908 13.5051 28.5718C14.0869 28.5584 14.6686 28.5594 15.2503 28.5718C16.079 28.588 16.7437 29.2436 16.8028 30.0841C16.8581 30.8712 16.2516 31.6278 15.442 31.7317C15.092 31.7765 14.7325 31.7393 14.3768 31.7393C14.3768 31.7555 14.3768 31.7708 14.3768 31.787L14.3749 31.7851Z" fill="#9F06FF"/>
<path id="Vector_7" d="M28.3426 31.786C27.984 31.7679 27.6255 31.7784 27.2755 31.7279C26.4716 31.6126 25.8879 30.8579 25.949 30.0527C26.0119 29.2312 26.6737 28.588 27.492 28.5718C28.0737 28.5594 28.6554 28.5594 29.2371 28.5718C30.0706 28.5899 30.7219 29.2446 30.7706 30.0946C30.8163 30.8874 30.2375 31.6174 29.4412 31.7298C29.0788 31.7803 28.7078 31.7698 28.3426 31.787V31.786Z" fill="#9F06FF"/>
<path id="Vector_8" d="M21.3877 28.5688C21.6728 28.5688 21.958 28.5621 22.2422 28.5698C23.0737 28.5926 23.727 29.2368 23.788 30.0868C23.8433 30.8606 23.2492 31.6477 22.4586 31.7192C21.7424 31.784 21.0101 31.784 20.2939 31.7192C19.5004 31.6487 18.912 30.8749 18.9578 30.0926C19.0074 29.2511 19.6702 28.5926 20.4979 28.5688C20.7945 28.5602 21.0911 28.5679 21.3886 28.5669L21.3877 28.5688Z" fill="#9F06FF"/>
<path id="Vector_9" d="M7.37396 7.04688C7.08882 7.04688 6.80369 7.05356 6.5195 7.04593C5.68316 7.02116 5.03468 6.37221 4.98796 5.52124C4.94409 4.72268 5.51627 3.9651 6.31733 3.89458C7.03447 3.83169 7.76591 3.83073 8.48209 3.89648C9.28601 3.97081 9.8744 4.76747 9.80956 5.56412C9.74376 6.38269 9.07811 7.02306 8.26371 7.04593C7.96713 7.05451 7.67054 7.04688 7.37301 7.04688H7.37396Z" fill="#9F06FF"/>
<path id="Vector_10" d="M7.39687 28.5689C7.68201 28.5689 7.96715 28.5632 8.25133 28.5699C9.08386 28.5908 9.75904 29.2446 9.81149 30.0746C9.86203 30.876 9.27173 31.6507 8.46018 31.7241C7.75544 31.787 7.03544 31.787 6.3307 31.7241C5.51153 31.6507 4.93267 30.8836 4.99084 30.0727C5.05187 29.2179 5.69653 28.5908 6.54241 28.5699C6.82755 28.5632 7.11173 28.5689 7.39687 28.5689Z" fill="#9F06FF"/>
</g>
</svg>
