<svg width="30" height="40" viewBox="0 0 30 40" fill="none" xmlns="http://www.w3.org/2000/svg">
<g id="Group">
<path id="Vector" d="M3.35255 0.526855H18.6444C18.6444 3.08575 18.6424 5.64464 18.6434 8.20353C18.6434 10.4279 20.0856 11.8741 22.3036 11.8751C24.7258 11.8761 27.147 11.8751 29.5693 11.8751C29.7038 11.8751 29.8373 11.8751 29.9991 11.8751C29.9991 12.0186 29.9991 12.1177 29.9991 12.2157C29.9991 20.1066 30.0021 27.9975 29.9971 35.8874C29.996 37.746 28.4861 39.2528 26.6262 39.2538C19.0328 39.2589 11.4384 39.2589 3.84509 39.2538C1.98923 39.2528 0.480271 37.7389 0.47926 35.8814C0.475214 25.2173 0.472178 14.5543 0.483303 3.8902C0.484314 2.52182 1.16193 1.51928 2.3685 0.889668C2.67595 0.728979 3.02386 0.645098 3.35255 0.526855ZM15.2392 18.7595C16.021 18.7595 16.8027 18.7595 17.5845 18.7595C19.047 18.7595 20.5094 18.7665 21.9719 18.7564C22.8588 18.7504 23.4272 17.9459 23.0864 17.1829C22.8538 16.6614 22.4108 16.4835 21.8566 16.4835C17.444 16.4886 13.0303 16.4866 8.61774 16.4866C8.52975 16.4866 8.44075 16.4825 8.35276 16.4916C7.53052 16.5795 7.05518 17.4143 7.42534 18.1278C7.66705 18.5927 8.07565 18.7605 8.58133 18.7605C10.8003 18.7574 13.0192 18.7595 15.2382 18.7595H15.2392ZM15.2371 21.0263C14.5312 21.0263 13.8253 21.0263 13.1193 21.0263C11.581 21.0263 10.0428 21.0192 8.50447 21.0293C7.6175 21.0354 7.0481 21.8398 7.38994 22.6018C7.62357 23.1223 8.06553 23.3022 8.61976 23.3022C13.0324 23.2971 17.446 23.2992 21.8586 23.2992C21.9466 23.2992 22.0356 23.3032 22.1236 23.2941C22.9488 23.2042 23.4211 22.3734 23.051 21.6579C22.8103 21.191 22.4007 21.0253 21.895 21.0263C19.676 21.0293 17.4571 21.0273 15.2382 21.0273L15.2371 21.0263ZM15.2371 25.565C14.5312 25.565 13.8253 25.565 13.1193 25.565C11.581 25.565 10.0428 25.5579 8.50447 25.568C7.6175 25.5741 7.0481 26.3785 7.38994 27.1405C7.62357 27.661 8.06553 27.8409 8.61976 27.8409C13.0324 27.8358 17.446 27.8379 21.8586 27.8379C21.9466 27.8379 22.0356 27.8419 22.1236 27.8328C22.9488 27.7429 23.4211 26.9121 23.051 26.1966C22.8103 25.7297 22.4007 25.564 21.895 25.565C19.676 25.568 17.4571 25.566 15.2382 25.566L15.2371 25.565ZM12.9464 32.3755C14.4463 32.3755 15.9461 32.3816 17.446 32.3725C18.1195 32.3685 18.6273 31.8813 18.6434 31.2598C18.6586 30.6494 18.1448 30.1107 17.4874 30.1087C14.4746 30.0996 11.4627 30.1016 8.44985 30.1077C7.94518 30.1087 7.5285 30.4149 7.36769 30.8515C7.08349 31.6206 7.64278 32.3695 8.52166 32.3745C9.99624 32.3826 11.4708 32.3765 12.9464 32.3765V32.3755Z" fill="white"/>
<path id="Vector_2" d="M15.2391 18.7594C13.0202 18.7594 10.8012 18.7574 8.58231 18.7604C8.07662 18.7604 7.66803 18.5937 7.42631 18.1278C7.05615 17.4143 7.53048 16.5805 8.35374 16.4916C8.44071 16.4825 8.52971 16.4866 8.61871 16.4866C13.0313 16.4866 17.4449 16.4886 21.8575 16.4835C22.4107 16.4835 22.8537 16.6614 23.0874 17.1829C23.4282 17.9459 22.8598 18.7493 21.9728 18.7564C20.5104 18.7665 19.0479 18.7594 17.5855 18.7594C16.8037 18.7594 16.0219 18.7594 15.2401 18.7594H15.2391Z" fill="#9F06FF"/>
<path id="Vector_3" d="M15.2371 21.0263C17.456 21.0263 19.6749 21.0283 21.8939 21.0253C22.3996 21.0253 22.8082 21.19 23.0499 21.6569C23.42 22.3725 22.9477 23.2032 22.1225 23.2931C22.0355 23.3022 21.9465 23.2982 21.8575 23.2982C17.4449 23.2982 13.0313 23.2962 8.61866 23.3012C8.06443 23.3012 7.62246 23.1213 7.38884 22.6009C7.04699 21.8388 7.61639 21.0344 8.50336 21.0283C10.0417 21.0182 11.5799 21.0253 13.1182 21.0253C13.8242 21.0253 14.5301 21.0253 15.236 21.0253L15.2371 21.0263Z" fill="#9F06FF"/>
<path id="Vector_4" d="M15.2371 25.5649C17.456 25.5649 19.6749 25.567 21.8939 25.5639C22.3996 25.5639 22.8082 25.7287 23.0499 26.1956C23.42 26.9111 22.9477 27.7418 22.1225 27.8318C22.0355 27.8409 21.9465 27.8368 21.8575 27.8368C17.4449 27.8368 13.0313 27.8348 8.61866 27.8398C8.06443 27.8398 7.62246 27.66 7.38884 27.1395C7.04699 26.3775 7.61639 25.573 8.50336 25.567C10.0417 25.5569 11.5799 25.5639 13.1182 25.5639C13.8242 25.5639 14.5301 25.5639 15.236 25.5639L15.2371 25.5649Z" fill="#9F06FF"/>
<path id="Vector_5" d="M12.9463 32.3765C11.4717 32.3765 9.99715 32.3826 8.52156 32.3745C7.64167 32.3694 7.08339 31.6216 7.36759 30.8515C7.5284 30.4149 7.94609 30.1087 8.44975 30.1077C11.4626 30.1016 14.4745 30.0996 17.4873 30.1087C18.1447 30.1107 18.6585 30.6494 18.6433 31.2598C18.6272 31.8813 18.1194 32.3684 17.4459 32.3725C15.946 32.3816 14.4462 32.3755 12.9463 32.3755V32.3765Z" fill="#9F06FF"/>
<path id="Vector_6" d="M29.1727 9.60322H28.9118C26.6686 9.60322 24.4254 9.60322 22.1821 9.60322C21.367 9.60322 20.9189 9.15754 20.9179 8.34904C20.9169 6.09536 20.9179 3.84066 20.9179 1.58698C20.9179 1.48794 20.9179 1.3889 20.9179 1.35858C23.6567 4.09433 26.4198 6.85433 29.1727 9.60524V9.60322Z" fill="white"/>
</g>
</svg>
