<svg width="37" height="22" viewBox="0 0 37 22" fill="none" xmlns="http://www.w3.org/2000/svg">
<g id="Group">
<path id="Vector" d="M0.002301 3.25176V18.0512C0.0287625 18.1271 0.0621271 18.2018 0.0793846 18.28C0.43604 19.9286 1.957 21.2047 3.62178 21.2058C10.4868 21.2127 17.3519 21.215 24.2169 21.2058C26.1221 21.2035 27.772 19.5745 27.8214 17.6741C27.8444 16.7889 27.8295 15.9025 27.8341 15.0161C27.8341 14.9161 27.8479 14.8161 27.8559 14.7161L27.971 14.6367C28.0504 14.7563 28.1137 14.8931 28.2138 14.9931C29.7048 16.4831 31.1774 17.9914 32.703 19.4446C33.4554 20.1608 34.3965 20.2677 35.3423 19.8401C36.2868 19.4135 36.7999 18.6444 36.8022 17.6017C36.8137 12.9686 36.8091 8.33551 36.8057 3.70242C36.8057 2.60796 36.1177 1.68479 35.0765 1.36173C34.0399 1.03868 33.1736 1.34909 32.4292 2.09176C31.006 3.51388 29.5828 4.936 28.1585 6.35812C28.0722 6.44434 27.9779 6.52366 27.826 6.66277C27.826 5.61199 27.8456 4.65663 27.8214 3.70127C27.7708 1.68594 26.1302 0.0959702 24.1065 0.09482C17.3139 0.0902214 10.5202 0.0925217 3.72763 0.09482C2.55296 0.09482 1.60495 0.577673 0.845619 1.4629C0.399224 1.98485 0.18408 2.61025 0 3.25291L0.002301 3.25176ZM10.4788 10.6486C10.4788 9.38054 10.4811 8.11248 10.4776 6.84442C10.4765 6.31788 10.6836 5.9178 11.1587 5.67752C11.6304 5.43725 12.078 5.54646 12.4703 5.84537C14.1374 7.11228 15.7998 8.3838 17.4508 9.67141C18.1446 10.2129 18.14 11.0958 17.4462 11.6373C15.7941 12.9238 14.1305 14.1941 12.4657 15.4645C12.1631 15.6956 11.8168 15.8186 11.4245 15.7197C10.8274 15.568 10.488 15.146 10.4822 14.4907C10.4719 13.2112 10.4788 11.9305 10.4788 10.6509V10.6486Z" fill="white"/>
<path id="Vector_2" d="M10.4788 10.6498C10.4788 11.9293 10.4719 13.21 10.4823 14.4896C10.488 15.1437 10.8274 15.5668 11.4245 15.7186C11.8169 15.8174 12.1632 15.6944 12.4657 15.4633C14.1305 14.193 15.7941 12.9226 17.4463 11.6362C18.1412 11.0947 18.1446 10.2117 17.4509 9.67026C15.7999 8.38265 14.1374 7.11114 12.4703 5.84422C12.078 5.54646 11.6305 5.43724 11.1588 5.67637C10.6848 5.9178 10.4765 6.31788 10.4777 6.84327C10.4811 8.11133 10.4788 9.3794 10.4788 10.6475V10.6498Z" fill="#9F06FF"/>
</g>
</svg>
