<svg width="77" height="78" viewBox="0 0 77 78" fill="none" xmlns="http://www.w3.org/2000/svg">
<g id="Layer_1" clip-path="url(#clip0_1_2223)">
<path id="Vector" d="M9.87433 5.11285V54.5929H43.6266V59.6913H0V0H66.2613V24.9107C65.4447 24.6708 64.6185 24.4535 63.8178 24.1669C63.6968 24.1235 63.6411 23.758 63.6363 23.5407C63.6188 22.4186 63.6283 21.2966 63.6283 20.1214H59.125V24.0059C58.2081 24.2748 57.3819 24.5163 56.4299 24.7964C56.4299 24.3682 56.4299 24.0301 56.4299 23.692C56.4299 17.8161 56.422 11.9402 56.4459 6.06427C56.4491 5.37365 56.3313 5.09354 55.5465 5.09515C40.5845 5.1209 25.6242 5.11446 10.6623 5.11446H9.87114L9.87433 5.11285ZM59.0884 5.13056C59.0884 6.55527 59.0772 7.94456 59.1059 9.33064C59.1091 9.4546 59.3638 9.67675 59.5038 9.67836C60.8505 9.70573 62.1973 9.69446 63.5742 9.69446V5.13056H59.0884ZM7.13791 35.1171H2.71413V39.6407H7.13791V35.1171ZM2.69502 24.6724H7.11404V20.1391H2.69502V24.6724ZM2.70458 5.16115V9.70412H7.1204V5.16115H2.70458ZM63.6013 12.6984H59.1282V17.1384H63.6013V12.6984ZM2.68866 32.1051H7.11244V27.5911H2.68866V32.1051ZM2.68388 54.5623H7.12359V50.1047H2.68388V54.5623ZM2.71094 12.6823V17.1496H7.12995V12.6823H2.71094ZM7.12995 42.6495H2.71253V47.0975H7.12995V42.6495Z" fill="#545454"/>
<path id="Vector_2" d="M49.5276 50.1626C52.5808 50.1626 55.4414 50.1626 58.3019 50.1626C59.1775 50.1626 60.053 50.1852 60.9269 50.153C61.7993 50.1208 62.35 49.5847 62.3421 48.8409C62.3341 48.0634 61.8215 47.5885 60.9046 47.5853C57.4821 47.5724 54.0612 47.5772 50.6387 47.5772C50.3267 47.5772 50.0163 47.5772 49.6565 47.5772V45.0111C49.951 45.0111 50.2312 45.0111 50.513 45.0111C53.9355 45.0111 57.3564 45.0111 60.7789 45.0111C61.8009 45.0111 62.3516 44.5588 62.358 43.7329C62.3644 42.9022 61.8231 42.4289 60.8107 42.4273C57.4153 42.4209 54.0198 42.4257 50.6244 42.4273C50.314 42.4273 50.0036 42.4273 49.6518 42.4273V39.8612C49.9654 39.8612 50.2471 39.8612 50.5305 39.8612C53.953 39.8612 57.3739 39.8612 60.7964 39.8612C61.7595 39.8612 62.3118 39.4169 62.3453 38.6297C62.3803 37.8119 61.8184 37.2903 60.8219 37.2871C57.4264 37.2742 54.031 37.2775 50.6355 37.2758C50.3235 37.2758 50.0131 37.2758 49.569 37.2758C49.6661 36.458 49.7059 35.7401 49.8682 35.0527C49.908 34.8868 50.3569 34.7259 50.618 34.7242C54.066 34.7033 57.514 34.7114 60.9635 34.7081C61.8502 34.7081 62.2832 34.3942 62.4217 33.6714C62.592 32.7844 61.9935 32.1501 60.954 32.1485C57.8769 32.1421 54.7998 32.1469 51.7228 32.1453C51.4697 32.1453 51.2166 32.1453 50.852 32.1453C51.9011 30.0525 53.3194 28.462 55.2089 27.3463C62.124 23.2654 70.6643 27.0872 72.3263 34.9947C72.4632 35.6451 72.5284 36.3228 72.53 36.9877C72.5427 43.7216 72.5555 50.4556 72.5284 57.1896C72.5045 62.9142 69.0215 67.3879 63.5742 68.774C57.3627 70.3532 50.5289 65.762 49.8173 59.3403C49.4862 56.346 49.612 53.3018 49.5276 50.1658V50.1626Z" fill="#545454"/>
<path id="Vector_3" d="M44.9956 29.8722C37.0331 34.4925 29.2362 39.0177 21.3485 43.5945V16.1499C29.2442 20.7315 37.0538 25.2632 44.9956 29.8722Z" fill="#545454"/>
<path id="Vector_4" d="M64.8541 78H57.6V73.2832C56.5605 72.8984 55.5528 72.6279 54.6375 72.1691C48.7237 69.1974 45.6148 64.3469 45.3522 57.6741C45.2742 55.6924 45.3283 53.7059 45.3378 51.7209C45.3426 50.7341 45.8122 50.1803 46.589 50.1884C47.307 50.1964 47.7559 50.7438 47.7702 51.6984C47.8036 53.9232 47.7638 56.1512 47.853 58.3728C48.1061 64.6496 52.7782 69.9347 58.9244 70.965C66.3011 72.2013 73.2687 67.206 74.3798 59.7331C74.6934 57.6291 74.5422 55.4542 74.5963 53.3115C74.6122 52.6675 74.5804 52.0236 74.6154 51.3813C74.6536 50.6729 75.1407 50.2125 75.7838 50.2093C76.4174 50.2061 76.9124 50.6794 76.9904 51.3652C76.9936 51.3925 76.9952 51.4183 76.9936 51.4457C76.9475 54.1518 77.1114 56.8805 76.8137 59.556C76.1881 65.1792 73.205 69.2827 68.2623 71.9019C67.3565 72.3816 66.36 72.6972 65.3842 73.0224C64.9798 73.1576 64.8382 73.3314 64.8445 73.7516C64.8652 75.1409 64.8525 76.5302 64.8525 78H64.8541Z" fill="#545454"/>
<path id="Vector_5" d="M59.0883 5.13055H63.5742V9.69606C62.1972 9.69606 60.8505 9.70733 59.5038 9.67996C59.3621 9.67674 59.1074 9.4562 59.1058 9.33224C59.0772 7.94456 59.0883 6.55687 59.0883 5.13216V5.13055Z" fill="white"/>
<path id="Vector_6" d="M7.1379 35.1171V39.6407H2.71411V35.1171H7.1379Z" fill="white"/>
<path id="Vector_7" d="M2.69507 24.6724V20.1391H7.11408V24.6724H2.69507Z" fill="white"/>
<path id="Vector_8" d="M2.70459 5.16116H7.12042V9.70413H2.70459V5.16116Z" fill="white"/>
<path id="Vector_9" d="M63.6013 12.6984V17.1384H59.1282V12.6984H63.6013Z" fill="white"/>
<path id="Vector_10" d="M2.6886 32.1051V27.5911H7.11239V32.1051H2.6886Z" fill="white"/>
<path id="Vector_11" d="M2.68384 54.5623V50.1047H7.12354V54.5623H2.68384Z" fill="white"/>
<path id="Vector_12" d="M2.71094 12.6807H7.12995V17.148H2.71094V12.6807Z" fill="white"/>
<path id="Vector_13" d="M7.12994 42.6495V47.0975H2.71252V42.6495H7.12994Z" fill="white"/>
</g>
<defs>
<clipPath id="clip0_1_2223">
<rect width="77" height="78" fill="white"/>
</clipPath>
</defs>
</svg>
