<svg width="79" height="95" viewBox="0 0 79 95" fill="none" xmlns="http://www.w3.org/2000/svg">
<g id="Layer_1" clip-path="url(#clip0_1_2122)">
<path id="Vector" d="M39.9019 13.6308C41.5824 14.9499 43.4253 16.1224 44.8785 17.6695C45.4873 18.3209 45.26 19.754 45.4143 20.8289C44.2371 20.7067 42.6702 21.0243 41.9477 20.381C39.1144 17.8731 36.3866 15.2023 33.9998 12.2791C33.3098 11.4323 33.2935 9.07905 33.9755 8.24036C36.273 5.42301 38.9033 2.8418 41.6798 0.48044C42.4998 -0.219826 44.2046 0.122164 45.5036 -0.00811768C45.1951 1.16442 45.1626 2.54867 44.4969 3.46878C43.5714 4.74718 42.1669 5.66729 40.4133 7.24696C42.2887 7.72738 43.3522 8.10194 44.4482 8.27293C60.8067 10.789 71.9533 19.8762 76.9217 35.624C81.9632 51.5917 77.7092 65.5237 65.5966 76.9478C64.6548 77.8354 62.6902 77.6318 61.2045 77.9331C61.7322 76.6058 61.9189 74.9122 62.8444 73.9921C78.6753 58.3501 78.6591 35.0785 62.5765 20.837C56.4228 15.3896 49.2218 12.3035 40.9086 12.328C40.5757 12.7595 40.251 13.1992 39.9181 13.6308H39.9019Z" fill="#545454"/>
<path id="Vector_2" d="M37.2147 87.3541C33.5452 86.5236 29.7539 86.0269 26.2143 84.8136C-1.85909 75.1646 -9.18187 37.7329 13.0787 17.9871C13.3791 17.7184 13.647 17.2461 13.9799 17.1972C15.1652 17.0263 16.3667 16.9937 17.5682 16.9041C17.2841 18.0522 17.2922 19.4039 16.6671 20.3159C13.4197 25.0712 9.0439 29.289 6.81134 34.4596C-2.48421 56.0376 13.9555 82.1835 36.6383 82.5744C37.1173 82.5825 37.6044 82.5092 38.7085 82.4278C36.7682 80.384 35.0552 78.8695 33.7563 77.0618C33.2448 76.3453 33.6426 74.9773 33.6264 73.9025C34.6087 73.9839 35.9401 73.6908 36.5084 74.22C39.4878 76.9641 42.4186 79.814 45.0408 82.9001C45.6659 83.6329 45.5685 85.864 44.9109 86.6457C42.5728 89.4386 39.9668 92.0443 37.2066 94.4056C36.3704 95.1222 34.6736 94.829 33.3747 95C33.6507 93.8193 33.5614 92.3211 34.2758 91.5476C35.4286 90.2854 37.0929 89.5038 38.5461 88.5185C38.0996 88.1276 37.6531 87.7368 37.2147 87.346V87.3541Z" fill="#545454"/>
<path id="Vector_3" d="M26.3685 47.4471C26.3685 42.9768 26.2954 38.5065 26.3928 34.0443C26.4821 29.7695 29.4535 27.8641 33.1554 29.9242C41.0546 34.3049 48.8645 38.8322 56.6176 43.4653C60.1897 45.5987 60.1572 49.3769 56.5607 51.5184C48.9213 56.0701 41.217 60.5241 33.4477 64.856C29.2911 67.1685 26.4415 65.312 26.3847 60.4509C26.3279 56.119 26.3766 51.7871 26.3766 47.4552L26.3685 47.4471ZM30.6144 61.6478C38.952 56.8111 46.7456 52.292 55.0913 47.4552C46.632 42.5778 38.814 38.0668 30.6144 33.3359V61.656V61.6478Z" fill="#545454"/>
</g>
<defs>
<clipPath id="clip0_1_2122">
<rect width="79" height="95" fill="white"/>
</clipPath>
</defs>
</svg>
