<svg width="29" height="36" viewBox="0 0 29 36" fill="none" xmlns="http://www.w3.org/2000/svg">
<g id="Layer_1" clip-path="url(#clip0_1_2300)">
<path id="Vector" d="M0.00269253 17.8798C0.00269253 13.5926 -0.00297219 9.30651 0.00495843 5.01932C0.00949021 2.78953 1.52424 0.782832 3.65644 0.180034C4.05864 0.0662344 4.48916 0.00201108 4.90721 0.000884357C8.58249 -0.00700272 12.2578 0.0234189 15.933 0.000884357C17.6313 -0.00925617 19.026 0.569881 20.2031 1.78562C22.5744 4.23624 24.9728 6.66208 27.3701 9.08792C28.4657 10.1966 29.0027 11.507 28.9993 13.0664C28.9868 18.9276 28.9959 24.7888 28.9936 30.6501C28.9925 33.3283 27.3361 35.3665 24.7134 35.904C24.3429 35.9795 23.9554 35.9941 23.5759 35.9941C17.526 35.9998 11.4749 36.002 5.42497 35.9964C2.72516 35.9941 0.706252 34.4223 0.126184 31.8681C0.034415 31.4613 0.00722432 31.0332 0.00609137 30.614C-0.000706301 26.3696 0.00269253 22.1253 0.00269253 17.8798ZM14.4783 24.9139C16.3296 24.9139 18.1819 24.9229 20.0332 24.9105C21.2058 24.9026 21.9116 23.7511 21.3712 22.745C21.0562 22.1591 20.5203 21.9619 19.8836 21.9619C16.2933 21.9619 12.703 21.9619 9.11271 21.9653C8.88838 21.9653 8.66066 21.9923 8.442 22.0419C7.99562 22.1433 7.69539 22.4238 7.54584 22.8543C7.17197 23.9291 7.86307 24.9083 9.00847 24.9117C10.8314 24.9184 12.6554 24.9139 14.4783 24.9139ZM11.7332 17.5158V17.5113C12.7087 17.5113 13.6853 17.5361 14.6596 17.5034C15.5082 17.4753 15.967 16.9344 15.9625 16.0601C15.958 15.2612 15.396 14.6213 14.6177 14.6145C12.6815 14.5954 10.7441 14.5999 8.80681 14.6134C8.21994 14.6168 7.72485 15.0168 7.53678 15.5655C7.20822 16.5221 7.82568 17.4685 8.84986 17.5079C9.80947 17.5451 10.7725 17.5158 11.7332 17.5158Z" fill="#9F06FF"/>
<path id="Vector_2" d="M14.4779 24.9153C12.655 24.9153 10.8309 24.9198 9.00801 24.913C7.8626 24.9085 7.17151 23.9305 7.54538 22.8556C7.69493 22.4252 7.99516 22.1447 8.44154 22.0433C8.6602 21.9937 8.88792 21.9666 9.11224 21.9666C12.7025 21.9621 16.2929 21.9644 19.8832 21.9633C20.5199 21.9633 21.0558 22.1604 21.3707 22.7463C21.9111 23.7525 21.2053 24.904 20.0327 24.9119C18.1815 24.9243 16.3291 24.9153 14.4779 24.9153Z" fill="white"/>
<path id="Vector_3" d="M11.7327 17.5161C10.7709 17.5161 9.80901 17.5454 8.8494 17.5082C7.82522 17.4687 7.20663 16.5223 7.53632 15.5657C7.72552 15.017 8.22062 14.617 8.80635 14.6136C10.7437 14.6012 12.6799 14.5956 14.6172 14.6147C15.3956 14.6226 15.9575 15.2615 15.962 16.0603C15.9666 16.9335 15.5077 17.4755 14.6591 17.5037C13.6848 17.5363 12.7082 17.5116 11.7327 17.5116V17.5161Z" fill="white"/>
</g>
<defs>
<clipPath id="clip0_1_2300">
<rect width="29" height="36" fill="white"/>
</clipPath>
</defs>
</svg>
