<svg width="64" height="103" viewBox="0 0 64 103" fill="none" xmlns="http://www.w3.org/2000/svg">
<g id="Isolation_Mode">
<path id="Vector" d="M22.1918 14.2369C23.0579 12.7117 24.2721 11.4816 25.6863 10.4869C26.9108 9.62512 28.2167 8.87947 29.4874 8.08545C29.5416 8.05159 29.6101 8.04192 29.736 8C29.454 8.51994 29.1918 8.9891 28.9425 9.46551C28.1497 10.981 27.655 12.586 27.6366 14.3094C27.6127 16.5206 28.4389 18.4109 29.8595 20.0594C31.0076 21.3911 32.3963 22.406 33.922 23.2452C35.0685 23.8756 36.1369 24.6172 37.0619 25.5555C38.4267 26.9396 39.1517 28.6389 39.405 30.5542C39.6002 32.0302 39.7341 33.5159 39.9524 34.9878C40.487 38.7927 43.7257 42.0695 47.7746 41.2344C49.1681 40.7241 49.9664 39.598 50.4931 38.2534C51.234 36.3606 51.3153 34.3824 51.1663 32.3889C51.0747 31.1612 50.9034 29.9392 50.7576 28.6195C51.1958 29.3217 51.6061 29.9553 51.9933 30.6026C53.7724 33.5731 55.2264 36.6992 56.3657 39.9753C57.501 43.2392 58.293 46.583 58.6945 50.0234C58.9829 52.4966 59.0937 54.9738 58.9104 57.4566C58.6738 60.6698 58.0532 63.8039 56.9019 66.8204C56.2414 68.5519 55.4431 70.2109 54.4775 71.7393C52.0451 70.0312 49.4111 68.7019 46.8943 67.1767C45.7685 66.4947 44.6204 65.8507 43.4835 65.1872C43.4524 65.1695 42.9696 64.8736 42.8373 64.7963C38.5749 62.3142 34.3212 59.8185 30.0619 57.3301C27.2263 55.6735 24.3868 54.025 21.5489 52.3717C20.929 52.0105 20.3163 51.6357 19.6893 51.2866C17.574 50.1081 15.0771 51.5809 15.0723 54.0202C15.0635 59.1253 15.0691 64.2304 15.0691 69.3355C15.0691 71.7119 15.0691 74.0883 15.0667 76.4647C15.0667 76.6074 15.0524 76.7501 15.0388 77C14.6253 76.6518 14.2796 76.3712 13.9457 76.077C10.9891 73.4692 8.59413 70.4302 7.01025 66.7761C6.10039 64.6762 5.52197 62.4868 5.22081 60.2095C4.66549 56.0056 5.20009 51.9098 6.34897 47.8752C7.21421 44.8361 8.44116 41.9454 9.90634 39.1498C11.107 36.8596 12.4312 34.6509 13.886 32.5195C13.9744 32.3897 14.07 32.2648 14.2262 32.0496C13.8549 34.2833 13.6223 36.4155 13.6884 38.5694C13.6884 38.5694 13.6804 49.3213 19.8566 45.7502C21.4373 44.5209 22.8292 43.1223 23.8219 41.3521C24.9286 39.3787 25.2616 37.2562 25.0417 35.0177C24.8688 33.2555 24.3916 31.5707 23.8227 29.9085C23.2029 28.0964 22.5408 26.2996 21.9369 24.4818C21.4031 22.8768 21.0167 21.2348 20.9322 19.5314C20.9322 19.5314 20.6079 17.0301 22.1926 14.2377L22.1918 14.2369Z" fill="#545454"/>
<path id="Vector_2" d="M42.1784 66.8041C44.6019 68.2187 47.0168 69.65 49.4364 71.0718C50.3148 71.588 51.1799 72.1353 52.092 72.5805C53.3143 73.1773 53.2768 74.7547 52.135 75.3866C49.9756 76.581 47.8663 77.8703 45.739 79.1253C43.3749 80.5192 41.0163 81.9218 38.6522 83.3148C33.8693 86.1344 29.0833 88.9492 24.2996 91.7673C22.5881 92.7757 20.8812 93.7914 19.1682 94.7959C18.328 95.2882 17.2706 94.8494 17.0502 93.9151C17.0166 93.7739 17.0846 93.6071 17.1065 93.4523C17.1135 93.4052 17.1354 93.3574 17.1315 93.3111C17.0909 92.8579 17.0096 92.4047 17.0088 91.9524C16.9994 86.1296 17.0018 80.3069 17.001 74.4842C17.001 67.8509 16.9994 61.2176 17.0002 54.5842C17.0002 53.6858 17.4363 53.0938 18.2639 53.0061C18.5851 52.9718 18.9681 53.0867 19.2565 53.2534C21.6315 54.6257 23.9917 56.0251 26.3558 57.4182C29.8796 59.495 33.4035 61.5718 36.9266 63.6502C38.4123 64.5262 39.8979 65.4039 41.3828 66.2815L42.1784 66.8049V66.8041Z" fill="#545454"/>
</g>
</svg>
