<svg width="41" height="37" viewBox="0 0 41 37" fill="none" xmlns="http://www.w3.org/2000/svg">
<g id="Group">
<path id="Vector" d="M41 12.9173C40.8396 13.7533 40.7287 14.6032 40.5099 15.4234C39.9218 17.6307 38.7732 19.5273 37.1663 21.145C36.699 21.6159 36.0009 21.6139 35.5257 21.1816C35.0613 20.7581 35.0168 20.0606 35.4168 19.5422C36.0019 18.7833 36.6564 18.067 37.1534 17.2537C39.2911 13.7622 39.0455 8.98555 36.5999 5.68994C36.2633 5.23681 35.8821 4.81633 35.5128 4.38892C35.0187 3.81706 35.0217 3.08592 35.5306 2.62784C36.0435 2.1658 36.7613 2.23209 37.2871 2.78317C39.3831 4.97859 40.6178 7.57471 40.9326 10.5992C40.9416 10.6893 40.9772 10.7753 41 10.8634V12.9173Z" fill="white"/>
<path id="Vector_2" d="M26.8544 13.9226C26.8544 16.3446 26.891 18.7676 26.8445 21.1895C26.797 23.6382 25.2207 25.7535 22.9217 26.5965C19.4454 27.8708 15.7325 25.9375 14.8266 22.359C14.6998 21.8564 14.6701 21.3191 14.6682 20.7977C14.6563 16.216 14.7097 11.6342 14.6454 7.05337C14.5988 3.74391 17.2553 0.906384 20.7019 0.868787C24.1494 0.831191 26.7979 3.5955 26.8425 6.57748C26.8791 9.02519 26.8504 11.4749 26.8504 13.9236C26.8524 13.9236 26.8534 13.9236 26.8554 13.9236L26.8544 13.9226Z" fill="white"/>
<path id="Vector_3" d="M19.5582 34.1079V31.7156C18.6859 31.4752 17.8096 31.3189 16.9997 30.9963C13.0918 29.439 10.6848 26.6282 10.0116 22.4254C9.94917 22.0375 9.93828 21.6418 9.91848 21.248C9.87789 20.4535 10.3422 19.8945 11.0492 19.8718C11.7621 19.85 12.2789 20.3714 12.2957 21.154C12.3373 23.0338 12.9611 24.694 14.1215 26.1692C17.2314 30.1247 23.3067 30.4393 26.8176 26.8202C28.3592 25.2312 29.18 23.3415 29.2285 21.1204C29.2434 20.4486 29.6731 19.9509 30.2701 19.8767C30.8375 19.8065 31.4533 20.1508 31.5474 20.6959C31.6286 21.1679 31.6216 21.6705 31.5612 22.1474C31.1444 25.4449 29.5226 28.0114 26.776 29.8665C25.4513 30.7618 23.9879 31.3238 22.4027 31.5593C22.2602 31.58 22.1196 31.6157 21.9641 31.6483V34.0871C22.1156 34.094 22.2552 34.1059 22.3948 34.1059C23.4483 34.1079 24.5018 34.098 25.5552 34.1099C26.3671 34.1188 26.881 34.6323 26.8533 35.3753C26.8335 35.8937 26.481 36.335 25.9741 36.4547C25.8097 36.4943 25.6354 36.5131 25.4661 36.5131C22.3315 36.516 19.1968 36.517 16.0621 36.514C15.2829 36.514 14.7552 36.1203 14.6769 35.498C14.5769 34.7055 15.1057 34.1198 15.9601 34.1089C17.0007 34.095 18.0413 34.1059 19.0819 34.1049C19.2265 34.1049 19.37 34.1049 19.5572 34.1049L19.5582 34.1079Z" fill="white"/>
<path id="Vector_4" d="M0.523452 11.5936C0.568997 8.35341 1.82049 5.29526 4.28487 2.73377C4.78586 2.21336 5.52349 2.18169 6.01359 2.64571C6.49875 3.10577 6.52152 3.84087 6.01359 4.37414C4.872 5.57228 3.96308 6.91684 3.47496 8.50182C2.28188 12.3812 2.97793 15.8924 5.62053 18.9971C5.7829 19.1871 5.9631 19.3622 6.11656 19.5591C6.51855 20.0725 6.45617 20.776 5.98191 21.1935C5.49874 21.6189 4.79576 21.6219 4.34823 21.1272C3.76704 20.4851 3.17892 19.8341 2.69971 19.1168C1.24623 16.9412 0.535332 14.5251 0.522461 11.5936H0.523452Z" fill="white"/>
<path id="Vector_5" d="M5.28591 11.8924C5.31264 9.66826 6.08591 7.74195 7.62057 6.12531C8.13345 5.58511 8.83247 5.52476 9.34336 5.9769C9.87505 6.44686 9.90871 7.16514 9.38395 7.72612C8.37801 8.80157 7.77305 10.0452 7.68692 11.5273C7.59087 13.1835 8.09088 14.632 9.19683 15.8677C9.50079 16.207 9.80475 16.5454 9.74832 17.0381C9.69089 17.5328 9.42851 17.8939 8.94435 18.0621C8.47702 18.2244 8.05524 18.1225 7.71266 17.7762C6.40374 16.4564 5.61165 14.8753 5.35422 13.0321C5.32551 12.8244 5.30174 12.6146 5.28788 12.4049C5.27699 12.2347 5.28591 12.0635 5.28591 11.8924Z" fill="white"/>
<path id="Vector_6" d="M36.2564 11.939C36.2059 14.169 35.4297 16.1072 33.8673 17.7209C33.3683 18.2363 32.6713 18.2759 32.1742 17.8277C31.6673 17.3706 31.6079 16.6731 32.098 16.1408C32.9079 15.2613 33.5119 14.2788 33.7327 13.0956C34.104 11.1039 33.6119 9.34681 32.2406 7.8489C31.9346 7.51449 31.699 7.16128 31.7861 6.68737C31.8703 6.22633 32.1366 5.89588 32.5861 5.74351C33.0713 5.57928 33.499 5.70888 33.8475 6.06902C35.4267 7.70247 36.2208 9.66143 36.2555 11.939H36.2564Z" fill="white"/>
<path id="Vector_7" d="M29.6098 9.04391C30.2851 9.02907 30.6217 9.51485 30.9227 9.98876C31.8178 11.3957 31.6405 13.1241 30.5118 14.3539C30.0465 14.8604 29.3583 14.9208 28.8484 14.4983C28.3484 14.0848 28.2781 13.3853 28.6831 12.8362C29.2445 12.0734 29.2445 11.7271 28.6811 10.9771C28.386 10.5844 28.3286 10.155 28.5375 9.71471C28.7474 9.27444 29.1158 9.04787 29.6108 9.04391H29.6098Z" fill="white"/>
<path id="Vector_8" d="M13.1721 10.2708C13.0404 10.533 12.9424 10.8209 12.7691 11.0524C12.3226 11.65 12.3048 12.1506 12.7602 12.7314C13.2513 13.3567 13.2087 14.0759 12.6543 14.5142C12.1038 14.9496 11.4216 14.8427 10.9176 14.2431C9.69882 12.7937 9.74337 10.8249 11.0265 9.43677C11.3761 9.05883 11.8998 8.93614 12.3612 9.12511C12.8236 9.31408 13.1018 9.73358 13.1711 10.2708H13.1721Z" fill="white"/>
</g>
</svg>
