<svg width="35" height="35" viewBox="0 0 35 35" fill="none" xmlns="http://www.w3.org/2000/svg">
<g id="Layer_1" clip-path="url(#clip0_1_2308)">
<path id="Vector" d="M35.0001 19.0016C34.9084 19.5948 34.8313 20.1907 34.7217 20.7813C34.3457 22.8111 33.6203 24.709 32.5977 26.4204C30.4934 25.9606 28.425 25.5086 26.3044 25.0455C26.838 22.9618 27.1575 20.7796 27.2251 18.5239H35.0001V19.0024V19.0016Z" fill="white"/>
<path id="Vector_2" d="M35 16.4718H27.3304C27.0838 14.5063 26.8405 12.5707 26.5913 10.5872C28.6494 10.2156 30.776 9.80298 32.7629 8.86386C33.5183 10.1874 34.0956 11.5451 34.4382 12.9885C34.6523 13.8925 34.773 14.8179 34.9375 15.7339C34.9529 15.8212 34.9795 15.906 35.0009 15.9924V16.471L35 16.4718Z" fill="white"/>
<path id="Vector_3" d="M18.7239 35C19.3714 34.7055 20.048 34.4615 20.6603 34.1054C21.7909 33.4479 22.6456 32.4814 23.4044 31.4302C24.3011 30.1871 24.9914 28.8319 25.537 27.4023C25.6012 27.2336 25.6518 27.1035 25.889 27.1369C27.7124 27.3929 29.5204 27.7208 31.3344 28.2764C31.0851 28.576 30.865 28.8619 30.6244 29.1282C27.846 32.1946 24.4382 34.1217 20.3409 34.7971C19.9169 34.8673 19.4921 34.9324 19.0673 34.9992H18.7256L18.7239 35Z" fill="white"/>
<path id="Vector_4" d="M15.9198 35C15.3605 34.9101 14.7995 34.8296 14.2428 34.7269C11.211 34.1679 8.51913 32.8829 6.17501 30.8865C5.5104 30.3207 4.90231 29.6863 4.22485 29.0417C5.90265 28.1642 7.64383 27.7721 9.44068 27.416C9.50663 27.5718 9.57172 27.7242 9.6351 27.8774C10.4102 29.7283 11.3917 31.449 12.8134 32.8889C13.7221 33.8092 14.7541 34.5352 16.0166 34.8921C16.1014 34.9161 16.1793 34.9623 16.2607 34.9983H15.9189L15.9198 35Z" fill="white"/>
<path id="Vector_5" d="M0.000945584 18.5376H7.7536C7.8461 20.8695 8.15614 23.169 8.79163 25.4213C7.77758 25.6824 6.77724 25.8896 5.81115 26.2021C4.85449 26.5111 3.93294 26.9272 2.97799 27.303C1.55285 25.7184 -0.0444467 21.0673 0.000945584 18.5376Z" fill="white"/>
<path id="Vector_6" d="M0.00160699 16.4453C-0.0540628 14.4207 1.15611 10.3637 2.25323 8.84845C3.2827 9.18061 4.29674 9.5453 5.3322 9.83123C6.35909 10.1146 7.4074 10.3183 8.40431 10.5469C8.15594 12.5013 7.90757 14.4566 7.65406 16.4462H0.00160699V16.4453Z" fill="white"/>
<path id="Vector_7" d="M16.4483 18.5487V24.6389C14.5736 24.7878 12.7168 24.9359 10.8274 25.0857C10.2013 22.9789 9.89216 20.7951 9.80737 18.5487H16.4492H16.4483Z" fill="white"/>
<path id="Vector_8" d="M25.1773 18.5487C25.1037 20.7009 24.8065 22.7966 24.2258 24.8632C22.3365 24.7801 20.454 24.6979 18.5449 24.614V18.5496H25.1765L25.1773 18.5487Z" fill="white"/>
<path id="Vector_9" d="M26.0166 8.60617C25.5567 7.54977 25.1593 6.50792 24.66 5.51914C23.8215 3.8592 22.7544 2.36449 21.241 1.2336C20.6064 0.760192 19.9126 0.404062 19.1615 0.155799C19.0493 0.118988 18.938 0.080464 18.8352 0.0205383C24.1367 0.493951 28.3821 2.87214 31.6512 7.12344C29.8056 7.94442 27.888 8.27316 26.0166 8.60532V8.60617Z" fill="white"/>
<path id="Vector_10" d="M9.04666 8.54968C7.11192 8.22094 5.24656 7.78862 3.39575 7.04383C6.65457 2.84476 10.8812 0.49139 16.1313 0C15.5703 0.259392 14.9819 0.490534 14.4329 0.792731C13.2741 1.43137 12.3808 2.37134 11.6075 3.42775C10.5515 4.87024 9.77122 6.45656 9.20082 8.14903C9.158 8.27659 9.10404 8.39986 9.0458 8.54968H9.04666Z" fill="white"/>
<path id="Vector_11" d="M16.4484 11.2926V16.4539H9.80225C9.8562 14.5594 10.09 12.7085 10.5294 10.8842C12.5018 11.0203 14.4597 11.1556 16.4484 11.2926Z" fill="white"/>
<path id="Vector_12" d="M18.5439 11.2994C20.5069 11.1761 22.4571 11.0537 24.4604 10.9287C24.9031 12.7017 25.1241 14.5516 25.1858 16.4487H18.5439V11.2994Z" fill="white"/>
<path id="Vector_13" d="M18.5381 2.11453C19.6823 2.45611 20.5251 3.17265 21.2565 4.0313C22.4607 5.44554 23.2418 7.09435 23.8867 8.91952C22.0855 9.02824 20.3238 9.13354 18.5389 9.2414V2.11453H18.5381Z" fill="white"/>
<path id="Vector_14" d="M16.4431 9.23284C14.6711 9.11384 12.9188 8.99656 11.1108 8.875C11.2736 8.44353 11.3995 8.07114 11.5536 7.71158C12.2808 6.01654 13.1672 4.42509 14.5692 3.17778C15.1345 2.67526 15.7931 2.30372 16.4431 2.13336V9.23284Z" fill="white"/>
<path id="Vector_15" d="M18.5286 32.9463V26.6703C20.1901 26.7337 21.8405 26.7962 23.5834 26.8621C22.4263 29.3739 21.253 31.7409 18.5286 32.9463Z" fill="white"/>
<path id="Vector_16" d="M11.5452 27.0727C13.1861 26.9477 14.7963 26.8253 16.4373 26.7003V32.8683C15.7983 32.7125 15.2665 32.3547 14.7672 31.9481C13.593 30.9927 12.0128 28.6076 11.5452 27.0727Z" fill="white"/>
</g>
<defs>
<clipPath id="clip0_1_2308">
<rect width="35" height="35" fill="white"/>
</clipPath>
</defs>
</svg>
