<svg width="95" height="99" viewBox="0 0 95 99" fill="none" xmlns="http://www.w3.org/2000/svg">
<g id="Layer_1" clip-path="url(#clip0_1_2182)">
<path id="Vector" d="M23.3041 26.9965C22.1741 9.76837 34.7382 -0.375035 47.5566 0.0118413C61.6464 0.434987 72.5235 11.6625 71.5104 26.9723C75.3003 26.3799 76.1438 27.0932 76.164 30.9821C76.1882 35.5521 76.2851 40.122 76.1438 44.6839C76.055 47.6178 75.3971 50.5354 75.3487 53.4652C75.2801 57.4226 76.3335 58.4745 80.3211 59.1273C82.1777 59.4336 83.4975 60.2235 84.236 62.1216C84.6033 63.0767 85.5276 63.9915 86.4357 64.5234C88.1873 65.543 89.6524 66.6472 90.2295 68.7146C90.391 69.2989 90.8995 69.984 91.4323 70.242C95.327 72.128 95.5127 75.5091 94.423 78.8298C92.9256 83.3917 91.2547 88.002 88.8977 92.1569C84.4136 100.06 73.3589 101.265 66.6632 95.0262C64.7017 93.1966 62.5505 91.5685 60.4437 89.9001C57.8122 87.8166 56.1574 85.173 55.3502 81.9127C54.7569 79.5109 53.7963 77.1936 53.2999 74.7797C52.7389 72.0393 52.5209 69.2304 52.1294 66.4538C51.5805 62.5367 50.8702 58.6397 50.4989 54.7065C50.3011 52.5988 50.6724 50.4387 50.7854 48.2787C50.733 48.2867 50.3415 48.3391 49.95 48.3955C47.9118 48.6817 47.4517 48.2908 47.4234 46.167C47.4033 44.6235 47.2943 43.0639 47.4436 41.5325C47.6454 39.4732 46.5396 38.9171 44.7879 38.5665C39.1617 37.43 35.1176 34.3189 33.3377 28.7334C30.7143 20.5042 35.61 12.0614 44.1502 9.97793C45.4579 9.65957 47.0884 9.583 46.818 7.7816C46.7696 7.44309 44.574 7.04412 43.5166 7.29801C35.5091 9.2203 30.2421 15.7085 29.9797 23.7443C29.7174 31.7397 34.5566 38.3126 42.5964 40.9079C43.2986 41.1336 43.9726 41.4398 44.6628 41.7058C44.6224 41.9154 44.5821 42.129 44.5417 42.3385C43.9565 42.3385 43.3511 42.4433 42.7901 42.3224C35.9329 40.8555 29.7537 33.9965 28.8093 27.0126C28.6882 26.1099 27.7801 24.518 27.4774 24.5704C25.9921 24.8364 26.2424 26.1502 26.3715 27.3148C27.2594 35.27 33.9108 42.7496 42.0596 44.9419C42.8748 45.1595 43.674 45.4295 44.6547 45.7277C42.7578 47.0415 36.9742 44.7162 33.0148 41.3068C25.0073 34.4156 22.7674 23.6516 27.2272 14.286C30.682 7.02397 38.7097 1.59159 46.1682 2.40967C45.6395 2.61117 45.1229 2.90535 44.574 2.99401C35.2225 4.54152 28.781 10.5179 26.6016 19.7103C26.5087 20.1012 26.3029 20.5606 26.428 20.883C26.6823 21.552 27.1222 22.1484 27.4814 22.7731C27.9577 22.2532 28.7487 21.7938 28.8658 21.2054C29.7618 16.6918 31.8565 12.8876 35.3557 9.90136C45.3893 1.34173 61.6303 6.33485 65.1012 19.0413C65.2708 19.666 65.1941 20.3591 65.2344 21.02C65.0326 21.0603 64.8308 21.1006 64.629 21.1409C64.3949 20.5042 64.1447 19.8715 63.9308 19.2307C61.7675 12.7747 57.2956 8.82133 50.733 7.21338C50.2365 7.09248 49.5706 7.66474 48.9813 7.91459C49.2962 8.57148 49.5141 9.30493 49.9581 9.85703C50.1962 10.1512 50.8339 10.123 51.2819 10.256C56.8476 11.9163 60.367 15.5151 61.6101 21.2215C62.1549 23.7282 65.2223 25.183 67.3533 23.712C68.0031 23.2647 68.4431 21.9832 68.3825 21.1288C68.0919 17.1875 66.2959 13.8185 63.8662 10.7799C60.7262 6.85471 56.6256 4.46092 51.742 3.34462C51.1447 3.2076 50.5796 2.93759 49.9984 2.72803C50.0388 2.51042 50.0832 2.28877 50.1235 2.07115C50.8339 2.15981 51.5644 2.17593 52.2546 2.34116C62.1993 4.74704 69.6902 13.9434 69.6458 23.6637C69.5933 35.1088 62.9379 43.7288 52.1981 46.2597C51.1003 46.5176 49.8854 47.1261 49.4536 45.3852C48.9047 43.1767 49.5585 41.7098 51.2577 41.2262C56.7991 39.6465 60.9361 36.4104 63.281 31.0627C63.6523 30.2164 64.0276 29.3661 64.4232 28.5319C64.4555 28.4593 64.6653 28.4714 65.1376 28.3707C65.0649 28.9792 65.0851 29.5192 64.9237 29.9988C62.8774 36.0719 58.8171 40.1341 52.6945 42.1249C52.1294 42.3103 51.407 42.4473 51.0962 42.8584C50.7532 43.3138 50.6805 44.0714 50.7491 44.6719C50.7693 44.8411 51.7258 45.091 52.194 44.9983C59.9957 43.4709 67.2888 35.7858 68.3341 28.0563C68.5722 26.3073 67.6399 25.1789 65.9125 25.1185C62.5908 25.0016 62.3608 25.1185 61.4486 28.3505C59.9836 33.525 56.4641 36.6361 51.5321 38.3529C51.0316 38.5262 50.4384 38.4496 49.8895 38.4859C49.8087 38.2521 49.728 38.0184 49.6513 37.7847C50.7209 37.297 51.7904 36.8094 52.8559 36.3218C52.8236 36.2291 52.7914 36.1404 52.7591 36.0477C51.7541 36.3419 50.6886 36.5112 49.7724 36.9746C49.3002 37.2124 49.0984 37.9781 48.7755 38.506C49.3002 38.7881 49.9782 39.441 50.3253 39.2959C52.7066 38.3005 55.2049 37.4099 57.2956 35.9591C59.7575 34.2544 61.2468 31.6551 62.1469 28.7253C62.4334 27.7984 63.1841 26.7345 64.0115 26.3315C64.742 25.9728 65.9851 26.2348 66.7883 26.6418C67.1838 26.8433 67.3453 28.0483 67.1959 28.7011C65.4524 36.3137 60.7665 41.3512 53.4613 43.9989C52.86 44.2165 52.1496 44.1359 51.4918 44.1923C51.4352 43.9827 51.3828 43.7732 51.3263 43.5636C51.9882 43.2694 52.6339 42.9349 53.312 42.6891C59.2207 40.5532 63.3133 36.5233 65.6421 30.7483C66.0618 29.7046 67.1233 28.0886 65.3717 27.4478C63.6846 26.8312 63.4707 28.5923 63.0146 29.7409C60.8513 35.1853 57.1341 38.9453 51.3263 40.4485C49.0015 41.0489 47.4759 44.6195 48.7715 46.6586C49.0661 47.118 50.2002 47.3075 50.8904 47.2107C59.8342 45.9856 68.0153 38.369 69.9929 29.5192C72.8706 16.6515 64.9196 4.25136 52.0245 1.62383C51.072 1.43039 49.2235 1.63592 49.1024 2.04697C48.5333 3.95717 50.3375 3.87254 51.4756 4.14658C60.0481 6.19783 65.1174 11.735 67.4502 20.0246C67.8821 21.56 67.4139 22.7005 65.8156 23.1559C63.9348 23.6919 62.8451 23.1116 62.4415 21.3303C61.0289 15.0637 57.2713 11.0418 51.076 9.27269C50.5917 9.13567 50.1679 8.78103 49.8612 8.09997C50.1558 8.05967 50.4787 7.92668 50.7451 7.99922C56.9686 9.68375 61.3074 13.3792 63.1962 19.674C63.3133 20.0609 63.3173 20.5606 63.5716 20.8064C64.0882 21.3021 64.738 21.6608 65.3313 22.0759C65.6138 21.4311 66.2313 20.7178 66.1264 20.1455C65.1577 14.9993 62.3164 11.0015 58.018 8.11609C46.4346 0.342297 31.2672 6.70158 28.4016 20.4679C28.3129 20.8991 28.0424 21.2941 27.8527 21.7051C27.6752 21.6648 27.4976 21.6245 27.32 21.5842C27.32 20.8467 27.1787 20.081 27.3402 19.3798C29.2532 11.1023 36.4132 4.74301 44.8404 3.77582C45.1754 3.73552 45.6113 3.80806 45.8211 3.62672C46.3256 3.18745 46.7212 2.63132 47.1611 2.11951C46.6001 1.77293 45.9866 1.07172 45.4861 1.14426C43.4358 1.43845 41.3411 1.74875 39.4079 2.454C30.7748 5.58528 24.5997 14.153 24.3374 22.769C23.9782 34.7461 31.0412 42.2176 38.6895 45.6995C40.0133 46.3 41.4905 46.6506 42.9313 46.8762C43.6376 46.9851 44.4327 46.5498 45.1875 46.3604C44.6184 45.7559 44.1341 44.7605 43.4601 44.6074C39.3352 43.6644 35.8521 41.6574 32.8453 38.7438C29.5963 35.5964 27.7115 31.7397 26.9325 27.3269C26.8357 26.7708 27.0496 26.1542 27.1182 25.5698C27.3321 25.5497 27.546 25.5295 27.7599 25.5134C27.9577 26.2227 28.2281 26.9199 28.3371 27.6412C29.451 35.1329 36.1831 42.0806 43.5408 43.2251C44.0856 43.3097 44.7032 42.9067 45.2884 42.7334C44.9857 42.0645 44.8162 41.2706 44.344 40.7628C43.9847 40.3759 43.2421 40.3397 42.669 40.1623C35.1741 37.8169 30.4762 31.3005 30.7668 23.6435C31.0574 15.9544 36.2073 9.80464 43.8435 8.05967C44.4368 7.92265 45.0664 7.95489 45.6799 7.90653C45.7323 8.09191 45.7848 8.28132 45.8332 8.4667C45.1673 8.77297 44.5296 9.19612 43.8314 9.36538C36.7401 11.1063 31.9291 16.8853 31.7959 23.8853C31.6628 30.9055 36.2154 36.9464 43.1695 38.9654C43.7466 39.1347 44.4529 39.1025 44.8969 39.4369C45.5386 39.9165 46.3741 40.5935 46.4588 41.2665C46.6727 43.0518 46.5961 44.8854 46.5113 46.6949C46.4225 48.5084 45.2157 48.6454 43.6901 48.1739C45.361 53.2557 43.9444 58.1198 43.2381 63.0162C42.9233 65.2045 42.8062 67.417 42.5116 69.6093C42.2815 71.326 42.0152 73.0549 41.5873 74.7313C40.9537 77.1936 40.0698 79.5874 39.4563 82.0538C38.6572 85.2415 37.0105 87.8166 34.4597 89.8719C32.1592 91.7257 29.8708 93.5996 27.6348 95.53C21.1529 101.12 10.5786 99.8259 6.17121 92.5881C3.04732 87.4136 0.795221 81.8241 0.0485561 75.7227C-0.181497 73.8246 0.39969 72.4181 1.92531 71.3865C3.39846 70.3911 4.52451 69.2707 5.21063 67.4935C5.63845 66.3893 6.94613 65.4866 8.05603 64.8136C9.37178 64.0157 10.4575 63.2379 10.8893 61.642C11.3293 60.0179 12.7499 59.4658 14.2715 59.1676C18.8282 58.273 19.6394 57.4952 19.5345 52.9252C19.3973 46.8359 18.9856 40.7547 18.7152 34.6735C18.6587 33.4001 18.6869 32.1226 18.699 30.8451C18.7354 27.0972 19.6596 26.3275 23.3041 26.9965ZM35.4243 77.2339L34.5566 76.8188C32.9624 75.759 31.909 76.4562 31.3116 77.9714C30.5528 79.8977 31.0089 81.6588 32.6233 83.1298C32.3166 83.3877 32.0099 83.6416 31.7031 83.8995C31.3964 83.2466 31.1098 82.5817 30.7829 81.9369C28.6599 77.7377 25.8549 74.0261 22.9772 70.3064C20.6888 67.3525 18.4771 65.3214 14.4531 64.7088C18.7313 66.1757 21.7503 69.0289 23.8208 72.934C23.8813 73.0468 24.0185 73.1153 24.0992 73.2241C25.4029 74.9973 26.7671 76.7342 27.9617 78.5759C28.2806 79.0635 28.0828 79.8816 28.1232 80.5506C27.324 80.5022 26.5209 80.4498 25.7217 80.4015C25.193 81.9288 24.6643 83.4602 24.1679 84.8989C24.0548 84.8062 23.5624 84.4032 23.066 84.0002C22.9934 83.9479 22.9248 83.8874 22.8602 83.8229C18.7313 78.9346 14.2433 74.5218 7.95513 72.4907C12.6531 75.0537 16.9151 78.1608 20.0955 81.9409C19.26 82.755 18.0573 83.3957 17.9039 84.234C17.7344 85.1448 18.5376 86.2328 18.8443 87.0549C13.6863 84.8546 8.37488 82.5898 3.0675 80.3209C3.02311 80.3813 2.97871 80.4458 2.93432 80.5063C4.14512 81.3767 5.35997 82.2472 6.6515 83.1741C5.63038 83.3957 4.71017 83.5972 3.78592 83.7987C4.9039 84.0123 5.93308 83.7383 6.97438 83.6859C8.06814 83.6335 9.28702 83.5126 10.2436 83.9116C12.8307 84.9916 15.2967 86.3457 17.8273 87.5627C20.3659 88.7838 22.6099 88.3042 24.5069 86.116C26.093 87.196 28.0263 87.4136 29.2775 86.0837C30.0968 85.2133 29.9273 83.424 30.1533 82.2875C31.0331 84.1816 33.0592 84.0083 34.9723 83.5408C35.8078 83.3353 36.8934 82.485 37.0791 81.7354C37.2769 80.9415 36.5383 79.9179 36.2073 78.995C36.175 78.7814 36.1427 78.5719 36.1064 78.3583C35.8844 70.246 27.0859 58.1037 20.9754 57.3138C22.731 58.4382 24.7894 59.4054 26.3796 60.8804C27.9779 62.3594 29.2169 64.2696 30.4156 66.1193C32.6435 69.5569 34.8996 73.0105 35.4203 77.2259L35.4243 77.2339ZM58.7283 78.4953C58.6073 78.717 58.4822 78.9426 58.3611 79.1643C56.8799 81.5581 57.679 83.4481 60.4073 83.5932C61.8684 83.6698 63.3577 83.2466 64.7985 83.0532C64.6896 86.7406 66.4816 87.8368 70.5135 86.1966C71.9625 88.006 73.924 88.7717 76.0146 87.9738C78.513 87.0187 80.987 85.9427 83.3158 84.637C85.0513 83.6617 86.6173 83.0572 88.5869 83.8552C89.3214 84.1534 90.2376 84.0123 91.0731 84.0687C91.0852 83.9761 91.0973 83.8793 91.1094 83.7867C90.173 83.5852 89.2367 83.3796 88.2559 83.166C89.5394 82.2271 90.7381 81.3566 91.9327 80.4821C91.8843 80.4337 91.8359 80.3854 91.7915 80.337C86.476 82.5978 81.1565 84.8586 75.7806 87.1436C77.9237 84.3508 77.5645 83.0774 73.8069 82.0981C78.3434 78.6364 82.5369 75.4325 86.4155 72.4705C80.6399 74.4895 76.1963 78.9265 72.0472 83.7464C71.9423 83.8431 71.8374 83.9358 71.7324 84.0325C71.2441 84.4395 70.7598 84.8465 70.6952 84.8989C70.1907 83.436 69.67 81.9167 69.1453 80.3975C68.326 80.4257 67.5027 80.4539 66.6834 80.4821C66.7964 79.7527 66.6834 78.8741 67.0627 78.322C69.3835 74.9087 71.7728 71.5436 74.2428 68.235C74.7231 67.5902 75.6312 67.2396 76.3819 66.8246C77.4757 66.216 78.6058 65.672 79.7197 65.1038C79.6027 64.8982 79.4856 64.6927 79.3686 64.4872C77.3143 65.7445 74.7191 66.5747 73.3186 68.3479C69.9848 72.5672 67.2323 77.238 64.2133 81.7072C63.7895 82.3359 63.1761 82.8316 62.6473 83.3917C62.6756 82.6744 63.055 82.3117 63.3133 81.8724C64.4393 79.9743 63.9631 77.7095 62.2801 76.7665C61.3477 76.9196 60.4154 77.0727 59.479 77.2259C59.4064 77.1292 59.245 77.0042 59.2692 76.9398C61.6545 69.9518 64.8349 63.4797 71.0947 59.0508C72.0311 58.3898 73.0845 57.8861 74.481 57.0801C67.1556 58.954 59.14 70.1291 58.7364 78.4993L58.7283 78.4953ZM26.5935 36.4749C27.7962 46.8077 28.7931 56.8383 33.2287 66.3087C34.7019 63.661 35.1014 60.7635 35.384 57.8256C35.7714 53.836 35.7997 49.6569 40.3604 47.5009C34.5364 45.5262 30.0887 41.9194 26.5895 36.4789L26.5935 36.4749ZM68.1969 36.4064C65.1739 41.9315 60.4033 45.2965 55.0798 47.3719C56.0525 48.4963 57.4409 49.4796 57.905 50.7893C58.7162 53.0784 58.9867 55.5648 59.4387 57.9788C59.9674 60.7957 59.9795 63.7577 61.6625 66.1838C66.1708 56.7376 67.0506 46.5579 68.1969 36.4064ZM44.239 33.7869L43.7426 34.4922C42.9434 34.1375 42.0596 33.9078 41.3654 33.4122C37.6401 30.7564 35.945 27.1375 36.6997 22.5957C37.4827 17.8928 40.3241 14.9469 44.9413 13.7459C45.9301 13.488 46.9875 13.1697 46.5517 12.005C46.3862 11.5617 45.0059 11.2232 44.3036 11.3804C37.3818 12.9319 32.9301 19.5209 34.1611 26.5209C34.8714 30.5589 36.9378 33.7748 40.7357 35.6327C34.3507 29.4749 32.8493 23.7967 36.1912 18.0338C38.5361 13.9998 42.8829 11.3562 45.7404 12.2428C45.7122 12.3677 45.7202 12.5531 45.6436 12.6014C45.361 12.7707 45.0664 12.9561 44.7516 13.0286C41.4864 13.7782 39.194 15.7327 37.3657 18.4932C33.5637 24.2359 36.8087 33.2872 43.4601 35.1329C43.896 35.2538 44.4327 35.0241 44.9211 34.9556C44.8404 34.4519 44.9332 33.791 44.6467 33.4807C44.0695 32.86 43.3107 32.3845 42.5802 31.9251C38.5159 29.3661 37.184 24.0223 39.6057 19.9078C42.0475 15.7569 47.3468 14.2376 51.5281 16.5508C54.7569 18.3361 56.444 21.149 56.2341 24.8203C56.0282 28.4472 54.3533 31.1796 50.7168 32.4691C49.6715 32.8399 48.3275 33.3154 48.9491 34.8267C49.5746 36.346 50.7895 35.4674 51.7097 35.1088C56.1534 33.3598 59.023 29.0437 59.0109 24.2601C58.9988 19.8795 55.8345 15.2411 51.6895 13.5243C51.0639 13.2664 50.4343 13.0165 49.8047 12.7626C49.8854 12.545 49.9661 12.3234 50.0469 12.1058C51.9599 11.9446 53.5945 12.8916 54.987 14.1006C60.8231 19.1662 61.3962 25.2273 58.014 31.9533C63.1155 25.3724 60.2984 15.0517 52.6178 12.0211C51.5927 11.6181 49.3769 11.6222 49.2477 11.9849C48.6302 13.7177 50.3697 13.8548 51.4756 14.3424C55.8063 16.2606 57.9776 19.7063 58.1108 24.3044C58.24 28.8099 56.0767 32.1347 52.0084 34.1375C51.407 34.4317 50.6724 34.4599 50.0025 34.609C49.9016 34.3834 49.7966 34.1577 49.6957 33.932C53.0698 32.9527 55.443 30.9378 56.5529 27.6815C57.6911 24.3447 57.3521 21.2135 55.104 18.3804C51.516 13.8588 45.0462 13.2624 40.7963 17.0505C38.7298 18.8922 37.5715 21.1853 37.5271 23.9417C37.4545 28.6729 40.0012 31.7921 44.243 33.791L44.239 33.7869ZM42.0838 36.1122C42.0555 36.2049 42.0273 36.2936 41.999 36.3863C42.7336 36.6563 43.452 36.9988 44.2067 37.1882C46.1319 37.6718 46.8907 37.0109 47.0804 34.9959C47.262 33.0938 46.5961 31.913 44.8525 30.97C41.4703 29.1485 39.9447 25.5537 40.8931 22.3459C41.7367 19.4927 44.5014 17.8283 48.2226 17.925C51.5886 18.0137 54.2363 21.3948 53.8649 25.1306C53.5703 28.0845 50.3375 30.2083 47.1046 29.5756C44.2229 29.0114 42.4067 26.3154 42.9677 23.4259C43.4197 21.0885 45.8413 19.3718 48.2871 20.0972C49.4495 20.4437 50.8581 21.6165 51.1729 22.6965C51.52 23.8853 51.1285 25.7552 50.3173 26.6579C49.6836 27.3632 47.7544 27.4559 46.6889 27.0569C45.8938 26.7587 45.1592 25.2354 45.1633 24.2561C45.1633 23.5549 46.3297 22.5595 47.1692 22.2814C47.6414 22.1242 48.6867 23.035 49.1186 23.6959C49.3002 23.97 48.6786 24.9976 48.1862 25.3764C47.9764 25.5416 47.1651 24.9291 46.3983 24.5664C47.1409 24.115 47.4477 23.9297 47.7504 23.7483C47.601 23.579 47.4477 23.4098 47.2983 23.2446C46.923 23.6838 46.1481 24.2762 46.249 24.5382C46.4709 25.1225 47.1248 25.9285 47.6091 25.9366C48.3517 25.9446 49.4011 25.5376 49.7563 24.9613C50.1155 24.381 50.0872 23.1237 49.6755 22.6239C49.1266 21.963 48.0006 21.3545 47.1853 21.4311C45.6516 21.5721 44.4045 22.5272 44.1906 24.2279C43.9525 26.0897 44.9615 27.335 46.5961 27.9878C48.2912 28.6649 49.9298 28.3304 51.2738 27.0811C52.6743 25.7794 52.747 24.1029 52.2102 22.4224C51.6371 20.6211 50.3455 19.4846 48.4446 19.1985C45.4337 18.7431 42.4954 20.8467 42.0475 23.7241C41.6237 26.4443 44.0291 29.9222 46.6889 30.43C50.1881 31.103 52.9568 29.7973 54.2241 26.8796C55.5157 23.9055 54.5712 20.3833 51.9559 18.4046C48.5374 15.8173 43.6498 16.5548 41.0667 20.0488C38.5926 23.3937 39.5814 28.2619 43.2663 30.833C44.0332 31.369 45.1713 31.7115 45.5104 32.4369C45.9987 33.4847 46.0633 34.8186 45.9341 35.9873C45.9099 36.2291 44.2552 36.346 43.343 36.4185C42.9313 36.4507 42.5035 36.2251 42.0797 36.1163L42.0838 36.1122Z" fill="#9F06FF"/>
<path id="Vector_2" d="M44.2389 33.7831C39.993 31.7803 37.4463 28.6651 37.523 23.9339C37.5674 21.1815 38.7257 18.8884 40.7921 17.0427C45.0421 13.2505 51.5118 13.851 55.0999 18.3726C57.3479 21.2056 57.6869 24.3369 56.5488 27.6737C55.4389 30.9299 53.0657 32.9449 49.6916 33.9242C49.7925 34.1499 49.8974 34.3755 49.9983 34.6012C50.6723 34.4521 51.4069 34.4279 52.0042 34.1297C56.0725 32.1268 58.2358 28.8021 58.1067 24.2966C57.9775 19.7025 55.8021 16.2528 51.4715 14.3346C50.3696 13.8469 48.6261 13.7139 49.2436 11.977C49.3727 11.6143 51.5885 11.6063 52.6137 12.0133C60.2942 15.0438 63.1154 25.3646 58.0098 31.9455C61.392 25.2195 60.8189 19.1584 54.9828 14.0928C53.5904 12.8838 51.9558 11.9408 50.0427 12.0979C49.962 12.3155 49.8813 12.5372 49.8006 12.7548C50.4302 13.0087 51.0598 13.2586 51.6854 13.5165C55.8344 15.2332 58.9946 19.8717 59.0067 24.2523C59.0188 29.0399 56.1452 33.3519 51.7056 35.1009C50.7894 35.4636 49.5705 36.3422 48.9449 34.8188C48.3234 33.3076 49.6714 32.8321 50.7127 32.4613C54.3451 31.1717 56.0241 28.4394 56.2299 24.8125C56.4358 21.1371 54.7487 18.3282 51.5239 16.543C47.3426 14.2257 42.0433 15.7491 39.6015 19.8999C37.1799 24.0145 38.5118 29.3582 42.5761 31.9173C43.3066 32.3767 44.0654 32.8482 44.6425 33.4728C44.9291 33.7831 44.8403 34.4441 44.917 34.9478C44.4286 35.0163 43.8918 35.246 43.4559 35.1251C36.8045 33.2794 33.5596 24.2281 37.3615 18.4854C39.1898 15.7249 41.4823 13.7663 44.7474 13.0208C45.0623 12.9483 45.3569 12.7669 45.6394 12.5936C45.7161 12.5453 45.708 12.3599 45.7363 12.2349C42.8788 11.3524 38.532 13.992 36.187 18.026C32.8412 23.7848 34.3426 29.4671 40.7316 35.6248C36.9337 33.767 34.8673 30.5511 34.1569 26.5131C32.9259 19.5131 37.3777 12.9241 44.2994 11.3725C45.0017 11.2154 46.382 11.5539 46.5475 11.9972C46.9834 13.1578 45.926 13.4802 44.9371 13.7381C40.3199 14.9391 37.4786 17.885 36.6956 22.5879C35.9408 27.1297 37.636 30.7526 41.3612 33.4043C42.0554 33.9 42.9393 34.1338 43.7384 34.4844L44.2349 33.7791L44.2389 33.7831Z" fill="#FCF3FF"/>
<path id="Vector_3" d="M42.0837 36.1084C42.5035 36.2172 42.9353 36.4429 43.347 36.4107C44.2591 36.3422 45.9139 36.2213 45.9381 35.9795C46.0633 34.8068 45.9987 33.4769 45.5144 32.4291C45.1794 31.7037 44.0372 31.3611 43.2703 30.8252C39.5854 28.25 38.5966 23.3859 41.0707 20.041C43.6537 16.547 48.5414 15.8095 51.9599 18.3968C54.5752 20.3755 55.5197 23.9017 54.2281 26.8718C52.9608 29.7895 50.1961 31.0952 46.6929 30.4222C44.0331 29.9104 41.6277 26.4325 42.0514 23.7163C42.4994 20.843 45.4377 18.7353 48.4485 19.1907C50.3495 19.4768 51.637 20.6132 52.2142 22.4146C52.7509 24.0951 52.6743 25.7716 51.2778 27.0733C49.9338 28.3226 48.2952 28.657 46.6 27.98C44.9655 27.3272 43.9605 26.0819 44.1946 24.2201C44.4085 22.5234 45.6596 21.5643 47.1893 21.4233C48.0046 21.3467 49.1306 21.9552 49.6795 22.6161C50.0952 23.1158 50.1195 24.3732 49.7603 24.9535C49.4051 25.5298 48.3517 25.9368 47.6131 25.9288C47.1288 25.9247 46.4749 25.1147 46.2529 24.5304C46.152 24.2724 46.927 23.68 47.3023 23.2367C47.4516 23.406 47.605 23.5753 47.7543 23.7405C47.4476 23.9259 47.1449 24.1112 46.4023 24.5586C47.1691 24.9253 47.9804 25.5338 48.1902 25.3686C48.6826 24.9898 49.3042 23.9621 49.1226 23.6881C48.6867 23.0272 47.6454 22.1164 47.1732 22.2736C46.3337 22.5517 45.1673 23.5511 45.1673 24.2483C45.1673 25.2235 45.8978 26.7509 46.6929 27.0491C47.7584 27.4521 49.6876 27.3594 50.3213 26.6501C51.1365 25.7474 51.524 23.8735 51.1769 22.6887C50.8621 21.6046 49.4535 20.4319 48.2911 20.0893C45.8413 19.3599 43.4237 21.0807 42.9717 23.4181C42.4147 26.3076 44.2269 29.0036 47.1086 29.5678C50.3414 30.2005 53.5743 28.0767 53.8689 25.1228C54.2402 21.387 51.5966 18.0059 48.2266 17.9172C44.5053 17.8205 41.7407 19.4849 40.8971 22.3381C39.9487 25.5459 41.4743 29.1406 44.8565 30.9622C46.6 31.9012 47.262 33.086 47.0844 34.9881C46.8947 36.9991 46.1359 37.664 44.2107 37.1804C43.456 36.991 42.7376 36.6525 42.003 36.3784C42.0313 36.2858 42.0595 36.1971 42.0878 36.1044L42.0837 36.1084Z" fill="#FCF3FF"/>
<path id="Vector_4" d="M28.1229 80.5548C28.0826 79.8859 28.2763 79.0678 27.9615 78.5802C26.7628 76.7385 25.4026 75.0016 24.099 73.2284C24.0223 73.1196 23.8811 73.0511 23.8205 72.9382C21.7541 69.0332 18.7311 66.18 14.4529 64.7131C18.4728 65.3256 20.6886 67.3567 22.977 70.3107C25.8547 74.0303 28.6557 77.7419 30.7827 81.9412C31.1096 82.5859 31.3961 83.2469 31.7029 83.9037C32.0096 83.6458 32.3164 83.3919 32.6231 83.134C31.0127 81.6671 30.5526 79.906 31.3114 77.9757C31.9087 76.4604 32.9621 75.7632 34.5564 76.8231C33.3294 76.6821 32.1832 76.8231 31.8441 78.2416C31.4728 79.7932 31.38 81.4817 33.0146 82.3321C33.8137 82.7471 35.2223 82.8439 35.9407 82.4046C37.2444 81.6026 36.7358 80.2042 36.2071 79.0073C36.538 79.9302 37.2766 80.9538 37.0789 81.7477C36.8932 82.4973 35.8075 83.3476 34.9721 83.5531C33.063 84.0206 31.0369 84.1939 30.153 82.2998C29.927 83.4363 30.0965 85.2296 29.2772 86.096C28.0261 87.4259 26.0928 87.2083 24.5066 86.1283C22.6097 88.3125 20.3657 88.7961 17.827 87.575C15.3005 86.358 12.8304 85.0039 10.2433 83.9239C9.28679 83.5249 8.06387 83.6458 6.97414 83.6982C5.93285 83.7506 4.90366 84.0246 3.78568 83.8111C4.7059 83.6096 5.63015 83.4081 6.65126 83.1864C5.3557 82.2555 4.14489 81.389 2.93408 80.5186C2.97848 80.4581 3.02287 80.3936 3.06727 80.3332C8.37868 82.598 13.6861 84.8669 18.8441 87.0673C18.5374 86.2452 17.7342 85.1571 17.9037 84.2463C18.0611 83.4121 19.2638 82.7713 20.0953 81.9532C16.9149 78.1731 12.6528 75.066 7.9549 72.503C14.243 74.5341 18.7311 78.9469 22.8599 83.8352C22.0406 83.5652 21.2415 83.1784 20.402 83.0575C19.284 82.9003 18.1459 83.4363 18.4647 84.617C18.7109 85.5238 19.724 86.4305 20.628 86.8779C21.298 87.2083 22.7792 87.1116 23.094 86.6522C23.5017 86.0557 23.1142 84.9153 23.0698 84.0085C23.5622 84.4115 24.0586 84.8145 24.1717 84.9072C24.6681 83.4645 25.1968 81.9371 25.7255 80.4098C25.6852 81.8807 25.3986 83.404 25.6731 84.8145C25.9314 86.1404 27.2592 86.354 28.4458 85.9792C29.7535 85.5681 29.8947 84.5405 29.4225 83.4C29.023 82.4368 28.5629 81.5059 28.127 80.5589L28.1229 80.5548Z" fill="#FCF3FF"/>
<path id="Vector_5" d="M62.2678 76.7667C63.9509 77.7097 64.4231 79.9705 63.3011 81.8727C63.0427 82.3079 62.6634 82.6746 62.6351 83.392C63.1598 82.8358 63.7773 82.3361 64.2011 81.7074C67.2241 77.2422 69.9766 72.5675 73.3064 68.3481C74.7069 66.5749 77.302 65.7448 79.3564 64.4874C79.4734 64.693 79.5905 64.8985 79.7075 65.104C78.5936 65.6763 77.4635 66.2203 76.3697 66.8248C75.619 67.2399 74.7109 67.5905 74.2306 68.2353C71.7606 71.5399 69.3712 74.9089 67.0505 78.3223C66.6752 78.8744 66.7882 79.7529 66.6711 80.4823C66.2595 81.4495 65.8276 82.4127 65.4402 83.3879C64.9841 84.5365 65.1173 85.5561 66.4249 85.9671C67.6115 86.3379 68.9354 86.1364 69.1937 84.8025C69.4641 83.392 69.1775 81.8727 69.1331 80.4017C69.6578 81.921 70.1784 83.4403 70.683 84.9032C70.7435 84.8508 71.2318 84.4438 71.7202 84.0368C70.8928 86.1928 71.3126 87.3816 72.9996 87.168C74.0813 87.031 75.1629 86.2855 76.0589 85.5802C76.398 85.3143 76.4747 84.2383 76.2083 83.8151C75.9338 83.3718 75.0984 83.0454 74.5252 83.0736C73.6858 83.1139 72.8624 83.5129 72.035 83.7547C76.1881 78.9348 80.6277 74.4938 86.4033 72.4788C82.5247 75.4409 78.3312 78.6406 73.7947 82.1064C77.5523 83.0857 77.9115 84.3592 75.7683 87.1519C81.1443 84.8669 86.4638 82.6061 91.7793 80.3453C91.8277 80.3937 91.8761 80.442 91.9205 80.4904C90.7259 81.3649 89.5312 82.2354 88.2437 83.1743C89.2245 83.3879 90.1608 83.5894 91.0972 83.795C91.0851 83.8876 91.073 83.9844 91.0608 84.0771C90.2254 84.0206 89.3092 84.1617 88.5747 83.8635C86.6051 83.0615 85.0391 83.67 83.3036 84.6453C80.9789 85.951 78.5007 87.027 76.0024 87.9821C73.9118 88.78 71.9503 88.0143 70.5013 86.2049C66.4693 87.8451 64.6773 86.753 64.7863 83.0615C63.3455 83.2549 61.8562 83.6781 60.3951 83.6015C57.6668 83.4564 56.8676 81.5664 58.3489 79.1726C58.3367 79.3741 58.3408 79.5756 58.3085 79.7731C58.0623 81.2682 57.9896 82.6827 60.044 82.8721C61.7593 83.0333 63.18 81.8042 63.1235 79.9584C63.0912 78.8865 62.5665 77.8306 62.2598 76.7667H62.2678Z" fill="#FCF3FF"/>
<path id="Vector_6" d="M62.2678 76.7667C62.5705 77.8306 63.0952 78.8865 63.1315 79.9585C63.188 81.8042 61.7673 83.0333 60.052 82.8721C58.0017 82.6787 58.0703 81.2682 58.3165 79.7731C58.3488 79.5756 58.3448 79.3701 58.3569 79.1726C58.478 78.951 58.6031 78.7253 58.7242 78.5036C58.9704 78.0805 59.2206 77.6573 59.4668 77.2302C60.3991 77.077 61.3315 76.9239 62.2678 76.7708V76.7667Z" fill="#9F06FF"/>
<path id="Vector_7" d="M36.2031 79.0033C36.7318 80.2002 37.2404 81.5986 35.9367 82.4006C35.2224 82.8398 33.8138 82.7472 33.0106 82.328C31.376 81.4777 31.4688 79.7892 31.8402 78.2376C32.1792 76.8231 33.3254 76.6821 34.5524 76.8191C34.843 76.9561 35.1295 77.0972 35.4201 77.2342C35.6502 77.613 35.8762 77.9878 36.1062 78.3666C36.1385 78.5802 36.1708 78.7897 36.2071 79.0033H36.2031Z" fill="#9F06FF"/>
<path id="Vector_8" d="M28.123 80.5549C28.5589 81.5019 29.023 82.4369 29.4186 83.396C29.8908 84.5365 29.7455 85.5641 28.4419 85.9752C27.2553 86.3499 25.9274 86.1364 25.6691 84.8105C25.3947 83.4 25.6812 81.8767 25.7216 80.4058C26.5207 80.4541 27.3239 80.5065 28.123 80.5549Z" fill="#9F06FF"/>
<path id="Vector_9" d="M69.1331 80.4017C69.1775 81.8727 69.464 83.392 69.1936 84.8024C68.9394 86.1404 67.6115 86.3379 66.4249 85.9671C65.1132 85.5561 64.98 84.5365 65.4401 83.3879C65.8276 82.4087 66.2594 81.4495 66.6711 80.4823C67.4904 80.4541 68.3138 80.4259 69.1331 80.3977V80.4017Z" fill="#9F06FF"/>
<path id="Vector_10" d="M36.1064 78.3666C35.8764 77.9878 35.6503 77.613 35.4203 77.2342C34.8996 73.0188 32.6435 69.5652 30.4156 66.1276C29.2169 64.2779 27.9738 62.3677 26.3796 60.8887C24.7894 59.4177 22.731 58.4505 20.9753 57.3221C27.0859 58.108 35.8885 70.2543 36.1064 78.3666Z" fill="#FCF3FF"/>
<path id="Vector_11" d="M59.4669 77.2261C59.2207 77.6492 58.9704 78.0724 58.7242 78.4996C59.1278 70.1293 67.1434 58.9543 74.4688 57.0803C73.0683 57.8863 72.0189 58.3901 71.0826 59.051C64.8227 63.4799 61.6423 69.952 59.257 76.94C59.2368 77.0044 59.3942 77.1294 59.4669 77.2261Z" fill="#FCF3FF"/>
<path id="Vector_12" d="M23.0658 84.0045C23.1102 84.9113 23.4977 86.0518 23.09 86.6482C22.7752 87.1076 21.294 87.2043 20.624 86.8739C19.724 86.4266 18.7069 85.5158 18.4607 84.6131C18.1419 83.4323 19.28 82.8963 20.398 83.0535C21.2375 83.1703 22.0407 83.5612 22.8559 83.8313C22.9205 83.8957 22.9851 83.9562 23.0618 84.0086L23.0658 84.0045Z" fill="#9F06FF"/>
<path id="Vector_13" d="M72.0309 83.7547C72.8583 83.5088 73.6817 83.1099 74.5212 83.0736C75.0943 83.0454 75.9297 83.3718 76.2042 83.8151C76.4665 84.2383 76.3939 85.3143 76.0549 85.5802C75.1589 86.2855 74.0772 87.035 72.9955 87.168C71.3085 87.3776 70.8887 86.1928 71.7161 84.0368C71.8211 83.94 71.926 83.8474 72.0309 83.7506V83.7547Z" fill="#9F06FF"/>
</g>
<defs>
<clipPath id="clip0_1_2182">
<rect width="95" height="99" fill="white"/>
</clipPath>
</defs>
</svg>
