<svg width="74" height="85" viewBox="0 0 74 85" fill="none" xmlns="http://www.w3.org/2000/svg">
<g id="Layer_1" clip-path="url(#clip0_1_2247)">
<path id="Vector" d="M35.7559 78.9434C33.0413 79.2997 31.1229 79.1599 29.2001 77.1034C26.766 74.5058 23.2189 74.9613 20.0202 75.7775C15.4326 76.9456 10.9127 78.3526 6.35222 79.6289C5.71429 79.8093 5.03111 79.8228 4.18959 79.9356C4.11267 79.2365 3.99957 78.6728 3.99504 78.1046C3.98599 67.6555 4.00409 57.2063 3.9679 46.7572C3.9679 45.5035 4.16697 44.6151 5.53784 44.1867C13.2745 41.7785 21.1061 40.7322 29.1549 42.3602C29.3766 42.4053 29.5982 42.4594 29.8154 42.5135C35.4527 43.9522 35.7513 44.3355 35.7559 49.9997C35.7559 58.645 35.7559 67.2902 35.7559 75.9354C35.7559 76.896 35.7559 77.8611 35.7559 78.9434Z" fill="#545454"/>
<path id="Vector_2" d="M69.7426 80.2377C66.1186 79.2681 62.6032 78.2895 59.0652 77.3965C56.0927 76.6479 53.1248 75.7865 50.098 75.3716C47.5146 75.0199 45.4515 76.3007 43.4698 78.1046C42.3749 79.1012 40.3073 79.0426 38.4071 79.5342C38.3257 78.2083 38.2397 77.4867 38.2397 76.7607C38.2307 66.9158 38.2759 57.0665 38.199 47.2217C38.1854 45.5576 38.7102 44.6376 40.2123 43.9341C45.3882 41.5169 50.8716 41.2057 56.3732 41.7874C60.3185 42.2023 64.2049 43.2441 68.1003 44.0739C69.254 44.3219 70.0503 44.8992 70.0412 46.3874C69.9824 57.2108 70.0096 68.0343 70.0005 78.8577C70.0005 79.1463 69.8965 79.4304 69.7381 80.2377H69.7426Z" fill="#545454"/>
<path id="Vector_3" d="M36.9864 29.3586C32.358 30.9956 29.7746 28.619 27.2546 24.948C22.9157 18.6208 23.0243 9.6013 28.1051 4.08586C33.1588 -1.40252 40.9995 -1.35292 46.0034 4.1986C51.0299 9.77267 51.2788 18.9816 46.5735 25.0112C46.5282 25.0698 46.4649 25.1194 46.4332 25.187C44.5194 29.2278 41.4338 30.8017 36.9864 29.3586ZM47.3517 15.0897C47.5281 9.42993 42.8545 3.46351 37.9818 2.78705C37.2714 2.68783 36.4661 3.26057 35.7015 3.52214C36.3032 4.03174 36.828 4.83448 37.5112 5.00134C39.9272 5.59212 41.9134 6.81877 42.9992 8.97895C43.9267 10.8189 44.3113 12.9205 45.0397 14.8687C45.2388 15.4054 45.8043 15.8067 46.2025 16.2712C46.6685 15.7887 47.1345 15.3061 47.3471 15.0807L47.3517 15.0897Z" fill="#545454"/>
<path id="Vector_4" d="M2.13549 46.8339V83.2592C3.7733 82.9571 5.30705 82.8038 6.76388 82.3753C11.0891 81.1036 15.3284 79.4665 19.7125 78.4699C23.7482 77.5544 27.6844 78.0369 30.6026 81.6177C30.951 82.0416 31.7518 82.2581 32.358 82.2851C34.3171 82.3663 36.2806 82.2581 38.2397 82.3302C40.805 82.4294 42.9902 82.2761 45.0895 80.1295C47.4965 77.6671 51.0616 77.6897 54.2875 78.4428C57.7169 79.2456 61.0287 80.5489 64.4129 81.5455C66.7701 82.24 69.168 82.7857 71.8193 83.4712V46.8429C72.0455 46.7437 72.2717 46.649 72.4979 46.5498C72.9956 47.7178 73.914 48.8768 73.9276 50.0494C74.0362 60.8728 73.9819 71.6962 74 82.5242C74 84.2559 73.1268 85.221 71.5207 84.9279C68.2858 84.3371 65.0825 83.5253 61.8929 82.7C58.8435 81.9063 55.8755 80.7112 52.7854 80.1836C49.5369 79.6289 46.483 80.2873 44.5285 83.4802C44.2389 83.9583 43.3024 84.2559 42.6554 84.2649C38.8867 84.3371 35.1134 84.3326 31.3446 84.2604C30.6976 84.2469 29.7565 83.9537 29.4715 83.4802C27.526 80.2783 24.4766 79.6604 21.2191 80.1746C18.4186 80.6165 15.7221 81.6673 12.9622 82.3979C9.62778 83.2818 6.31597 84.3281 2.92725 84.8963C0.59269 85.2886 0.0180996 84.4994 0.0135753 82.0732C2.25753e-06 71.5474 -0.0361924 61.0261 0.0678673 50.5003C0.0814403 49.1835 0.850577 47.8711 1.26682 46.5588C1.55637 46.649 1.84593 46.7347 2.13549 46.8249V46.8339Z" fill="#545454"/>
<path id="Vector_5" d="M43.2842 32.5334C42.9721 34.9957 41.0945 33.715 40.0177 33.945C38.7509 34.2156 37.4071 34.1434 36.0951 34.2201C36.0951 34.5358 36.0951 34.8514 36.0951 35.1626C38.4387 35.2934 40.7868 35.4242 43.1304 35.5595C43.1259 35.8391 43.1168 36.1187 43.1123 36.3983C41.7143 36.6012 40.3163 36.8042 38.9183 37.0071C38.9273 37.2642 38.9364 37.5167 38.9454 37.7738C40.2167 37.9091 41.4881 38.0489 42.7639 38.1841C42.8544 38.333 42.9404 38.4863 43.0309 38.6351C42.3613 39.0004 41.7052 39.6498 41.0221 39.6814C38.3889 39.8077 35.7467 39.7445 33.1045 39.7355C31.6115 39.7265 30.9102 38.8606 30.8649 37.4581C30.8152 35.8842 30.8559 34.3058 30.8559 32.5334H43.2888H43.2842Z" fill="#545454"/>
<path id="Vector_6" d="M47.3562 15.0897C47.139 15.3152 46.6776 15.7977 46.2115 16.2802C45.8134 15.8157 45.2524 15.4144 45.0488 14.8777C44.3204 12.9295 43.9358 10.8279 43.0083 8.98796C41.918 6.82778 39.9363 5.60113 37.5203 5.01035C36.8371 4.84349 36.3078 4.04075 35.7106 3.53115C36.4707 3.26958 37.276 2.69684 37.9908 2.79606C42.859 3.47252 47.5327 9.43894 47.3607 15.0987L47.3562 15.0897Z" fill="white"/>
</g>
<defs>
<clipPath id="clip0_1_2247">
<rect width="74" height="85" fill="white"/>
</clipPath>
</defs>
</svg>
