<svg width="73" height="73" viewBox="0 0 73 73" fill="none" xmlns="http://www.w3.org/2000/svg">
<g id="Layer_1" clip-path="url(#clip0_1_2199)">
<path id="Vector" d="M73 23.6692C72.9085 24.5587 72.8647 25.4578 72.7181 26.3397C72.0514 30.3894 68.7694 32.7894 64.335 32.4999C60.6244 32.258 57.6758 29.1474 57.6148 25.2883C57.5558 21.5377 57.5977 17.7852 57.5996 14.0346C57.5996 12.2498 58.4224 10.8974 59.8492 9.89549C62.6626 7.9202 67.5274 7.85543 70.3961 9.74691C71.9676 10.7831 72.859 12.2079 72.8628 14.1375C72.8628 14.5585 72.9523 14.9794 73 15.4004V23.6711V23.6692Z" fill="#545454"/>
<path id="Vector_2" d="M60.8797 0C61.2549 0.520014 61.0721 0.845736 60.653 1.31622C59.7292 2.35625 58.6263 2.50864 57.3387 2.45149C55.8967 2.38673 54.4357 2.40197 53.0033 2.56769C52.1614 2.66483 51.2871 3.00389 50.5632 3.45152C49.6489 4.01534 48.7232 3.81915 47.8032 3.78105C47.2451 3.75819 47.1422 3.10103 47.6013 2.64578C48.8965 1.36004 50.4356 0.516204 52.23 0.148575C52.3614 0.121908 52.4833 0.0514299 52.6109 0C55.3672 0 58.1234 0 60.8816 0L60.8797 0Z" fill="#545454"/>
<path id="Vector_3" d="M27.515 73C18.8881 73 10.2631 73 1.63623 73C0.358105 73 0 72.6381 0 71.3466C0 59.7501 0 48.1536 0 36.5571C0 35.5285 0.114289 35.4104 1.13717 35.4085C4.6306 35.4066 8.12593 35.3438 11.6155 35.4295C14.067 35.4885 15.7204 33.7456 15.6823 31.3399C15.6252 27.8236 15.6671 24.3054 15.669 20.7891C15.669 19.8881 15.7909 19.7605 16.6995 19.7605C28.1779 19.7586 39.6544 19.7529 51.1328 19.7643C53.5995 19.7662 55.0472 21.2596 55.0491 23.7435C55.0529 39.6182 55.051 55.491 55.0491 71.3657C55.0491 72.6495 54.691 73 53.3938 73C44.7669 73 36.1419 73 27.515 73ZM28.5646 58.432C24.4559 58.432 20.3472 58.432 16.2385 58.432C15.029 58.432 14.4975 58.7844 14.4804 59.5901C14.4632 60.4339 15.0175 60.8225 16.2538 60.8225C24.4711 60.8225 32.6866 60.8225 40.9039 60.8225C41.1649 60.8225 41.4297 60.8225 41.6849 60.7844C42.3402 60.6816 42.7478 60.1711 42.704 59.5406C42.664 58.9425 42.2202 58.4949 41.6011 58.4434C41.3649 58.4244 41.1268 58.4339 40.8887 58.4339C36.78 58.4339 32.6713 58.4339 28.5627 58.4339L28.5646 58.432ZM32.4351 30.3894C36.0429 30.3894 39.6525 30.3894 43.2602 30.3894C43.4983 30.3894 43.7402 30.4103 43.9707 30.3722C44.5916 30.2713 44.944 29.8751 44.9764 29.2617C45.0069 28.6845 44.7383 28.2407 44.1554 28.0807C43.864 28.0007 43.5459 27.9912 43.2392 27.9912C35.999 27.9874 28.7569 27.9874 21.5168 27.9912C21.2348 27.9912 20.9415 27.9988 20.671 28.0693C20.0977 28.2179 19.8024 28.6179 19.8005 29.2141C19.8005 29.9608 20.292 30.3874 21.1796 30.3894C24.9302 30.3951 28.6827 30.3913 32.4332 30.3913L32.4351 30.3894ZM32.4351 35.6181C29.1589 35.6181 25.8826 35.6181 22.6082 35.6181C22.0387 35.6181 21.4672 35.6009 20.8996 35.6314C20.2653 35.6657 19.8386 36.1152 19.8024 36.7209C19.7643 37.3648 20.1567 37.8638 20.8101 37.9667C21.0653 38.0067 21.3301 38.0067 21.591 38.0067C28.7836 38.0086 35.9762 38.0086 43.1688 38.0067C43.4526 38.0067 43.7402 38.0048 44.0202 37.9591C44.6164 37.86 44.9269 37.4657 44.9802 36.8867C45.0507 36.1381 44.5002 35.6238 43.6164 35.6219C39.8887 35.6162 36.1629 35.62 32.4351 35.6181ZM30.8465 53.2033C33.7437 53.2033 36.641 53.2033 39.5382 53.2033C40.2277 53.2033 40.9173 53.2223 41.603 53.1899C42.2183 53.1614 42.6659 52.6852 42.7059 52.0909C42.7459 51.4851 42.3783 50.988 41.7554 50.8623C41.4792 50.807 41.1897 50.8032 40.9058 50.8032C34.2085 50.7994 27.5131 50.8013 20.8158 50.8032C20.5548 50.8032 20.2901 50.8032 20.0367 50.8489C19.2748 50.9918 18.8614 51.668 19.1034 52.3918C19.3148 53.0261 19.8119 53.209 20.4462 53.2071C23.913 53.1957 27.3798 53.2014 30.8484 53.2014L30.8465 53.2033ZM20.1034 45.6278C22.4768 45.6278 24.8521 45.6278 27.2255 45.6278C27.795 45.6278 28.3665 45.6545 28.9341 45.6126C29.6236 45.5612 30.0941 45.0354 30.0884 44.3992C30.0827 43.7611 29.6008 43.264 28.9131 43.2049C28.7017 43.1859 28.4865 43.1992 28.2731 43.1992C23.1682 43.1992 18.0633 43.1992 12.9603 43.1992C12.3908 43.1992 11.8194 43.1725 11.2517 43.2087C10.3831 43.2621 9.8555 44.0164 10.1336 44.8069C10.366 45.4697 10.9146 45.6336 11.5584 45.6317C14.408 45.6259 17.2557 45.6298 20.1053 45.6298L20.1034 45.6278ZM23.6616 66.0093C21.8806 66.0093 20.0996 66.0093 18.3205 66.0093C17.4652 66.0093 16.61 65.996 15.7566 66.015C14.9928 66.0322 14.507 66.4912 14.4823 67.1713C14.4575 67.8856 14.9413 68.3808 15.728 68.4361C15.9166 68.4494 16.1071 68.4399 16.2976 68.4399C20.8082 68.4399 25.3188 68.4399 29.8313 68.4399C30.4732 68.4399 31.1151 68.4665 31.7532 68.4284C32.5799 68.3789 33.0752 67.7503 32.9418 66.9846C32.8351 66.3751 32.3437 66.0131 31.5684 66.0112C28.9322 66.0055 26.2978 66.0093 23.6616 66.0093ZM39.681 66.0093C39.0658 66.0093 38.4505 65.9903 37.8353 66.015C37.0848 66.0455 36.6162 66.5198 36.6124 67.2094C36.6086 67.897 37.0676 68.4056 37.8162 68.4265C39.0448 68.4589 40.2772 68.4608 41.5058 68.4265C42.2373 68.4056 42.7249 67.8589 42.7116 67.196C42.6964 66.5331 42.1935 66.0436 41.4544 66.0169C40.8639 65.996 40.2715 66.0131 39.681 66.0131V66.0093Z" fill="#545454"/>
<path id="Vector_4" d="M29.0712 6.23255C38.1686 6.23255 47.2641 6.23255 56.3615 6.23636C56.9405 6.23636 57.6358 6.08969 57.8701 6.84209C58.0987 7.57735 58.0187 8.26118 57.3767 8.84977C56.1805 9.94694 55.5195 11.3432 55.2929 12.9508C55.1595 13.8956 54.9119 14.0994 53.9405 14.1223C41.7363 14.408 29.5341 14.6899 17.33 14.9814C12.1298 15.1052 6.93161 15.2499 1.73338 15.3776C0.386677 15.408 0 15.0156 0 13.6632C0 11.787 0 9.91075 0 8.03451C0 6.54685 0.306675 6.23255 1.781 6.23255C9.9755 6.23255 18.17 6.23255 26.3645 6.23255C27.2674 6.23255 28.1703 6.23255 29.0712 6.23255Z" fill="#545454"/>
<path id="Vector_5" d="M13.2479 26.9226C13.2479 28.4655 13.2536 30.0065 13.246 31.5494C13.2403 32.5266 12.7946 33.0199 11.825 33.0256C8.69352 33.0428 5.562 33.0428 2.43049 33.0142C2.1543 33.0123 1.77143 32.8066 1.64381 32.5799C1.55428 32.418 1.73714 31.9913 1.92191 31.8046C5.28009 28.4179 8.65161 25.0464 12.0384 21.6901C12.2231 21.5072 12.6593 21.3396 12.8231 21.4348C13.0441 21.5625 13.2232 21.9472 13.2289 22.2272C13.267 23.793 13.2479 25.3588 13.2479 26.9245V26.9226Z" fill="#545454"/>
<path id="Vector_6" d="M65.4226 2.43052C66.7426 2.31052 68.076 2.65339 69.0456 3.82294C69.4551 4.31819 69.7675 4.93726 69.9713 5.55061C70.2437 6.36777 69.8532 6.65349 68.996 6.51825C67.5789 6.29348 66.1483 6.04967 64.7197 6.01347C63.6969 5.98681 62.6702 6.30682 61.6397 6.43253C61.293 6.47444 60.7806 6.52587 60.6206 6.3392C60.4415 6.12967 60.4892 5.62489 60.5901 5.29536C61.1254 3.56579 62.6663 2.45529 64.4873 2.43243C64.7483 2.42862 65.0093 2.43243 65.4226 2.43243V2.43052Z" fill="#545454"/>
<path id="Vector_7" d="M28.5664 58.432C32.6751 58.432 36.7838 58.432 40.8925 58.432C41.1306 58.432 41.3687 58.4225 41.6049 58.4415C42.2239 58.493 42.6677 58.9406 42.7077 59.5387C42.7516 60.1692 42.3439 60.6778 41.6887 60.7825C41.4334 60.8225 41.1687 60.8206 40.9077 60.8206C32.6903 60.8206 24.4749 60.8206 16.2575 60.8206C15.0213 60.8206 14.467 60.4321 14.4842 59.5882C14.5013 58.7825 15.0327 58.4301 16.2423 58.4301C20.351 58.4301 24.4596 58.4301 28.5683 58.4301L28.5664 58.432Z" fill="white"/>
<path id="Vector_8" d="M32.437 30.3894C28.6865 30.3894 24.934 30.3913 21.1834 30.3875C20.2958 30.3875 19.8024 29.9589 19.8043 29.2122C19.8043 28.616 20.0996 28.216 20.6748 28.0674C20.9453 27.9969 21.2387 27.9893 21.5206 27.9893C28.7608 27.9855 36.0028 27.9855 43.243 27.9893C43.5497 27.9893 43.8659 27.9988 44.1593 28.0788C44.7402 28.2369 45.0107 28.6827 44.9802 29.2598C44.9478 29.8732 44.5974 30.2713 43.9745 30.3703C43.7421 30.4084 43.5002 30.3875 43.264 30.3875C39.6563 30.3875 36.0467 30.3875 32.4389 30.3875L32.437 30.3894Z" fill="white"/>
<path id="Vector_9" d="M32.437 35.62C36.1647 35.62 39.8905 35.6162 43.6183 35.6238C44.5002 35.6238 45.0526 36.14 44.9821 36.8886C44.9269 37.4676 44.6183 37.8638 44.0221 37.961C43.744 38.0067 43.4544 38.0086 43.1706 38.0086C35.9781 38.0105 28.7855 38.0105 21.5929 38.0086C21.332 38.0086 21.0691 38.0086 20.8119 37.9686C20.1586 37.8638 19.7662 37.3667 19.8043 36.7229C19.8405 36.1171 20.2672 35.6695 20.9015 35.6333C21.4691 35.6009 22.0405 35.62 22.6101 35.62C25.8864 35.62 29.1626 35.62 32.437 35.62Z" fill="white"/>
<path id="Vector_10" d="M30.8484 53.2033C27.3817 53.2033 23.9149 53.1976 20.4462 53.209C19.8119 53.2109 19.3148 53.0281 19.1034 52.3938C18.8614 51.6699 19.2748 50.9937 20.0367 50.8509C20.29 50.8032 20.5567 50.8051 20.8158 50.8051C27.5131 50.8032 34.2085 50.8032 40.9058 50.8051C41.1896 50.8051 41.4792 50.8089 41.7554 50.8642C42.3782 50.9899 42.7478 51.4871 42.7059 52.0928C42.6659 52.6871 42.2201 53.1633 41.603 53.1919C40.9153 53.2243 40.2258 53.2052 39.5382 53.2052C36.641 53.2052 33.7437 53.2052 30.8465 53.2052L30.8484 53.2033Z" fill="white"/>
<path id="Vector_11" d="M20.1034 45.6298C17.2538 45.6298 14.4061 45.626 11.5565 45.6317C10.9127 45.6317 10.3641 45.4679 10.1317 44.8069C9.8536 44.0164 10.3812 43.2621 11.2498 43.2088C11.8175 43.1745 12.3889 43.1992 12.9584 43.1992C18.0633 43.1992 23.1682 43.1992 28.2712 43.1992C28.4846 43.1992 28.6998 43.1859 28.9112 43.2049C29.5989 43.2659 30.0808 43.7611 30.0865 44.3993C30.0922 45.0355 29.6217 45.5612 28.9322 45.6126C28.3646 45.6545 27.7931 45.6279 27.2236 45.6279C24.8502 45.6279 22.4749 45.6279 20.1015 45.6279L20.1034 45.6298Z" fill="white"/>
<path id="Vector_12" d="M23.6615 66.0113C26.2978 66.0113 28.9321 66.0074 31.5684 66.0132C32.3437 66.0132 32.8351 66.377 32.9418 66.9865C33.0751 67.7523 32.5799 68.3808 31.7532 68.4304C31.1151 68.4685 30.4712 68.4418 29.8312 68.4418C25.3206 68.4418 20.81 68.4418 16.2975 68.4418C16.107 68.4418 15.9166 68.4513 15.728 68.438C14.9413 68.3827 14.4556 67.8875 14.4822 67.1732C14.507 66.4932 14.9927 66.0341 15.7566 66.017C16.6099 65.9979 17.4652 66.0113 18.3204 66.0113C20.1014 66.0113 21.8824 66.0113 23.6615 66.0113Z" fill="white"/>
<path id="Vector_13" d="M39.681 66.0132C40.2715 66.0132 40.8639 65.996 41.4544 66.017C42.1934 66.0436 42.6963 66.5332 42.7115 67.196C42.7268 67.8608 42.2391 68.4056 41.5058 68.4266C40.2772 68.4627 39.0448 68.4608 37.8162 68.4266C37.0676 68.4056 36.6085 67.897 36.6123 67.2094C36.6161 66.5198 37.0847 66.0436 37.8352 66.0151C38.4486 65.9903 39.0657 66.0093 39.681 66.0093V66.0132Z" fill="white"/>
</g>
<defs>
<clipPath id="clip0_1_2199">
<rect width="73" height="73" fill="white"/>
</clipPath>
</defs>
</svg>
