<svg width="41" height="41" viewBox="0 0 41 41" fill="none" xmlns="http://www.w3.org/2000/svg">
<g id="Group">
<path id="Vector" d="M20.6499 40.9423C15.8072 40.9423 10.9658 40.9423 6.12304 40.9423C5.20547 40.9423 4.99242 40.7334 4.99765 39.8361C5.0434 32.817 10.1475 26.5307 17.1129 24.919C25.9919 22.8645 34.7284 28.7812 36.1126 37.7946C36.2237 38.5156 36.2629 39.2509 36.293 39.981C36.3217 40.6811 36.0381 40.941 35.3205 40.941C30.4294 40.941 25.5384 40.941 20.6473 40.941L20.6499 40.9423Z" fill="white"/>
<path id="Vector_2" d="M20.6381 22.1709C15.8359 22.1644 12.031 18.3153 12.0428 13.4722C12.0532 8.75847 15.9326 4.96422 20.7348 4.96814C25.4337 4.97337 29.2713 8.85643 29.2582 13.5937C29.2452 18.3518 25.4011 22.1774 20.6381 22.1709Z" fill="white"/>
<path id="Vector_3" d="M9.00779 6.48198C10.1685 6.8503 10.473 7.27086 10.473 8.48032C10.473 11.9337 10.473 15.387 10.473 18.8417C10.473 20.012 9.87308 20.6062 8.69671 20.6088C8.24054 20.6088 7.78307 20.6154 7.3269 20.6075C6.44724 20.5906 5.78454 19.9349 5.78323 19.0533C5.7767 15.404 5.77801 11.7547 5.78323 8.10547C5.78323 7.22776 6.30737 6.7014 7.38178 6.48198C7.54648 5.2464 7.97521 4.09702 8.75161 3.10046C10.1541 1.29934 11.9918 0.297552 14.2923 0.284491C18.4985 0.259675 22.7046 0.274042 26.9108 0.27796C30.3929 0.280573 33.3115 2.77524 33.8657 6.21031C33.8814 6.30565 33.9141 6.39838 33.9376 6.48589C35.1245 6.73014 35.5192 7.22254 35.5192 8.44767C35.5192 11.918 35.5192 15.387 35.5192 18.8574C35.5192 20.0002 34.914 20.6062 33.7769 20.6088C33.3534 20.6088 32.9286 20.6101 32.5051 20.6088C31.4634 20.6036 30.8281 19.9754 30.8268 18.9409C30.8242 15.4549 30.8464 11.9689 30.8137 8.48293C30.8033 7.44066 31.1536 6.79152 32.3064 6.48328C32.0097 4.78404 31.134 3.48707 29.6557 2.59892C28.7982 2.083 27.8558 1.84529 26.8612 1.84268C22.7203 1.83615 18.5795 1.82309 14.4387 1.84529C11.6729 1.85966 9.38031 3.83449 9.00779 6.48459V6.48198Z" fill="white"/>
<path id="Vector_4" d="M2.64877 13.5701C2.64877 12.3319 2.64877 11.0937 2.64877 9.85553C2.64877 9.22076 2.91411 8.88771 3.41603 8.88118C3.92187 8.87334 4.20812 9.21162 4.20943 9.83072C4.21074 12.3241 4.21074 14.8161 4.20943 17.3095C4.20943 17.9286 3.92187 18.2669 3.41734 18.2603C2.91542 18.2538 2.65008 17.9208 2.64877 17.286C2.64747 16.0478 2.64877 14.8096 2.64877 13.5714V13.5701Z" fill="white"/>
<path id="Vector_5" d="M37.0889 13.5374C37.0889 12.2992 37.0876 11.061 37.0889 9.8228C37.0902 9.20632 37.3804 8.86934 37.8888 8.8811C38.375 8.89285 38.6482 9.22068 38.6482 9.81496C38.6508 12.324 38.6508 14.833 38.6482 17.3434C38.6482 17.9272 38.3607 18.259 37.8718 18.2616C37.383 18.2642 37.0902 17.9311 37.0889 17.3525C37.085 16.0817 37.0889 14.8108 37.0889 13.54V13.5374Z" fill="white"/>
<path id="Vector_6" d="M1.86321 13.5846C1.86321 14.3343 1.86844 15.084 1.86191 15.8337C1.85668 16.3706 1.55213 16.6971 1.08028 16.6958C0.608423 16.6945 0.306498 16.3679 0.305191 15.8285C0.299962 14.3291 0.299962 12.831 0.305191 11.3316C0.306498 10.7817 0.592738 10.4565 1.06328 10.446C1.55867 10.4343 1.8606 10.7634 1.86452 11.3381C1.86975 12.0878 1.86452 12.8375 1.86452 13.5872L1.86321 13.5846Z" fill="white"/>
<path id="Vector_7" d="M40.9983 13.5937C40.9983 14.3264 41.0022 15.0605 40.9983 15.7932C40.9944 16.3679 40.6964 16.7022 40.2062 16.6957C39.7344 16.6892 39.4416 16.364 39.439 15.8193C39.4338 14.3199 39.4338 12.8218 39.439 11.3224C39.4403 10.7777 39.7344 10.4525 40.2049 10.4447C40.6964 10.4381 40.9931 10.7686 40.997 11.3459C41.0022 12.0956 40.997 12.8453 40.997 13.595L40.9983 13.5937Z" fill="white"/>
</g>
</svg>
