<svg width="27" height="26" viewBox="0 0 27 26" fill="none" xmlns="http://www.w3.org/2000/svg">
<g id="Cross" clip-path="url(#clip0_1_3034)">
<g id="Clip path group">
<mask id="mask0_1_3034" style="mask-type:luminance" maskUnits="userSpaceOnUse" x="0" y="0" width="27" height="26">
<g id="a">
<path id="Vector" d="M0.660583 0.0183716H26.0601V25.4178H0.660583V0.0183716Z" fill="white"/>
</g>
</mask>
<g mask="url(#mask0_1_3034)">
<g id="Group">
<path id="Vector_2" d="M25.3916 22.0758C25.3916 22.7849 25.11 23.4649 24.6086 23.9663C24.1071 24.4677 23.4271 24.7494 22.718 24.7494H4.00261C3.29352 24.7494 2.61347 24.4677 2.11207 23.9663C1.61066 23.4649 1.32898 22.7849 1.32898 22.0758V3.36036C1.32898 2.65127 1.61066 1.97122 2.11207 1.46982C2.61347 0.968414 3.29352 0.686728 4.00261 0.686728H22.718C23.4271 0.686728 24.1071 0.968414 24.6086 1.46982C25.11 1.97122 25.3916 2.65127 25.3916 3.36036V22.0758Z" fill="#9F06FF"/>
<path id="Vector_3" d="M15.3837 12.7145L20.0849 8.01391C20.2175 7.88153 20.3226 7.72432 20.3944 7.55127C20.4661 7.37822 20.5031 7.19272 20.5031 7.00539C20.5031 6.81805 20.4661 6.63256 20.3944 6.45951C20.3226 6.28646 20.2175 6.12924 20.0849 5.99686C19.9525 5.86431 19.7953 5.75916 19.6222 5.68741C19.4491 5.61567 19.2636 5.57874 19.0762 5.57874C18.8889 5.57874 18.7033 5.61567 18.5303 5.68741C18.3572 5.75916 18.2 5.86431 18.0676 5.99686L13.3663 10.6974L8.66511 5.99686C8.53286 5.86343 8.37555 5.75743 8.20222 5.68495C8.02889 5.61247 7.84294 5.57493 7.65506 5.57449C7.46718 5.57406 7.28107 5.61073 7.1074 5.6824C6.93373 5.75407 6.77593 5.85934 6.64306 5.99215C6.51019 6.12497 6.40486 6.28271 6.33313 6.45634C6.2614 6.62996 6.22467 6.81604 6.22505 7.00389C6.22544 7.19174 6.26293 7.37767 6.33537 7.551C6.40782 7.72433 6.51379 7.88164 6.6472 8.01391L11.349 12.7145L6.63636 17.4264C6.43625 17.6257 6.29985 17.8798 6.24444 18.1567C6.18904 18.4336 6.21713 18.7207 6.32516 18.9816C6.43318 19.2425 6.61628 19.4654 6.85121 19.6221C7.08615 19.7788 7.36233 19.8622 7.64474 19.8617C8.00997 19.8617 8.37521 19.7225 8.6537 19.4434L13.3663 14.7315L18.0676 19.432C18.1999 19.5647 18.3572 19.6698 18.5304 19.7415C18.7035 19.8132 18.8891 19.85 19.0765 19.8497C19.3588 19.8501 19.6348 19.7666 19.8697 19.61C20.1045 19.4533 20.2875 19.2305 20.3955 18.9697C20.5035 18.7089 20.5316 18.422 20.4763 18.1452C20.421 17.8684 20.2848 17.6143 20.0849 17.415L15.3837 12.7145Z" fill="white"/>
</g>
</g>
</g>
</g>
<defs>
<clipPath id="clip0_1_3034">
<rect width="25.3995" height="25.3995" fill="white" transform="translate(0.660583 0.0183105)"/>
</clipPath>
</defs>
</svg>
