<svg width="56" height="56" viewBox="0 0 56 56" fill="none" xmlns="http://www.w3.org/2000/svg">
<circle cx="28" cy="28" r="28" fill="url(#paint0_linear_115_41)"/>
<path d="M43.0001 27.6887C42.8416 27.9252 42.7119 28.1916 42.5201 28.3935C39.9039 31.1488 36.9207 33.3522 33.4415 34.7752C31.0627 35.748 28.5959 36.191 26.0343 35.923C24.0278 35.7133 22.1244 35.1063 20.3059 34.2225C17.3136 32.768 14.6952 30.7617 12.3921 28.3052C11.8697 27.7478 11.8689 27.2496 12.3921 26.6938C15.0288 23.8983 18.0393 21.6657 21.5579 20.2254C23.936 19.2517 26.4036 18.8095 28.9652 19.0767C30.9717 19.2864 32.875 19.8943 34.6935 20.7764C37.6494 22.2112 40.2391 24.1892 42.5201 26.6063C42.7112 26.8089 42.8416 27.0746 43.0001 27.3111V27.6887ZM27.4925 20.8923C23.9952 20.8994 21.1371 23.8778 21.1439 27.5081C21.1507 31.144 24.0156 34.1153 27.5077 34.1082C31.005 34.1011 33.8631 31.1227 33.8563 27.4924C33.8495 23.8565 30.9846 20.8852 27.4925 20.8923Z" fill="#FCF3FF"/>
<path d="M27.4922 20.8926C30.9842 20.8855 33.8499 23.8575 33.856 27.4926C33.8628 31.123 31.004 34.1022 27.5074 34.1085C24.0153 34.1156 21.1496 31.1435 21.1436 27.5084C21.1367 23.878 23.9956 20.8989 27.4922 20.8926ZM29.4964 23.312C27.929 22.3494 25.6882 22.7168 24.2936 24.1658C22.8354 25.681 22.5381 28.0429 23.577 29.8679C24.6493 31.7513 26.7763 32.6414 28.7556 32.0343C30.417 31.5243 31.9549 29.7213 31.9086 28.3362C30.3708 28.5593 29.366 28.128 28.754 26.9826C28.1148 25.7851 28.3256 24.7429 29.4972 23.3128L29.4964 23.312Z" fill="#9F06FF"/>
<path d="M29.4968 23.312C28.3252 24.7429 28.1144 25.7851 28.7537 26.9818C29.3656 28.1273 30.3704 28.5585 31.9083 28.3354C31.9545 29.7205 30.4174 31.5243 28.7552 32.0335C26.776 32.6406 24.6489 31.7505 23.5767 29.8672C22.5385 28.0421 22.835 25.6802 24.2933 24.165C25.6878 22.716 27.9286 22.3487 29.4961 23.3112L29.4968 23.312Z" fill="#FCF3FF"/>
<defs>
<linearGradient id="paint0_linear_115_41" x1="0" y1="0" x2="56" y2="56" gradientUnits="userSpaceOnUse">
<stop stop-color="#CD10FF"/>
<stop offset="1" stop-color="#9F06FF"/>
</linearGradient>
</defs>
</svg>
