<svg width="56" height="56" viewBox="0 0 56 56" fill="none" xmlns="http://www.w3.org/2000/svg">
<circle cx="28" cy="28" r="28" fill="url(#paint0_linear_115_62)"/>
<path d="M12 39.4128C12.2369 38.5767 12.4816 37.7423 12.7099 36.9028C13.2354 34.9723 13.7514 33.0393 14.2743 31.1081C14.4802 30.3472 14.8963 30.1146 15.6725 30.3181C16.4186 30.513 17.1655 30.7079 17.9098 30.9089C18.5955 31.0944 18.8522 31.5338 18.6696 32.2126C17.9296 34.9672 17.187 37.7209 16.4427 40.4747C16.2661 41.1287 15.8155 41.3826 15.147 41.2099C14.4104 41.0201 13.6799 40.8072 12.9399 40.632C12.4867 40.5251 12.1568 40.3062 12 39.86C12 39.7104 12 39.5616 12 39.412L12 39.4128ZM16.6761 32.5743C16.6787 32.3255 16.4875 32.1246 16.2419 32.1177C15.9904 32.1109 15.7966 32.2938 15.7871 32.5486C15.7759 32.8196 15.9671 33.0205 16.2325 33.0188C16.4814 33.0171 16.6744 32.8248 16.677 32.5743H16.6761Z" fill="#FCF3FF"/>
<path d="M24.1519 33.454C25.0039 33.6806 25.8128 33.8883 26.6166 34.1123C27.2971 34.3021 27.696 34.7578 27.7727 35.4545C27.8304 35.9778 27.609 36.4095 27.223 36.7566C27.8244 37.6979 27.5203 38.7742 26.4141 39.176C26.4718 40.3242 26.1927 40.7713 25.208 41.121C25.1908 41.3655 25.2029 41.6126 25.1512 41.8451C24.9789 42.6265 24.1717 43.154 23.3894 42.9608C22.1618 42.6573 20.9334 42.3478 19.7281 41.9699C19.1863 41.7998 18.6909 41.4724 18.1913 41.1868C17.9052 41.0235 17.6537 40.8004 17.353 40.5798C17.4814 40.0951 17.6141 39.583 17.7519 39.0726C18.3308 36.9233 18.9158 34.7757 19.4861 32.6247C19.5515 32.3776 19.6523 32.2981 19.9151 32.2793C20.9454 32.2084 21.439 31.7869 21.7121 30.7977C21.8508 30.295 21.9792 29.7889 22.1205 29.2862C22.2531 28.8126 22.5667 28.6288 23.0474 28.7425C23.3188 28.8066 23.5884 28.8776 23.8529 28.9648C24.6283 29.2204 25.0564 29.9761 24.8591 30.7627C24.6619 31.5475 24.443 32.3272 24.2346 33.1095C24.2079 33.2103 24.1855 33.3129 24.1519 33.4549V33.454Z" fill="#FCF3FF"/>
<path d="M29.8042 36.7643C29.4036 36.4035 29.1891 35.9726 29.2391 35.4485C29.302 34.7826 29.7293 34.2961 30.4021 34.1114C31.074 33.9268 31.7494 33.7566 32.4231 33.5788C32.5567 33.5438 32.6876 33.4993 32.8547 33.4489C32.816 33.2745 32.7858 33.112 32.7436 32.9513C32.5541 32.2417 32.3551 31.5338 32.1716 30.8225C31.9476 29.9548 32.3956 29.1776 33.2536 28.9297C33.4905 28.8613 33.7291 28.7972 33.9686 28.7408C34.4476 28.6288 34.7603 28.8109 34.8947 29.2854C35.042 29.8077 35.1773 30.3344 35.3255 30.8567C35.6141 31.8749 36.112 32.2605 37.2044 32.305C37.3663 32.3118 37.4456 32.3426 37.4921 32.517C38.2106 35.2015 38.9385 37.8825 39.663 40.5602C38.7318 41.3313 37.7359 41.9452 36.5393 42.2102C35.6606 42.4051 34.7957 42.6599 33.9256 42.8916C32.6213 43.2387 31.7064 42.4752 31.8313 41.1415C30.7613 40.6713 30.4762 40.2165 30.6106 39.1966C29.3407 38.6682 29.2641 37.5534 29.8034 36.7643H29.8042Z" fill="#FCF3FF"/>
<path d="M24.6267 20.4625C25.2392 20.4625 25.8517 20.4522 26.4642 20.4676C26.6779 20.4728 26.7623 20.3932 26.8226 20.2034C27.1844 19.0664 27.5609 17.9345 27.9227 16.7983C28.0192 16.4948 28.1786 16.2674 28.5206 16.2733C28.8454 16.2793 28.9987 16.5008 29.0918 16.7914C29.4484 17.9071 29.8257 19.0168 30.1712 20.1368C30.253 20.4026 30.3762 20.4719 30.6424 20.4685C31.8132 20.4522 32.9848 20.4608 34.1556 20.4522C34.4735 20.4497 34.7353 20.5164 34.8379 20.854C34.9352 21.1755 34.7612 21.3773 34.5174 21.5508C33.5586 22.2356 32.6075 22.9315 31.64 23.6044C31.4204 23.7574 31.3928 23.8899 31.4755 24.1293C31.8494 25.2176 32.2009 26.3128 32.5661 27.4037C32.6669 27.7046 32.716 27.9927 32.4223 28.215C32.1225 28.4407 31.864 28.3039 31.6047 28.115C30.6528 27.4199 29.6931 26.7368 28.7455 26.0366C28.568 25.9058 28.4543 25.9007 28.2734 26.0349C27.3094 26.7488 26.3324 27.4456 25.3615 28.1509C25.1505 28.3039 24.936 28.4014 24.6767 28.2714C24.3975 28.1312 24.3036 27.8662 24.4225 27.502C24.7921 26.3675 25.1591 25.2321 25.5459 24.1036C25.6269 23.8668 25.5743 23.748 25.377 23.6086C24.413 22.9307 23.462 22.2356 22.5014 21.5525C22.2447 21.3696 22.0681 21.161 22.1835 20.8284C22.2929 20.5121 22.5471 20.4471 22.8529 20.4514C23.4439 20.4599 24.0349 20.4539 24.6258 20.4539C24.6258 20.4565 24.6258 20.4591 24.6258 20.4616L24.6267 20.4625Z" fill="#FCF3FF"/>
<path d="M41.7408 30.2394C42.237 30.2343 42.5635 30.4899 42.7039 31.0012C43.0907 32.4075 43.4698 33.8156 43.8514 35.2237C44.2107 36.5488 44.5673 37.8748 44.9257 39.2008C45.1368 39.9805 44.9024 40.4054 44.1262 40.6157C43.3612 40.8235 42.5937 41.0235 41.8252 41.2202C41.2144 41.3766 40.7501 41.1235 40.5873 40.5242C39.8292 37.7406 39.0771 34.9552 38.3293 32.169C38.176 31.5996 38.4068 31.1209 38.9367 30.9661C39.7999 30.7131 40.6734 30.4951 41.5435 30.2642C41.615 30.2454 41.6925 30.2446 41.7399 30.2386L41.7408 30.2394ZM40.7811 32.1169C40.5356 32.1194 40.3392 32.3169 40.3374 32.5648C40.3349 32.8265 40.5442 33.0282 40.8052 33.018C41.0568 33.0077 41.2334 32.8153 41.2273 32.5572C41.2213 32.3015 41.0318 32.1152 40.7811 32.1169Z" fill="#FCF3FF"/>
<path d="M17.7847 26.9326C17.0584 27.4566 16.3434 27.9662 15.637 28.4868C15.3923 28.6664 15.1468 28.7749 14.8728 28.5809C14.5972 28.386 14.6265 28.1175 14.7229 27.8328C14.9693 27.1061 15.1899 26.3709 15.4552 25.651C15.5534 25.3834 15.481 25.2595 15.2665 25.1124C14.6308 24.6756 14.0114 24.2156 13.3825 23.7685C13.149 23.6026 12.9698 23.4111 13.0689 23.1016C13.1705 22.7827 13.4273 22.7126 13.7322 22.7152C14.5386 22.722 15.3441 22.7135 16.1504 22.7246C16.3434 22.7272 16.4338 22.6708 16.4916 22.4827C16.7268 21.7192 16.9818 20.9617 17.2247 20.2009C17.3117 19.9298 17.4383 19.7033 17.7657 19.6965C18.1077 19.6888 18.2455 19.9102 18.3369 20.2C18.5781 20.9617 18.8391 21.7175 19.076 22.4801C19.1337 22.6673 19.219 22.728 19.4137 22.7255C20.2192 22.7144 21.0256 22.7229 21.8319 22.7152C22.1386 22.7126 22.3988 22.7845 22.4952 23.1016C22.5874 23.4026 22.4212 23.6035 22.1825 23.7719C21.5347 24.2293 20.8981 24.7012 20.2459 25.1526C20.0667 25.2766 20.0202 25.3826 20.0952 25.5955C20.3562 26.3393 20.5888 27.0933 20.8403 27.8397C20.9368 28.1252 20.9627 28.3911 20.6835 28.5852C20.4208 28.7681 20.1813 28.6715 19.9461 28.4988C19.2302 27.9739 18.5083 27.4549 17.7847 26.9317V26.9326Z" fill="#FCF3FF"/>
<path d="M41.4627 25.3304C41.7453 26.1854 42.0124 27.0052 42.288 27.8226C42.3837 28.1047 42.425 28.3748 42.1519 28.5749C41.8676 28.7835 41.6144 28.6612 41.3619 28.4749C40.6641 27.9593 39.9577 27.4558 39.2341 26.9334C38.532 27.4413 37.8307 27.9482 37.1286 28.4543C37.033 28.5227 36.9339 28.6322 36.8331 28.6364C36.6531 28.6441 36.4429 28.6322 36.2947 28.5458C36.0759 28.4167 36.0673 28.1714 36.1422 27.9431C36.3834 27.2036 36.616 26.4615 36.8814 25.7305C36.9891 25.4347 36.9598 25.2646 36.6763 25.0799C36.0578 24.6764 35.472 24.2233 34.8681 23.7975C34.6139 23.618 34.4141 23.4145 34.5278 23.0811C34.6355 22.7656 34.9051 22.7126 35.2066 22.7161C35.9699 22.7238 36.7332 22.7032 37.4956 22.7306C37.7937 22.7409 37.9014 22.6306 37.9806 22.369C38.1986 21.6448 38.4475 20.9301 38.6741 20.2086C38.7646 19.9213 38.8964 19.693 39.2401 19.6964C39.5856 19.6999 39.7062 19.941 39.7958 20.2231C40.0258 20.9438 40.2773 21.6577 40.4919 22.3826C40.5728 22.6579 40.6977 22.7391 40.9846 22.7297C41.7574 22.7049 42.5318 22.722 43.3055 22.7169C43.5992 22.7152 43.8413 22.7913 43.9438 23.0931C44.0489 23.4026 43.8766 23.5966 43.6432 23.7642C42.9212 24.2814 42.2002 24.8004 41.4619 25.3313L41.4627 25.3304Z" fill="#FCF3FF"/>
<path d="M34.0367 12.4783C33.9626 12.6544 33.929 12.7673 33.8722 12.8656C33.3079 13.8428 32.7411 14.8191 32.1708 15.7929C31.9976 16.0887 31.7443 16.1733 31.5048 16.0331C31.2748 15.898 31.2214 15.6475 31.3842 15.3654C31.9588 14.3694 32.5386 13.376 33.1175 12.3826C33.2356 12.1799 33.4113 12.0363 33.643 12.1338C33.7972 12.1987 33.9101 12.362 34.0367 12.4774V12.4783Z" fill="#FCF3FF"/>
<path d="M28.959 13.2169C28.959 13.7709 28.9608 14.3258 28.959 14.8798C28.9573 15.2491 28.7945 15.4637 28.5162 15.4697C28.2363 15.4756 28.0579 15.2585 28.0579 14.8969C28.0562 13.788 28.0562 12.6792 28.0579 11.5703C28.0579 11.201 28.2276 10.995 28.5154 11.0001C28.7988 11.0052 28.9582 11.2113 28.9599 11.5849C28.9616 12.1286 28.9599 12.6723 28.9599 13.2161L28.959 13.2169Z" fill="#FCF3FF"/>
<path d="M20.0419 16.2494C20.2211 16.3238 20.334 16.358 20.4339 16.4144C21.41 16.9701 22.3843 17.5292 23.3578 18.0892C23.6662 18.267 23.7601 18.5013 23.6317 18.7407C23.4973 18.9903 23.226 19.0407 22.9107 18.8612C21.926 18.2995 20.9439 17.731 19.9583 17.1701C19.7387 17.0445 19.5914 16.8649 19.6878 16.6256C19.7481 16.4751 19.923 16.3699 20.0419 16.2494Z" fill="#FCF3FF"/>
<path d="M25.8725 16.1357C25.7872 16.2349 25.7037 16.4153 25.5719 16.4623C25.4383 16.5101 25.2505 16.4443 25.0989 16.393C25.0334 16.3716 24.9921 16.2665 24.949 16.193C24.3856 15.2278 23.8187 14.2651 23.2682 13.293C23.1916 13.158 23.1459 12.9571 23.189 12.8186C23.2269 12.6989 23.4078 12.5587 23.5336 12.5501C23.6749 12.5407 23.892 12.6305 23.9617 12.745C24.5846 13.7735 25.1825 14.8165 25.7855 15.8578C25.8217 15.9202 25.8312 15.998 25.8734 16.1348L25.8725 16.1357Z" fill="#FCF3FF"/>
<path d="M37.7816 16.1015C37.7247 16.1699 37.6463 16.3349 37.5145 16.4127C36.4997 17.0086 35.4763 17.5908 34.4519 18.1696C34.2142 18.3038 33.9911 18.2628 33.8325 18.0302C33.6904 17.8216 33.7619 17.548 34.0117 17.4027C35.0291 16.8111 36.0491 16.2238 37.0752 15.6467C37.4094 15.4586 37.7747 15.6578 37.7816 16.1006V16.1015Z" fill="#FCF3FF"/>
<path d="M16.676 32.5734C16.6734 32.8239 16.4813 33.0163 16.2315 33.018C15.9662 33.0197 15.7749 32.8188 15.7861 32.5478C15.7964 32.293 15.9903 32.11 16.241 32.1169C16.4874 32.1237 16.6777 32.3246 16.6752 32.5734H16.676Z" fill="#9F06FF"/>
<path d="M40.7811 32.1169C41.0318 32.1143 41.2213 32.3007 41.2273 32.5572C41.2334 32.8154 41.0568 33.0086 40.8052 33.018C40.5433 33.0282 40.3348 32.8265 40.3374 32.5649C40.34 32.3169 40.5356 32.1194 40.7811 32.1169Z" fill="#9F06FF"/>
<defs>
<linearGradient id="paint0_linear_115_62" x1="0" y1="0" x2="56" y2="56" gradientUnits="userSpaceOnUse">
<stop stop-color="#CD10FF"/>
<stop offset="1" stop-color="#9F06FF"/>
</linearGradient>
</defs>
</svg>
