<svg width="56" height="56" viewBox="0 0 56 56" fill="none" xmlns="http://www.w3.org/2000/svg">
<circle cx="28" cy="28" r="28" fill="url(#paint0_linear_115_45)"/>
<path d="M16.1519 27.4014C16.1519 26.8849 16.1581 26.4233 16.1506 25.9604C16.1308 24.7441 15.4406 23.9868 14.3738 24.0002C13.3441 24.0135 12.6763 24.7909 12.6713 25.9858C12.6688 26.434 12.6713 26.8822 12.6713 27.4014C12.4805 27.4014 12.3169 27.4014 12.1534 27.4014C10.6851 27.4014 9.21674 27.4014 7.74842 27.4014C7.23916 27.4027 7.0025 27.5941 7.00002 27.9941C6.99754 28.3942 7.2404 28.6016 7.74099 28.6029C9.36295 28.607 10.9837 28.6029 12.6713 28.6029C12.6713 29.106 12.6688 29.5824 12.6713 30.0587C12.68 31.2081 13.3615 31.9828 14.3763 32.0002C15.396 32.0176 16.1122 31.2696 16.1482 30.1323C16.163 29.6493 16.1506 29.1662 16.1506 28.6043H16.7603C26.8538 28.6043 36.9462 28.6043 47.0397 28.6043C47.2244 28.6043 47.4561 28.6658 47.5849 28.5695C47.7733 28.4303 48.0099 28.1694 48.0013 27.9714C47.9938 27.776 47.7274 27.5606 47.5329 27.4215C47.4251 27.3439 47.2318 27.4041 47.0781 27.4041C36.9846 27.4041 26.8922 27.4041 16.7987 27.4041H16.1531L16.1519 27.4014Z" fill="#FCF3FF"/>
<defs>
<linearGradient id="paint0_linear_115_45" x1="0" y1="0" x2="56" y2="56" gradientUnits="userSpaceOnUse">
<stop stop-color="#CD10FF"/>
<stop offset="1" stop-color="#9F06FF"/>
</linearGradient>
</defs>
</svg>
