<svg width="56" height="53" viewBox="0 0 56 53" fill="none" xmlns="http://www.w3.org/2000/svg">
<rect width="56" height="53" rx="7" fill="#9F06FF"/>
<path d="M23.9733 26.1505C23.9733 25.9875 23.9733 25.8619 23.9733 25.737C23.9733 21.744 23.9705 17.751 23.9788 13.758C23.9788 13.4811 24.01 13.1838 24.1076 12.9318C24.3389 12.3371 24.7958 12.0186 25.4023 12.0121C26.8029 11.9967 28.2035 11.9953 29.6035 12.0121C30.4094 12.0216 30.9688 12.6388 31.0269 13.5264C31.0339 13.6331 31.0304 13.7405 31.0304 13.8478C31.0304 17.8116 31.0304 21.7754 31.0304 25.7392C31.0304 25.8641 31.0304 25.989 31.0304 26.1505C31.1509 26.1505 31.2492 26.1505 31.3468 26.1505C32.2129 26.1505 33.0791 26.1548 33.9452 26.1483C34.2685 26.1461 34.5337 26.2476 34.6638 26.5763C34.7933 26.9036 34.6839 27.179 34.4548 27.4208C32.3424 29.6504 30.2328 31.8828 28.1198 34.1116C27.7224 34.5309 27.2786 34.5302 26.8805 34.1109C24.7674 31.8821 22.6585 29.6489 20.5462 27.4194C20.317 27.1776 20.2097 26.9007 20.3399 26.5742C20.4707 26.2454 20.7373 26.1461 21.0599 26.1483C22.0167 26.1541 22.9735 26.1505 23.9726 26.1505H23.9733Z" fill="#FCF3FF"/>
<path d="M18.701 37.0819H36.3018C36.3018 36.9599 36.3004 36.8474 36.3018 36.7342C36.3129 35.7509 36.2831 34.7647 36.3468 33.7858C36.4078 32.8478 37.1908 32.1429 38.0846 32.1115C38.9944 32.0786 39.7836 32.7346 39.954 33.6726C39.9851 33.8435 39.9969 34.021 39.9976 34.1949C40.001 35.7633 40.0017 37.3317 39.999 38.9001C39.9969 40.1829 39.2256 40.9982 38.0085 40.9989C31.004 41.0004 23.9995 41.0004 16.9943 40.9989C15.7772 40.9989 15.0059 40.1836 15.0038 38.9009C15.001 37.3127 14.9962 35.7253 15.0052 34.1372C15.0135 32.6915 16.2196 31.7696 17.4838 32.2283C18.2191 32.495 18.6913 33.2379 18.6989 34.1627C18.7058 35.0196 18.7003 35.8773 18.7003 36.7349C18.7003 36.8408 18.7003 36.946 18.7003 37.0826L18.701 37.0819Z" fill="#FCF3FF"/>
</svg>
