<svg width="44" height="45" viewBox="0 0 44 45" fill="none" xmlns="http://www.w3.org/2000/svg">
<rect y="0.333496" width="44" height="44" rx="5" fill="url(#paint0_linear_108_153)" fill-opacity="0.08"/>
<g clip-path="url(#clip0_108_153)">
<path d="M31.9804 18.2136C31.9336 17.1509 31.7617 16.4203 31.5156 15.7872C31.2616 15.1153 30.8709 14.5136 30.359 14.0135C29.8589 13.5056 29.2533 13.1109 28.5891 12.8609C27.9524 12.6148 27.2256 12.4429 26.163 12.3961C25.0923 12.3452 24.7525 12.3335 22.0371 12.3335C19.3217 12.3335 18.9818 12.3452 17.9152 12.3921C16.8525 12.439 16.1219 12.611 15.489 12.857C14.8169 13.1109 14.2153 13.5016 13.7152 14.0135C13.2073 14.5136 12.8127 15.1192 12.5626 15.7834C12.3164 16.4203 12.1446 17.1469 12.0977 18.2096C12.0469 19.2802 12.0352 19.6201 12.0352 22.3354C12.0352 25.0508 12.0469 25.3907 12.0938 26.4573C12.1406 27.52 12.3126 28.2506 12.5588 28.8837C12.8127 29.5556 13.2073 30.1573 13.7152 30.6574C14.2153 31.1653 14.8209 31.56 15.4851 31.81C16.1219 32.0561 16.8486 32.228 17.9114 32.2748C18.9779 32.3218 19.3179 32.3334 22.0333 32.3334C24.7486 32.3334 25.0885 32.3218 26.1552 32.2748C27.2178 32.228 27.9484 32.0561 28.5813 31.81C29.9254 31.2903 30.9881 30.2276 31.5078 28.8837C31.7538 28.2468 31.9258 27.52 31.9726 26.4573C32.0195 25.3907 32.0313 25.0508 32.0313 22.3354C32.0313 19.6201 32.0273 19.2802 31.9804 18.2136ZM30.1794 26.3792C30.1364 27.356 29.9723 27.8834 29.8355 28.235C29.4995 29.1063 28.808 29.7978 27.9367 30.1339C27.585 30.2707 27.0538 30.4347 26.0808 30.4776C25.026 30.5246 24.7096 30.5362 22.0411 30.5362C19.3725 30.5362 19.0522 30.5246 18.0011 30.4776C17.0244 30.4347 16.4969 30.2707 16.1453 30.1339C15.7117 29.9737 15.317 29.7197 14.9967 29.3876C14.6646 29.0633 14.4106 28.6726 14.2504 28.239C14.1137 27.8874 13.9496 27.356 13.9067 26.3832C13.8597 25.3283 13.8481 25.0118 13.8481 22.3432C13.8481 19.6747 13.8597 19.3544 13.9067 18.3034C13.9496 17.3267 14.1137 16.7992 14.2504 16.4476C14.4106 16.0139 14.6646 15.6194 15.0007 15.2989C15.3248 14.9668 15.7155 14.7128 16.1493 14.5527C16.5009 14.416 17.0323 14.2519 18.0051 14.2089C19.06 14.162 19.3765 14.1503 22.0449 14.1503C24.7174 14.1503 25.0337 14.162 26.0848 14.2089C27.0616 14.2519 27.589 14.416 27.9406 14.5527C28.3742 14.7128 28.7689 14.9668 29.0892 15.2989C29.4213 15.6232 29.6753 16.0139 29.8355 16.4476C29.9723 16.7992 30.1364 17.3305 30.1794 18.3034C30.2262 19.3583 30.238 19.6747 30.238 22.3432C30.238 25.0118 30.2262 25.3243 30.1794 26.3792Z" fill="url(#paint1_linear_108_153)"/>
<path d="M22.0371 17.1978C19.2007 17.1978 16.8994 19.4989 16.8994 22.3355C16.8994 25.172 19.2007 27.4732 22.0371 27.4732C24.8737 27.4732 27.1749 25.172 27.1749 22.3355C27.1749 19.4989 24.8737 17.1978 22.0371 17.1978ZM22.0371 25.6682C20.197 25.6682 18.7044 24.1757 18.7044 22.3355C18.7044 20.4952 20.197 19.0028 22.0371 19.0028C23.8774 19.0028 25.3698 20.4952 25.3698 22.3355C25.3698 24.1757 23.8774 25.6682 22.0371 25.6682V25.6682Z" fill="url(#paint2_linear_108_153)"/>
<path d="M28.5777 16.9946C28.5777 17.657 28.0407 18.194 27.3781 18.194C26.7158 18.194 26.1787 17.657 26.1787 16.9946C26.1787 16.3321 26.7158 15.7952 27.3781 15.7952C28.0407 15.7952 28.5777 16.3321 28.5777 16.9946V16.9946Z" fill="url(#paint3_linear_108_153)"/>
</g>
<defs>
<linearGradient id="paint0_linear_108_153" x1="3.6924" y1="40.641" x2="40.3079" y2="4.02585" gradientUnits="userSpaceOnUse">
<stop stop-color="#FFD600"/>
<stop offset="0.5" stop-color="#FF0100"/>
<stop offset="1" stop-color="#D800B9"/>
</linearGradient>
<linearGradient id="paint1_linear_108_153" x1="13.7132" y1="30.655" x2="30.3565" y2="14.015" gradientUnits="userSpaceOnUse">
<stop stop-color="#FFD600"/>
<stop offset="0.5" stop-color="#FF0100"/>
<stop offset="1" stop-color="#D800B9"/>
</linearGradient>
<linearGradient id="paint2_linear_108_153" x1="17.7617" y1="26.6109" x2="26.3126" y2="18.06" gradientUnits="userSpaceOnUse">
<stop stop-color="#FFD600"/>
<stop offset="0.5" stop-color="#FF0100"/>
<stop offset="1" stop-color="#D800B9"/>
</linearGradient>
<linearGradient id="paint3_linear_108_153" x1="26.38" y1="17.9927" x2="28.3763" y2="15.9963" gradientUnits="userSpaceOnUse">
<stop stop-color="#FFD600"/>
<stop offset="0.5" stop-color="#FF0100"/>
<stop offset="1" stop-color="#D800B9"/>
</linearGradient>
<clipPath id="clip0_108_153">
<rect width="20" height="20" fill="white" transform="translate(12 12.3335)"/>
</clipPath>
</defs>
</svg>
