<svg width="766" height="445" viewBox="0 0 766 445" fill="none" xmlns="http://www.w3.org/2000/svg">
<g filter="url(#filter0_d_110_26)">
<path d="M179.082 402.829C118.632 402.829 111.681 403.029 20.8099 403.474L14.7598 405.598C24.4039 408.346 53.3446 416.097 63.4819 416.097H702.907C708.739 416.097 720.547 413.579 731.077 411.008C742.046 408.33 751.631 405.598 751.631 405.598L745.58 403.474C374.446 403.065 244.977 402.829 179.082 402.829Z" fill="black"/>
</g>
<path d="M179.082 402.829C118.632 402.829 111.681 403.029 20.8099 403.474L14.7598 405.598C24.4039 408.346 53.3446 416.097 63.4819 416.097H702.907C708.739 416.097 720.547 413.579 731.077 411.008C742.046 408.33 751.631 405.598 751.631 405.598L745.58 403.474C374.446 403.065 244.977 402.829 179.082 402.829Z" fill="#F3F3F3"/>
<path fill-rule="evenodd" clip-rule="evenodd" d="M663.193 0H102.867C93.4782 0 85.8674 7.63563 85.8674 17.0518V393.077C85.8674 395.742 86.4763 398.262 87.5615 400.508H329.88H436.179H678.497C679.583 398.262 680.195 395.742 680.195 393.077V17.0518C680.195 7.63563 672.582 0 663.193 0Z" fill="#F3F3F3"/>
<path fill-rule="evenodd" clip-rule="evenodd" d="M657.148 7.18018H109.387C100.208 7.18018 92.7683 14.6727 92.7683 23.9123V392.889C92.7683 395.503 93.3635 397.976 94.4244 400.18H331.309H435.224H672.109C673.17 397.976 673.768 395.503 673.768 392.889V23.9123C673.768 14.6727 666.327 7.18018 657.148 7.18018Z" fill="white"/>
<path d="M179.082 402.829C118.632 402.829 111.681 403.029 20.8099 403.474L14.7598 405.598C24.4039 408.346 53.3446 416.097 63.4819 416.097H702.907C708.739 416.097 720.547 413.579 731.077 411.008C742.046 408.33 751.631 405.598 751.631 405.598L745.58 403.474C374.446 403.065 244.977 402.829 179.082 402.829Z" fill="#F3F3F3"/>
<path d="M179.082 402.829C118.632 402.829 111.681 403.029 20.8099 403.474L14.7598 405.598C24.4039 408.346 53.3446 416.097 63.4819 416.097H702.907C708.739 416.097 720.547 413.579 731.077 411.008C742.046 408.33 751.631 405.598 751.631 405.598L745.58 403.474C374.446 403.065 244.977 402.829 179.082 402.829Z" fill="url(#paint0_linear_110_26)"/>
<path fill-rule="evenodd" clip-rule="evenodd" d="M750.393 400.176H16.1311C14.9529 400.176 14 401.132 14 402.314V403.679C14 404.861 14.9529 405.816 16.1311 405.816H750.393C751.572 405.816 752.524 404.861 752.524 403.679V402.314C752.524 401.132 751.572 400.176 750.393 400.176Z" fill="white"/>
<mask id="mask0_110_26" style="mask-type:alpha" maskUnits="userSpaceOnUse" x="139" y="9" width="504" height="392">
<rect x="139.768" y="9.18018" width="503" height="391" fill="#D9D9D9"/>
</mask>
<g mask="url(#mask0_110_26)">
<rect opacity="0.05" x="168.768" y="11.1802" width="457.191" height="608" rx="21" fill="url(#paint1_linear_110_26)"/>
<rect x="202.105" y="81.0287" width="389.723" height="267.488" rx="10" fill="white" stroke="#979797"/>
<g filter="url(#filter1_d_110_26)">
<path fill-rule="evenodd" clip-rule="evenodd" d="M215.202 58.0105C220.243 58.0105 224.33 53.9237 224.33 48.8825C224.33 43.8413 220.243 39.7546 215.202 39.7546C210.16 39.7546 206.074 43.8413 206.074 48.8825C206.074 53.9237 210.16 58.0105 215.202 58.0105Z" fill="#9F06FF"/>
</g>
<g filter="url(#filter2_d_110_26)">
<path fill-rule="evenodd" clip-rule="evenodd" d="M215.202 394.554C220.243 394.554 224.33 390.467 224.33 385.426C224.33 380.384 220.243 376.298 215.202 376.298C210.16 376.298 206.074 380.384 206.074 385.426C206.074 390.467 210.16 394.554 215.202 394.554Z" fill="#9F06FF"/>
</g>
<path d="M247.648 56.4202C245.662 56.4202 244.108 55.8668 242.988 54.7602C241.868 53.6535 241.308 52.0735 241.308 50.0202V42.1802H244.548V49.9002C244.548 51.2335 244.822 52.1935 245.368 52.7802C245.915 53.3668 246.682 53.6602 247.668 53.6602C248.655 53.6602 249.422 53.3668 249.968 52.7802C250.515 52.1935 250.788 51.2335 250.788 49.9002V42.1802H253.988V50.0202C253.988 52.0735 253.428 53.6535 252.308 54.7602C251.188 55.8668 249.635 56.4202 247.648 56.4202ZM263.33 56.3402C262.423 56.3402 261.63 56.1402 260.95 55.7402C260.27 55.3402 259.737 54.7335 259.35 53.9202C258.977 53.0935 258.79 52.0535 258.79 50.8002C258.79 49.5335 258.97 48.4935 259.33 47.6802C259.69 46.8668 260.21 46.2602 260.89 45.8602C261.57 45.4602 262.383 45.2602 263.33 45.2602C264.343 45.2602 265.25 45.4935 266.05 45.9602C266.863 46.4135 267.503 47.0535 267.97 47.8802C268.45 48.7068 268.69 49.6802 268.69 50.8002C268.69 51.9335 268.45 52.9135 267.97 53.7402C267.503 54.5668 266.863 55.2068 266.05 55.6602C265.25 56.1135 264.343 56.3402 263.33 56.3402ZM256.97 60.0602V45.4202H259.95V47.6202L259.89 50.8202L260.09 54.0002V60.0602H256.97ZM262.79 53.7802C263.31 53.7802 263.77 53.6602 264.17 53.4202C264.583 53.1802 264.91 52.8402 265.15 52.4002C265.403 51.9468 265.53 51.4135 265.53 50.8002C265.53 50.1735 265.403 49.6402 265.15 49.2002C264.91 48.7602 264.583 48.4202 264.17 48.1802C263.77 47.9402 263.31 47.8202 262.79 47.8202C262.27 47.8202 261.803 47.9402 261.39 48.1802C260.977 48.4202 260.65 48.7602 260.41 49.2002C260.17 49.6402 260.05 50.1735 260.05 50.8002C260.05 51.4135 260.17 51.9468 260.41 52.4002C260.65 52.8402 260.977 53.1802 261.39 53.4202C261.803 53.6602 262.27 53.7802 262.79 53.7802ZM270.779 56.1802V41.3402H273.899V56.1802H270.779ZM281.914 56.3402C280.768 56.3402 279.748 56.1002 278.854 55.6202C277.974 55.1402 277.274 54.4868 276.754 53.6602C276.248 52.8202 275.994 51.8668 275.994 50.8002C275.994 49.7202 276.248 48.7668 276.754 47.9402C277.274 47.1002 277.974 46.4468 278.854 45.9802C279.748 45.5002 280.768 45.2602 281.914 45.2602C283.048 45.2602 284.061 45.5002 284.954 45.9802C285.848 46.4468 286.548 47.0935 287.054 47.9202C287.561 48.7468 287.814 49.7068 287.814 50.8002C287.814 51.8668 287.561 52.8202 287.054 53.6602C286.548 54.4868 285.848 55.1402 284.954 55.6202C284.061 56.1002 283.048 56.3402 281.914 56.3402ZM281.914 53.7802C282.434 53.7802 282.901 53.6602 283.314 53.4202C283.728 53.1802 284.054 52.8402 284.294 52.4002C284.534 51.9468 284.654 51.4135 284.654 50.8002C284.654 50.1735 284.534 49.6402 284.294 49.2002C284.054 48.7602 283.728 48.4202 283.314 48.1802C282.901 47.9402 282.434 47.8202 281.914 47.8202C281.394 47.8202 280.928 47.9402 280.514 48.1802C280.101 48.4202 279.768 48.7602 279.514 49.2002C279.274 49.6402 279.154 50.1735 279.154 50.8002C279.154 51.4135 279.274 51.9468 279.514 52.4002C279.768 52.8402 280.101 53.1802 280.514 53.4202C280.928 53.6602 281.394 53.7802 281.914 53.7802ZM296.324 56.1802V54.0802L296.124 53.6202V49.8602C296.124 49.1935 295.917 48.6735 295.504 48.3002C295.104 47.9268 294.484 47.7402 293.644 47.7402C293.071 47.7402 292.504 47.8335 291.944 48.0202C291.397 48.1935 290.931 48.4335 290.544 48.7402L289.424 46.5602C290.011 46.1468 290.717 45.8268 291.544 45.6002C292.371 45.3735 293.211 45.2602 294.064 45.2602C295.704 45.2602 296.977 45.6468 297.884 46.4202C298.791 47.1935 299.244 48.4002 299.244 50.0402V56.1802H296.324ZM293.044 56.3402C292.204 56.3402 291.484 56.2002 290.884 55.9202C290.284 55.6268 289.824 55.2335 289.504 54.7402C289.184 54.2468 289.024 53.6935 289.024 53.0802C289.024 52.4402 289.177 51.8802 289.484 51.4002C289.804 50.9202 290.304 50.5468 290.984 50.2802C291.664 50.0002 292.551 49.8602 293.644 49.8602H296.504V51.6802H293.984C293.251 51.6802 292.744 51.8002 292.464 52.0402C292.197 52.2802 292.064 52.5802 292.064 52.9402C292.064 53.3402 292.217 53.6602 292.524 53.9002C292.844 54.1268 293.277 54.2402 293.824 54.2402C294.344 54.2402 294.811 54.1202 295.224 53.8802C295.637 53.6268 295.937 53.2602 296.124 52.7802L296.604 54.2202C296.377 54.9135 295.964 55.4402 295.364 55.8002C294.764 56.1602 293.991 56.3402 293.044 56.3402ZM306.766 56.3402C305.752 56.3402 304.839 56.1135 304.026 55.6602C303.212 55.1935 302.566 54.5468 302.086 53.7202C301.619 52.8935 301.386 51.9202 301.386 50.8002C301.386 49.6668 301.619 48.6868 302.086 47.8602C302.566 47.0335 303.212 46.3935 304.026 45.9402C304.839 45.4868 305.752 45.2602 306.766 45.2602C307.672 45.2602 308.466 45.4602 309.146 45.8602C309.826 46.2602 310.352 46.8668 310.726 47.6802C311.099 48.4935 311.286 49.5335 311.286 50.8002C311.286 52.0535 311.106 53.0935 310.746 53.9202C310.386 54.7335 309.866 55.3402 309.186 55.7402C308.519 56.1402 307.712 56.3402 306.766 56.3402ZM307.306 53.7802C307.812 53.7802 308.272 53.6602 308.686 53.4202C309.099 53.1802 309.426 52.8402 309.666 52.4002C309.919 51.9468 310.046 51.4135 310.046 50.8002C310.046 50.1735 309.919 49.6402 309.666 49.2002C309.426 48.7602 309.099 48.4202 308.686 48.1802C308.272 47.9402 307.812 47.8202 307.306 47.8202C306.786 47.8202 306.319 47.9402 305.906 48.1802C305.492 48.4202 305.159 48.7602 304.906 49.2002C304.666 49.6402 304.546 50.1735 304.546 50.8002C304.546 51.4135 304.666 51.9468 304.906 52.4002C305.159 52.8402 305.492 53.1802 305.906 53.4202C306.319 53.6602 306.786 53.7802 307.306 53.7802ZM310.126 56.1802V53.9802L310.186 50.7802L309.986 47.6002V41.3402H313.106V56.1802H310.126ZM325.358 56.1802V50.4602L326.098 52.4202L319.938 42.1802H323.378L328.098 50.0402H326.118L330.858 42.1802H334.038L327.878 52.4202L328.598 50.4602V56.1802H325.358ZM339.102 56.3402C337.955 56.3402 336.935 56.1002 336.042 55.6202C335.162 55.1402 334.462 54.4868 333.942 53.6602C333.435 52.8202 333.182 51.8668 333.182 50.8002C333.182 49.7202 333.435 48.7668 333.942 47.9402C334.462 47.1002 335.162 46.4468 336.042 45.9802C336.935 45.5002 337.955 45.2602 339.102 45.2602C340.235 45.2602 341.248 45.5002 342.142 45.9802C343.035 46.4468 343.735 47.0935 344.242 47.9202C344.748 48.7468 345.002 49.7068 345.002 50.8002C345.002 51.8668 344.748 52.8202 344.242 53.6602C343.735 54.4868 343.035 55.1402 342.142 55.6202C341.248 56.1002 340.235 56.3402 339.102 56.3402ZM339.102 53.7802C339.622 53.7802 340.088 53.6602 340.502 53.4202C340.915 53.1802 341.242 52.8402 341.482 52.4002C341.722 51.9468 341.842 51.4135 341.842 50.8002C341.842 50.1735 341.722 49.6402 341.482 49.2002C341.242 48.7602 340.915 48.4202 340.502 48.1802C340.088 47.9402 339.622 47.8202 339.102 47.8202C338.582 47.8202 338.115 47.9402 337.702 48.1802C337.288 48.4202 336.955 48.7602 336.702 49.2002C336.462 49.6402 336.342 50.1735 336.342 50.8002C336.342 51.4135 336.462 51.9468 336.702 52.4002C336.955 52.8402 337.288 53.1802 337.702 53.4202C338.115 53.6602 338.582 53.7802 339.102 53.7802ZM351.627 56.3402C350.734 56.3402 349.934 56.1668 349.227 55.8202C348.534 55.4735 347.994 54.9468 347.607 54.2402C347.221 53.5202 347.027 52.6068 347.027 51.5002V45.4202H350.147V51.0402C350.147 51.9335 350.334 52.5935 350.707 53.0202C351.094 53.4335 351.634 53.6402 352.327 53.6402C352.807 53.6402 353.234 53.5402 353.607 53.3402C353.981 53.1268 354.274 52.8068 354.487 52.3802C354.701 51.9402 354.807 51.3935 354.807 50.7402V45.4202H357.927V56.1802H354.967V53.2202L355.507 54.0802C355.147 54.8268 354.614 55.3935 353.907 55.7802C353.214 56.1535 352.454 56.3402 351.627 56.3402ZM360.818 56.1802V45.4202H363.798V48.4602L363.378 47.5802C363.698 46.8202 364.211 46.2468 364.918 45.8602C365.624 45.4602 366.484 45.2602 367.498 45.2602V48.1402C367.364 48.1268 367.244 48.1202 367.138 48.1202C367.031 48.1068 366.918 48.1002 366.798 48.1002C365.944 48.1002 365.251 48.3468 364.718 48.8402C364.198 49.3202 363.938 50.0735 363.938 51.1002V56.1802H360.818ZM378.315 48.4802H385.035V51.0802H378.315V48.4802ZM378.555 56.1802H375.315V42.1802H385.895V44.7802H378.555V56.1802ZM387.868 56.1802V45.4202H390.988V56.1802H387.868ZM389.428 43.9202C388.855 43.9202 388.388 43.7535 388.028 43.4202C387.668 43.0868 387.488 42.6735 387.488 42.1802C387.488 41.6868 387.668 41.2735 388.028 40.9402C388.388 40.6068 388.855 40.4402 389.428 40.4402C390.002 40.4402 390.468 40.6002 390.828 40.9202C391.188 41.2268 391.368 41.6268 391.368 42.1202C391.368 42.6402 391.188 43.0735 390.828 43.4202C390.482 43.7535 390.015 43.9202 389.428 43.9202ZM393.884 56.1802V41.3402H397.004V56.1802H393.884ZM405.24 56.3402C404.013 56.3402 402.933 56.1002 402 55.6202C401.08 55.1402 400.366 54.4868 399.86 53.6602C399.353 52.8202 399.1 51.8668 399.1 50.8002C399.1 49.7202 399.346 48.7668 399.84 47.9402C400.346 47.1002 401.033 46.4468 401.9 45.9802C402.766 45.5002 403.746 45.2602 404.84 45.2602C405.893 45.2602 406.84 45.4868 407.68 45.9402C408.533 46.3802 409.206 47.0202 409.7 47.8602C410.193 48.6868 410.44 49.6802 410.44 50.8402C410.44 50.9602 410.433 51.1002 410.42 51.2602C410.406 51.4068 410.393 51.5468 410.38 51.6802H401.64V49.8602H408.74L407.54 50.4002C407.54 49.8402 407.426 49.3535 407.2 48.9402C406.973 48.5268 406.66 48.2068 406.26 47.9802C405.86 47.7402 405.393 47.6202 404.86 47.6202C404.326 47.6202 403.853 47.7402 403.44 47.9802C403.04 48.2068 402.726 48.5335 402.5 48.9602C402.273 49.3735 402.16 49.8668 402.16 50.4402V50.9202C402.16 51.5068 402.286 52.0268 402.54 52.4802C402.806 52.9202 403.173 53.2602 403.64 53.5002C404.12 53.7268 404.68 53.8402 405.32 53.8402C405.893 53.8402 406.393 53.7535 406.82 53.5802C407.26 53.4068 407.66 53.1468 408.02 52.8002L409.68 54.6002C409.186 55.1602 408.566 55.5935 407.82 55.9002C407.073 56.1935 406.213 56.3402 405.24 56.3402ZM416.137 56.3402C415.217 56.3402 414.33 56.2335 413.477 56.0202C412.637 55.7935 411.97 55.5135 411.477 55.1802L412.517 52.9402C413.01 53.2468 413.59 53.5002 414.257 53.7002C414.937 53.8868 415.604 53.9802 416.257 53.9802C416.977 53.9802 417.484 53.8935 417.777 53.7202C418.084 53.5468 418.237 53.3068 418.237 53.0002C418.237 52.7468 418.117 52.5602 417.877 52.4402C417.65 52.3068 417.344 52.2068 416.957 52.1402C416.57 52.0735 416.144 52.0068 415.677 51.9402C415.224 51.8735 414.764 51.7868 414.297 51.6802C413.83 51.5602 413.404 51.3868 413.017 51.1602C412.63 50.9335 412.317 50.6268 412.077 50.2402C411.85 49.8535 411.737 49.3535 411.737 48.7402C411.737 48.0602 411.93 47.4602 412.317 46.9402C412.717 46.4202 413.29 46.0135 414.037 45.7202C414.784 45.4135 415.677 45.2602 416.717 45.2602C417.45 45.2602 418.197 45.3402 418.957 45.5002C419.717 45.6602 420.35 45.8935 420.857 46.2002L419.817 48.4202C419.297 48.1135 418.77 47.9068 418.237 47.8002C417.717 47.6802 417.21 47.6202 416.717 47.6202C416.024 47.6202 415.517 47.7135 415.197 47.9002C414.877 48.0868 414.717 48.3268 414.717 48.6202C414.717 48.8868 414.83 49.0868 415.057 49.2202C415.297 49.3535 415.61 49.4602 415.997 49.5402C416.384 49.6202 416.804 49.6935 417.257 49.7602C417.724 49.8135 418.19 49.9002 418.657 50.0202C419.124 50.1402 419.544 50.3135 419.917 50.5402C420.304 50.7535 420.617 51.0535 420.857 51.4402C421.097 51.8135 421.217 52.3068 421.217 52.9202C421.217 53.5868 421.017 54.1802 420.617 54.7002C420.217 55.2068 419.637 55.6068 418.877 55.9002C418.13 56.1935 417.217 56.3402 416.137 56.3402Z" fill="#001A49"/>
<path d="M246.028 393.42C244.908 393.42 243.835 393.274 242.808 392.98C241.782 392.674 240.955 392.28 240.328 391.8L241.428 389.36C242.028 389.787 242.735 390.14 243.548 390.42C244.375 390.687 245.208 390.82 246.048 390.82C246.688 390.82 247.202 390.76 247.588 390.64C247.988 390.507 248.282 390.327 248.468 390.1C248.655 389.874 248.748 389.614 248.748 389.32C248.748 388.947 248.602 388.654 248.308 388.44C248.015 388.214 247.628 388.034 247.148 387.9C246.668 387.754 246.135 387.62 245.548 387.5C244.975 387.367 244.395 387.207 243.808 387.02C243.235 386.834 242.708 386.594 242.228 386.3C241.748 386.007 241.355 385.62 241.048 385.14C240.755 384.66 240.608 384.047 240.608 383.3C240.608 382.5 240.822 381.774 241.248 381.12C241.688 380.454 242.342 379.927 243.208 379.54C244.088 379.14 245.188 378.94 246.508 378.94C247.388 378.94 248.255 379.047 249.108 379.26C249.962 379.46 250.715 379.767 251.368 380.18L250.368 382.64C249.715 382.267 249.062 381.994 248.408 381.82C247.755 381.634 247.115 381.54 246.488 381.54C245.862 381.54 245.348 381.614 244.948 381.76C244.548 381.907 244.262 382.1 244.088 382.34C243.915 382.567 243.828 382.834 243.828 383.14C243.828 383.5 243.975 383.794 244.268 384.02C244.562 384.234 244.948 384.407 245.428 384.54C245.908 384.674 246.435 384.807 247.008 384.94C247.595 385.074 248.175 385.227 248.748 385.4C249.335 385.574 249.868 385.807 250.348 386.1C250.828 386.394 251.215 386.78 251.508 387.26C251.815 387.74 251.968 388.347 251.968 389.08C251.968 389.867 251.748 390.587 251.308 391.24C250.868 391.894 250.208 392.42 249.328 392.82C248.462 393.22 247.362 393.42 246.028 393.42ZM259.302 393.34C258.076 393.34 256.996 393.1 256.062 392.62C255.142 392.14 254.429 391.487 253.922 390.66C253.416 389.82 253.162 388.867 253.162 387.8C253.162 386.72 253.409 385.767 253.902 384.94C254.409 384.1 255.096 383.447 255.962 382.98C256.829 382.5 257.809 382.26 258.902 382.26C259.956 382.26 260.902 382.487 261.742 382.94C262.596 383.38 263.269 384.02 263.762 384.86C264.256 385.687 264.502 386.68 264.502 387.84C264.502 387.96 264.496 388.1 264.482 388.26C264.469 388.407 264.456 388.547 264.442 388.68H255.702V386.86H262.802L261.602 387.4C261.602 386.84 261.489 386.354 261.262 385.94C261.036 385.527 260.722 385.207 260.322 384.98C259.922 384.74 259.456 384.62 258.922 384.62C258.389 384.62 257.916 384.74 257.502 384.98C257.102 385.207 256.789 385.534 256.562 385.96C256.336 386.374 256.222 386.867 256.222 387.44V387.92C256.222 388.507 256.349 389.027 256.602 389.48C256.869 389.92 257.236 390.26 257.702 390.5C258.182 390.727 258.742 390.84 259.382 390.84C259.956 390.84 260.456 390.754 260.882 390.58C261.322 390.407 261.722 390.147 262.082 389.8L263.742 391.6C263.249 392.16 262.629 392.594 261.882 392.9C261.136 393.194 260.276 393.34 259.302 393.34ZM266.579 393.18V378.34H269.699V393.18H266.579ZM277.935 393.34C276.708 393.34 275.628 393.1 274.695 392.62C273.775 392.14 273.062 391.487 272.555 390.66C272.048 389.82 271.795 388.867 271.795 387.8C271.795 386.72 272.042 385.767 272.535 384.94C273.042 384.1 273.728 383.447 274.595 382.98C275.462 382.5 276.442 382.26 277.535 382.26C278.588 382.26 279.535 382.487 280.375 382.94C281.228 383.38 281.902 384.02 282.395 384.86C282.888 385.687 283.135 386.68 283.135 387.84C283.135 387.96 283.128 388.1 283.115 388.26C283.102 388.407 283.088 388.547 283.075 388.68H274.335V386.86H281.435L280.235 387.4C280.235 386.84 280.122 386.354 279.895 385.94C279.668 385.527 279.355 385.207 278.955 384.98C278.555 384.74 278.088 384.62 277.555 384.62C277.022 384.62 276.548 384.74 276.135 384.98C275.735 385.207 275.422 385.534 275.195 385.96C274.968 386.374 274.855 386.867 274.855 387.44V387.92C274.855 388.507 274.982 389.027 275.235 389.48C275.502 389.92 275.868 390.26 276.335 390.5C276.815 390.727 277.375 390.84 278.015 390.84C278.588 390.84 279.088 390.754 279.515 390.58C279.955 390.407 280.355 390.147 280.715 389.8L282.375 391.6C281.882 392.16 281.262 392.594 280.515 392.9C279.768 393.194 278.908 393.34 277.935 393.34ZM290.412 393.34C289.252 393.34 288.219 393.107 287.312 392.64C286.406 392.16 285.692 391.5 285.172 390.66C284.666 389.82 284.412 388.867 284.412 387.8C284.412 386.72 284.666 385.767 285.172 384.94C285.692 384.1 286.406 383.447 287.312 382.98C288.219 382.5 289.252 382.26 290.412 382.26C291.546 382.26 292.532 382.5 293.372 382.98C294.212 383.447 294.832 384.12 295.232 385L292.812 386.3C292.532 385.794 292.179 385.42 291.752 385.18C291.339 384.94 290.886 384.82 290.392 384.82C289.859 384.82 289.379 384.94 288.952 385.18C288.526 385.42 288.186 385.76 287.932 386.2C287.692 386.64 287.572 387.174 287.572 387.8C287.572 388.427 287.692 388.96 287.932 389.4C288.186 389.84 288.526 390.18 288.952 390.42C289.379 390.66 289.859 390.78 290.392 390.78C290.886 390.78 291.339 390.667 291.752 390.44C292.179 390.2 292.532 389.82 292.812 389.3L295.232 390.62C294.832 391.487 294.212 392.16 293.372 392.64C292.532 393.107 291.546 393.34 290.412 393.34ZM301.585 393.34C300.318 393.34 299.332 393.02 298.625 392.38C297.918 391.727 297.565 390.76 297.565 389.48V380.04H300.685V389.44C300.685 389.894 300.805 390.247 301.045 390.5C301.285 390.74 301.612 390.86 302.025 390.86C302.518 390.86 302.938 390.727 303.285 390.46L304.125 392.66C303.805 392.887 303.418 393.06 302.965 393.18C302.525 393.287 302.065 393.34 301.585 393.34ZM295.905 385.06V382.66H303.365V385.06H295.905ZM309.92 393.18L316.16 379.18H319.36L325.62 393.18H322.22L317.1 380.82H318.38L313.24 393.18H309.92ZM313.04 390.18L313.9 387.72H321.1L321.98 390.18H313.04ZM331.198 393.34C330.304 393.34 329.504 393.167 328.798 392.82C328.104 392.474 327.564 391.947 327.178 391.24C326.791 390.52 326.598 389.607 326.598 388.5V382.42H329.718V388.04C329.718 388.934 329.904 389.594 330.278 390.02C330.664 390.434 331.204 390.64 331.898 390.64C332.378 390.64 332.804 390.54 333.178 390.34C333.551 390.127 333.844 389.807 334.058 389.38C334.271 388.94 334.378 388.394 334.378 387.74V382.42H337.498V393.18H334.538V390.22L335.078 391.08C334.718 391.827 334.184 392.394 333.478 392.78C332.784 393.154 332.024 393.34 331.198 393.34ZM345.008 393.34C343.995 393.34 343.081 393.114 342.268 392.66C341.455 392.194 340.808 391.547 340.328 390.72C339.861 389.894 339.628 388.92 339.628 387.8C339.628 386.667 339.861 385.687 340.328 384.86C340.808 384.034 341.455 383.394 342.268 382.94C343.081 382.487 343.995 382.26 345.008 382.26C345.915 382.26 346.708 382.46 347.388 382.86C348.068 383.26 348.595 383.867 348.968 384.68C349.341 385.494 349.528 386.534 349.528 387.8C349.528 389.054 349.348 390.094 348.988 390.92C348.628 391.734 348.108 392.34 347.428 392.74C346.761 393.14 345.955 393.34 345.008 393.34ZM345.548 390.78C346.055 390.78 346.515 390.66 346.928 390.42C347.341 390.18 347.668 389.84 347.908 389.4C348.161 388.947 348.288 388.414 348.288 387.8C348.288 387.174 348.161 386.64 347.908 386.2C347.668 385.76 347.341 385.42 346.928 385.18C346.515 384.94 346.055 384.82 345.548 384.82C345.028 384.82 344.561 384.94 344.148 385.18C343.735 385.42 343.401 385.76 343.148 386.2C342.908 386.64 342.788 387.174 342.788 387.8C342.788 388.414 342.908 388.947 343.148 389.4C343.401 389.84 343.735 390.18 344.148 390.42C344.561 390.66 345.028 390.78 345.548 390.78ZM348.368 393.18V390.98L348.428 387.78L348.228 384.6V378.34H351.348V393.18H348.368ZM354.236 393.18V382.42H357.356V393.18H354.236ZM355.796 380.92C355.222 380.92 354.756 380.754 354.396 380.42C354.036 380.087 353.856 379.674 353.856 379.18C353.856 378.687 354.036 378.274 354.396 377.94C354.756 377.607 355.222 377.44 355.796 377.44C356.369 377.44 356.836 377.6 357.196 377.92C357.556 378.227 357.736 378.627 357.736 379.12C357.736 379.64 357.556 380.074 357.196 380.42C356.849 380.754 356.382 380.92 355.796 380.92ZM365.371 393.34C364.225 393.34 363.205 393.1 362.311 392.62C361.431 392.14 360.731 391.487 360.211 390.66C359.705 389.82 359.451 388.867 359.451 387.8C359.451 386.72 359.705 385.767 360.211 384.94C360.731 384.1 361.431 383.447 362.311 382.98C363.205 382.5 364.225 382.26 365.371 382.26C366.505 382.26 367.518 382.5 368.411 382.98C369.305 383.447 370.005 384.094 370.511 384.92C371.018 385.747 371.271 386.707 371.271 387.8C371.271 388.867 371.018 389.82 370.511 390.66C370.005 391.487 369.305 392.14 368.411 392.62C367.518 393.1 366.505 393.34 365.371 393.34ZM365.371 390.78C365.891 390.78 366.358 390.66 366.771 390.42C367.185 390.18 367.511 389.84 367.751 389.4C367.991 388.947 368.111 388.414 368.111 387.8C368.111 387.174 367.991 386.64 367.751 386.2C367.511 385.76 367.185 385.42 366.771 385.18C366.358 384.94 365.891 384.82 365.371 384.82C364.851 384.82 364.385 384.94 363.971 385.18C363.558 385.42 363.225 385.76 362.971 386.2C362.731 386.64 362.611 387.174 362.611 387.8C362.611 388.414 362.731 388.947 362.971 389.4C363.225 389.84 363.558 390.18 363.971 390.42C364.385 390.66 364.851 390.78 365.371 390.78ZM379.241 393.18V379.18H382.481V390.54H389.501V393.18H379.241ZM397.769 393.18V391.08L397.569 390.62V386.86C397.569 386.194 397.363 385.674 396.949 385.3C396.549 384.927 395.929 384.74 395.089 384.74C394.516 384.74 393.949 384.834 393.389 385.02C392.843 385.194 392.376 385.434 391.989 385.74L390.869 383.56C391.456 383.147 392.163 382.827 392.989 382.6C393.816 382.374 394.656 382.26 395.509 382.26C397.149 382.26 398.423 382.647 399.329 383.42C400.236 384.194 400.689 385.4 400.689 387.04V393.18H397.769ZM394.489 393.34C393.649 393.34 392.929 393.2 392.329 392.92C391.729 392.627 391.269 392.234 390.949 391.74C390.629 391.247 390.469 390.694 390.469 390.08C390.469 389.44 390.623 388.88 390.929 388.4C391.249 387.92 391.749 387.547 392.429 387.28C393.109 387 393.996 386.86 395.089 386.86H397.949V388.68H395.429C394.696 388.68 394.189 388.8 393.909 389.04C393.643 389.28 393.509 389.58 393.509 389.94C393.509 390.34 393.663 390.66 393.969 390.9C394.289 391.127 394.723 391.24 395.269 391.24C395.789 391.24 396.256 391.12 396.669 390.88C397.083 390.627 397.383 390.26 397.569 389.78L398.049 391.22C397.823 391.914 397.409 392.44 396.809 392.8C396.209 393.16 395.436 393.34 394.489 393.34ZM410.053 382.26C410.906 382.26 411.666 382.434 412.333 382.78C413.013 383.114 413.546 383.634 413.933 384.34C414.32 385.034 414.513 385.927 414.513 387.02V393.18H411.393V387.5C411.393 386.634 411.2 385.994 410.813 385.58C410.44 385.167 409.906 384.96 409.213 384.96C408.72 384.96 408.273 385.067 407.873 385.28C407.486 385.48 407.18 385.794 406.953 386.22C406.74 386.647 406.633 387.194 406.633 387.86V393.18H403.513V382.42H406.493V385.4L405.933 384.5C406.32 383.78 406.873 383.227 407.593 382.84C408.313 382.454 409.133 382.26 410.053 382.26ZM422.479 397.22C421.466 397.22 420.486 397.094 419.539 396.84C418.606 396.6 417.826 396.234 417.199 395.74L418.439 393.5C418.893 393.874 419.466 394.167 420.159 394.38C420.866 394.607 421.559 394.72 422.239 394.72C423.346 394.72 424.146 394.474 424.639 393.98C425.146 393.487 425.399 392.754 425.399 391.78V390.16L425.599 387.46L425.559 384.74V382.42H428.519V391.38C428.519 393.38 427.999 394.854 426.959 395.8C425.919 396.747 424.426 397.22 422.479 397.22ZM421.999 392.66C420.999 392.66 420.093 392.447 419.279 392.02C418.479 391.58 417.833 390.974 417.339 390.2C416.859 389.414 416.619 388.5 416.619 387.46C416.619 386.407 416.859 385.494 417.339 384.72C417.833 383.934 418.479 383.327 419.279 382.9C420.093 382.474 420.999 382.26 421.999 382.26C422.906 382.26 423.706 382.447 424.399 382.82C425.093 383.18 425.633 383.747 426.019 384.52C426.406 385.28 426.599 386.26 426.599 387.46C426.599 388.647 426.406 389.627 426.019 390.4C425.633 391.16 425.093 391.727 424.399 392.1C423.706 392.474 422.906 392.66 421.999 392.66ZM422.619 390.1C423.166 390.1 423.653 389.994 424.079 389.78C424.506 389.554 424.839 389.24 425.079 388.84C425.319 388.44 425.439 387.98 425.439 387.46C425.439 386.927 425.319 386.467 425.079 386.08C424.839 385.68 424.506 385.374 424.079 385.16C423.653 384.934 423.166 384.82 422.619 384.82C422.073 384.82 421.586 384.934 421.159 385.16C420.733 385.374 420.393 385.68 420.139 386.08C419.899 386.467 419.779 386.927 419.779 387.46C419.779 387.98 419.899 388.44 420.139 388.84C420.393 389.24 420.733 389.554 421.159 389.78C421.586 389.994 422.073 390.1 422.619 390.1ZM435.963 393.34C435.07 393.34 434.27 393.167 433.563 392.82C432.87 392.474 432.33 391.947 431.943 391.24C431.556 390.52 431.363 389.607 431.363 388.5V382.42H434.483V388.04C434.483 388.934 434.67 389.594 435.043 390.02C435.43 390.434 435.97 390.64 436.663 390.64C437.143 390.64 437.57 390.54 437.943 390.34C438.316 390.127 438.61 389.807 438.823 389.38C439.036 388.94 439.143 388.394 439.143 387.74V382.42H442.263V393.18H439.303V390.22L439.843 391.08C439.483 391.827 438.95 392.394 438.243 392.78C437.55 393.154 436.79 393.34 435.963 393.34ZM451.754 393.18V391.08L451.554 390.62V386.86C451.554 386.194 451.347 385.674 450.934 385.3C450.534 384.927 449.914 384.74 449.074 384.74C448.5 384.74 447.934 384.834 447.374 385.02C446.827 385.194 446.36 385.434 445.974 385.74L444.854 383.56C445.44 383.147 446.147 382.827 446.974 382.6C447.8 382.374 448.64 382.26 449.494 382.26C451.134 382.26 452.407 382.647 453.314 383.42C454.22 384.194 454.674 385.4 454.674 387.04V393.18H451.754ZM448.474 393.34C447.634 393.34 446.914 393.2 446.314 392.92C445.714 392.627 445.254 392.234 444.934 391.74C444.614 391.247 444.454 390.694 444.454 390.08C444.454 389.44 444.607 388.88 444.914 388.4C445.234 387.92 445.734 387.547 446.414 387.28C447.094 387 447.98 386.86 449.074 386.86H451.934V388.68H449.414C448.68 388.68 448.174 388.8 447.894 389.04C447.627 389.28 447.494 389.58 447.494 389.94C447.494 390.34 447.647 390.66 447.954 390.9C448.274 391.127 448.707 391.24 449.254 391.24C449.774 391.24 450.24 391.12 450.654 390.88C451.067 390.627 451.367 390.26 451.554 389.78L452.034 391.22C451.807 391.914 451.394 392.44 450.794 392.8C450.194 393.16 449.42 393.34 448.474 393.34ZM462.635 397.22C461.622 397.22 460.642 397.094 459.695 396.84C458.762 396.6 457.982 396.234 457.355 395.74L458.595 393.5C459.049 393.874 459.622 394.167 460.315 394.38C461.022 394.607 461.715 394.72 462.395 394.72C463.502 394.72 464.302 394.474 464.795 393.98C465.302 393.487 465.555 392.754 465.555 391.78V390.16L465.755 387.46L465.715 384.74V382.42H468.675V391.38C468.675 393.38 468.155 394.854 467.115 395.8C466.075 396.747 464.582 397.22 462.635 397.22ZM462.155 392.66C461.155 392.66 460.249 392.447 459.435 392.02C458.635 391.58 457.989 390.974 457.495 390.2C457.015 389.414 456.775 388.5 456.775 387.46C456.775 386.407 457.015 385.494 457.495 384.72C457.989 383.934 458.635 383.327 459.435 382.9C460.249 382.474 461.155 382.26 462.155 382.26C463.062 382.26 463.862 382.447 464.555 382.82C465.249 383.18 465.789 383.747 466.175 384.52C466.562 385.28 466.755 386.26 466.755 387.46C466.755 388.647 466.562 389.627 466.175 390.4C465.789 391.16 465.249 391.727 464.555 392.1C463.862 392.474 463.062 392.66 462.155 392.66ZM462.775 390.1C463.322 390.1 463.809 389.994 464.235 389.78C464.662 389.554 464.995 389.24 465.235 388.84C465.475 388.44 465.595 387.98 465.595 387.46C465.595 386.927 465.475 386.467 465.235 386.08C464.995 385.68 464.662 385.374 464.235 385.16C463.809 384.934 463.322 384.82 462.775 384.82C462.229 384.82 461.742 384.934 461.315 385.16C460.889 385.374 460.549 385.68 460.295 386.08C460.055 386.467 459.935 386.927 459.935 387.46C459.935 387.98 460.055 388.44 460.295 388.84C460.549 389.24 460.889 389.554 461.315 389.78C461.742 389.994 462.229 390.1 462.775 390.1ZM476.919 393.34C475.693 393.34 474.613 393.1 473.679 392.62C472.759 392.14 472.046 391.487 471.539 390.66C471.033 389.82 470.779 388.867 470.779 387.8C470.779 386.72 471.026 385.767 471.519 384.94C472.026 384.1 472.713 383.447 473.579 382.98C474.446 382.5 475.426 382.26 476.519 382.26C477.573 382.26 478.519 382.487 479.359 382.94C480.213 383.38 480.886 384.02 481.379 384.86C481.873 385.687 482.119 386.68 482.119 387.84C482.119 387.96 482.113 388.1 482.099 388.26C482.086 388.407 482.073 388.547 482.059 388.68H473.319V386.86H480.419L479.219 387.4C479.219 386.84 479.106 386.354 478.879 385.94C478.653 385.527 478.339 385.207 477.939 384.98C477.539 384.74 477.073 384.62 476.539 384.62C476.006 384.62 475.533 384.74 475.119 384.98C474.719 385.207 474.406 385.534 474.179 385.96C473.953 386.374 473.839 386.867 473.839 387.44V387.92C473.839 388.507 473.966 389.027 474.219 389.48C474.486 389.92 474.853 390.26 475.319 390.5C475.799 390.727 476.359 390.84 476.999 390.84C477.573 390.84 478.073 390.754 478.499 390.58C478.939 390.407 479.339 390.147 479.699 389.8L481.359 391.6C480.866 392.16 480.246 392.594 479.499 392.9C478.753 393.194 477.893 393.34 476.919 393.34Z" fill="#001A49"/>
<path d="M231.428 125.18V111.18H237.788C239.308 111.18 240.648 111.474 241.808 112.06C242.968 112.634 243.875 113.44 244.528 114.48C245.182 115.52 245.508 116.754 245.508 118.18C245.508 119.594 245.182 120.827 244.528 121.88C243.875 122.92 242.968 123.734 241.808 124.32C240.648 124.894 239.308 125.18 237.788 125.18H231.428ZM234.668 122.52H237.628C238.562 122.52 239.368 122.347 240.048 122C240.742 121.64 241.275 121.134 241.648 120.48C242.035 119.827 242.228 119.06 242.228 118.18C242.228 117.287 242.035 116.52 241.648 115.88C241.275 115.227 240.742 114.727 240.048 114.38C239.368 114.02 238.562 113.84 237.628 113.84H234.668V122.52ZM247.732 125.18V114.42H250.712V117.46L250.292 116.58C250.612 115.82 251.125 115.247 251.832 114.86C252.538 114.46 253.398 114.26 254.412 114.26V117.14C254.278 117.127 254.158 117.12 254.052 117.12C253.945 117.107 253.832 117.1 253.712 117.1C252.858 117.1 252.165 117.347 251.632 117.84C251.112 118.32 250.852 119.074 250.852 120.1V125.18H247.732ZM261.309 125.34C260.162 125.34 259.142 125.1 258.249 124.62C257.369 124.14 256.669 123.487 256.149 122.66C255.642 121.82 255.389 120.867 255.389 119.8C255.389 118.72 255.642 117.767 256.149 116.94C256.669 116.1 257.369 115.447 258.249 114.98C259.142 114.5 260.162 114.26 261.309 114.26C262.442 114.26 263.455 114.5 264.349 114.98C265.242 115.447 265.942 116.094 266.449 116.92C266.955 117.747 267.209 118.707 267.209 119.8C267.209 120.867 266.955 121.82 266.449 122.66C265.942 123.487 265.242 124.14 264.349 124.62C263.455 125.1 262.442 125.34 261.309 125.34ZM261.309 122.78C261.829 122.78 262.295 122.66 262.709 122.42C263.122 122.18 263.449 121.84 263.689 121.4C263.929 120.947 264.049 120.414 264.049 119.8C264.049 119.174 263.929 118.64 263.689 118.2C263.449 117.76 263.122 117.42 262.709 117.18C262.295 116.94 261.829 116.82 261.309 116.82C260.789 116.82 260.322 116.94 259.909 117.18C259.495 117.42 259.162 117.76 258.909 118.2C258.669 118.64 258.549 119.174 258.549 119.8C258.549 120.414 258.669 120.947 258.909 121.4C259.162 121.84 259.495 122.18 259.909 122.42C260.322 122.66 260.789 122.78 261.309 122.78ZM275.654 125.34C274.748 125.34 273.954 125.14 273.274 124.74C272.594 124.34 272.061 123.734 271.674 122.92C271.301 122.094 271.114 121.054 271.114 119.8C271.114 118.534 271.294 117.494 271.654 116.68C272.014 115.867 272.534 115.26 273.214 114.86C273.894 114.46 274.708 114.26 275.654 114.26C276.668 114.26 277.574 114.494 278.374 114.96C279.188 115.414 279.828 116.054 280.294 116.88C280.774 117.707 281.014 118.68 281.014 119.8C281.014 120.934 280.774 121.914 280.294 122.74C279.828 123.567 279.188 124.207 278.374 124.66C277.574 125.114 276.668 125.34 275.654 125.34ZM269.294 129.06V114.42H272.274V116.62L272.214 119.82L272.414 123V129.06H269.294ZM275.114 122.78C275.634 122.78 276.094 122.66 276.494 122.42C276.908 122.18 277.234 121.84 277.474 121.4C277.728 120.947 277.854 120.414 277.854 119.8C277.854 119.174 277.728 118.64 277.474 118.2C277.234 117.76 276.908 117.42 276.494 117.18C276.094 116.94 275.634 116.82 275.114 116.82C274.594 116.82 274.128 116.94 273.714 117.18C273.301 117.42 272.974 117.76 272.734 118.2C272.494 118.64 272.374 119.174 272.374 119.8C272.374 120.414 272.494 120.947 272.734 121.4C272.974 121.84 273.301 122.18 273.714 122.42C274.128 122.66 274.594 122.78 275.114 122.78ZM289.147 125.18V114.18C289.147 112.967 289.507 112 290.227 111.28C290.947 110.547 291.974 110.18 293.307 110.18C293.76 110.18 294.194 110.227 294.607 110.32C295.034 110.414 295.394 110.56 295.687 110.76L294.867 113.02C294.694 112.9 294.5 112.807 294.287 112.74C294.074 112.674 293.847 112.64 293.607 112.64C293.154 112.64 292.8 112.774 292.547 113.04C292.307 113.294 292.187 113.68 292.187 114.2V115.2L292.267 116.54V125.18H289.147ZM287.487 117.06V114.66H294.947V117.06H287.487ZM296.707 125.18V114.42H299.827V125.18H296.707ZM298.267 112.92C297.694 112.92 297.227 112.754 296.867 112.42C296.507 112.087 296.327 111.674 296.327 111.18C296.327 110.687 296.507 110.274 296.867 109.94C297.227 109.607 297.694 109.44 298.267 109.44C298.84 109.44 299.307 109.6 299.667 109.92C300.027 110.227 300.207 110.627 300.207 111.12C300.207 111.64 300.027 112.074 299.667 112.42C299.32 112.754 298.854 112.92 298.267 112.92ZM302.712 125.18V110.34H305.832V125.18H302.712ZM314.068 125.34C312.841 125.34 311.761 125.1 310.828 124.62C309.908 124.14 309.195 123.487 308.688 122.66C308.181 121.82 307.928 120.867 307.928 119.8C307.928 118.72 308.175 117.767 308.668 116.94C309.175 116.1 309.861 115.447 310.728 114.98C311.595 114.5 312.575 114.26 313.668 114.26C314.721 114.26 315.668 114.487 316.508 114.94C317.361 115.38 318.035 116.02 318.528 116.86C319.021 117.687 319.268 118.68 319.268 119.84C319.268 119.96 319.261 120.1 319.248 120.26C319.235 120.407 319.221 120.547 319.208 120.68H310.468V118.86H317.568L316.368 119.4C316.368 118.84 316.255 118.354 316.028 117.94C315.801 117.527 315.488 117.207 315.088 116.98C314.688 116.74 314.221 116.62 313.688 116.62C313.155 116.62 312.681 116.74 312.268 116.98C311.868 117.207 311.555 117.534 311.328 117.96C311.101 118.374 310.988 118.867 310.988 119.44V119.92C310.988 120.507 311.115 121.027 311.368 121.48C311.635 121.92 312.001 122.26 312.468 122.5C312.948 122.727 313.508 122.84 314.148 122.84C314.721 122.84 315.221 122.754 315.648 122.58C316.088 122.407 316.488 122.147 316.848 121.8L318.508 123.6C318.015 124.16 317.395 124.594 316.648 124.9C315.901 125.194 315.041 125.34 314.068 125.34ZM324.965 125.34C324.045 125.34 323.158 125.234 322.305 125.02C321.465 124.794 320.798 124.514 320.305 124.18L321.345 121.94C321.838 122.247 322.418 122.5 323.085 122.7C323.765 122.887 324.432 122.98 325.085 122.98C325.805 122.98 326.312 122.894 326.605 122.72C326.912 122.547 327.065 122.307 327.065 122C327.065 121.747 326.945 121.56 326.705 121.44C326.478 121.307 326.172 121.207 325.785 121.14C325.398 121.074 324.972 121.007 324.505 120.94C324.052 120.874 323.592 120.787 323.125 120.68C322.658 120.56 322.232 120.387 321.845 120.16C321.458 119.934 321.145 119.627 320.905 119.24C320.678 118.854 320.565 118.354 320.565 117.74C320.565 117.06 320.758 116.46 321.145 115.94C321.545 115.42 322.118 115.014 322.865 114.72C323.612 114.414 324.505 114.26 325.545 114.26C326.278 114.26 327.025 114.34 327.785 114.5C328.545 114.66 329.178 114.894 329.685 115.2L328.645 117.42C328.125 117.114 327.598 116.907 327.065 116.8C326.545 116.68 326.038 116.62 325.545 116.62C324.852 116.62 324.345 116.714 324.025 116.9C323.705 117.087 323.545 117.327 323.545 117.62C323.545 117.887 323.658 118.087 323.885 118.22C324.125 118.354 324.438 118.46 324.825 118.54C325.212 118.62 325.632 118.694 326.085 118.76C326.552 118.814 327.018 118.9 327.485 119.02C327.952 119.14 328.372 119.314 328.745 119.54C329.132 119.754 329.445 120.054 329.685 120.44C329.925 120.814 330.045 121.307 330.045 121.92C330.045 122.587 329.845 123.18 329.445 123.7C329.045 124.207 328.465 124.607 327.705 124.9C326.958 125.194 326.045 125.34 324.965 125.34ZM344.174 114.26C345.027 114.26 345.787 114.434 346.454 114.78C347.134 115.114 347.667 115.634 348.054 116.34C348.441 117.034 348.634 117.927 348.634 119.02V125.18H345.514V119.5C345.514 118.634 345.321 117.994 344.934 117.58C344.561 117.167 344.027 116.96 343.334 116.96C342.841 116.96 342.394 117.067 341.994 117.28C341.607 117.48 341.301 117.794 341.074 118.22C340.861 118.647 340.754 119.194 340.754 119.86V125.18H337.634V110.34H340.754V117.4L340.054 116.5C340.441 115.78 340.994 115.227 341.714 114.84C342.434 114.454 343.254 114.26 344.174 114.26ZM356.88 125.34C355.654 125.34 354.574 125.1 353.64 124.62C352.72 124.14 352.007 123.487 351.5 122.66C350.994 121.82 350.74 120.867 350.74 119.8C350.74 118.72 350.987 117.767 351.48 116.94C351.987 116.1 352.674 115.447 353.54 114.98C354.407 114.5 355.387 114.26 356.48 114.26C357.534 114.26 358.48 114.487 359.32 114.94C360.174 115.38 360.847 116.02 361.34 116.86C361.834 117.687 362.08 118.68 362.08 119.84C362.08 119.96 362.074 120.1 362.06 120.26C362.047 120.407 362.034 120.547 362.02 120.68H353.28V118.86H360.38L359.18 119.4C359.18 118.84 359.067 118.354 358.84 117.94C358.614 117.527 358.3 117.207 357.9 116.98C357.5 116.74 357.034 116.62 356.5 116.62C355.967 116.62 355.494 116.74 355.08 116.98C354.68 117.207 354.367 117.534 354.14 117.96C353.914 118.374 353.8 118.867 353.8 119.44V119.92C353.8 120.507 353.927 121.027 354.18 121.48C354.447 121.92 354.814 122.26 355.28 122.5C355.76 122.727 356.32 122.84 356.96 122.84C357.534 122.84 358.034 122.754 358.46 122.58C358.9 122.407 359.3 122.147 359.66 121.8L361.32 123.6C360.827 124.16 360.207 124.594 359.46 124.9C358.714 125.194 357.854 125.34 356.88 125.34ZM364.158 125.18V114.42H367.138V117.46L366.718 116.58C367.038 115.82 367.551 115.247 368.258 114.86C368.964 114.46 369.824 114.26 370.838 114.26V117.14C370.704 117.127 370.584 117.12 370.478 117.12C370.371 117.107 370.258 117.1 370.138 117.1C369.284 117.1 368.591 117.347 368.058 117.84C367.538 118.32 367.278 119.074 367.278 120.1V125.18H364.158ZM377.955 125.34C376.728 125.34 375.648 125.1 374.715 124.62C373.795 124.14 373.081 123.487 372.575 122.66C372.068 121.82 371.815 120.867 371.815 119.8C371.815 118.72 372.061 117.767 372.555 116.94C373.061 116.1 373.748 115.447 374.615 114.98C375.481 114.5 376.461 114.26 377.555 114.26C378.608 114.26 379.555 114.487 380.395 114.94C381.248 115.38 381.921 116.02 382.415 116.86C382.908 117.687 383.155 118.68 383.155 119.84C383.155 119.96 383.148 120.1 383.135 120.26C383.121 120.407 383.108 120.547 383.095 120.68H374.355V118.86H381.455L380.255 119.4C380.255 118.84 380.141 118.354 379.915 117.94C379.688 117.527 379.375 117.207 378.975 116.98C378.575 116.74 378.108 116.62 377.575 116.62C377.041 116.62 376.568 116.74 376.155 116.98C375.755 117.207 375.441 117.534 375.215 117.96C374.988 118.374 374.875 118.867 374.875 119.44V119.92C374.875 120.507 375.001 121.027 375.255 121.48C375.521 121.92 375.888 122.26 376.355 122.5C376.835 122.727 377.395 122.84 378.035 122.84C378.608 122.84 379.108 122.754 379.535 122.58C379.975 122.407 380.375 122.147 380.735 121.8L382.395 123.6C381.901 124.16 381.281 124.594 380.535 124.9C379.788 125.194 378.928 125.34 377.955 125.34ZM384.692 128.26L386.012 123.46L386.452 125.26C385.878 125.26 385.405 125.094 385.032 124.76C384.672 124.427 384.492 123.967 384.492 123.38C384.492 122.794 384.678 122.327 385.052 121.98C385.425 121.634 385.885 121.46 386.432 121.46C386.992 121.46 387.452 121.64 387.812 122C388.172 122.347 388.352 122.807 388.352 123.38C388.352 123.554 388.338 123.727 388.312 123.9C388.285 124.06 388.232 124.26 388.152 124.5C388.085 124.727 387.972 125.02 387.812 125.38L386.672 128.26H384.692Z" fill="#001A49"/>
<path d="M402.49 125.34C401.544 125.34 400.73 125.14 400.05 124.74C399.37 124.34 398.85 123.734 398.49 122.92C398.13 122.094 397.95 121.054 397.95 119.8C397.95 118.534 398.137 117.494 398.51 116.68C398.897 115.867 399.43 115.26 400.11 114.86C400.79 114.46 401.584 114.26 402.49 114.26C403.504 114.26 404.41 114.487 405.21 114.94C406.024 115.394 406.664 116.034 407.13 116.86C407.61 117.687 407.85 118.667 407.85 119.8C407.85 120.92 407.61 121.894 407.13 122.72C406.664 123.547 406.024 124.194 405.21 124.66C404.41 125.114 403.504 125.34 402.49 125.34ZM396.13 125.18V110.34H399.25V116.6L399.05 119.78L399.11 122.98V125.18H396.13ZM401.95 122.78C402.47 122.78 402.93 122.66 403.33 122.42C403.744 122.18 404.07 121.84 404.31 121.4C404.564 120.947 404.69 120.414 404.69 119.8C404.69 119.174 404.564 118.64 404.31 118.2C404.07 117.76 403.744 117.42 403.33 117.18C402.93 116.94 402.47 116.82 401.95 116.82C401.43 116.82 400.964 116.94 400.55 117.18C400.137 117.42 399.81 117.76 399.57 118.2C399.33 118.64 399.21 119.174 399.21 119.8C399.21 120.414 399.33 120.947 399.57 121.4C399.81 121.84 400.137 122.18 400.55 122.42C400.964 122.66 401.43 122.78 401.95 122.78ZM409.939 125.18V114.42H412.919V117.46L412.499 116.58C412.819 115.82 413.332 115.247 414.039 114.86C414.745 114.46 415.605 114.26 416.619 114.26V117.14C416.485 117.127 416.365 117.12 416.259 117.12C416.152 117.107 416.039 117.1 415.919 117.1C415.065 117.1 414.372 117.347 413.839 117.84C413.319 118.32 413.059 119.074 413.059 120.1V125.18H409.939ZM423.516 125.34C422.369 125.34 421.349 125.1 420.456 124.62C419.576 124.14 418.876 123.487 418.356 122.66C417.849 121.82 417.596 120.867 417.596 119.8C417.596 118.72 417.849 117.767 418.356 116.94C418.876 116.1 419.576 115.447 420.456 114.98C421.349 114.5 422.369 114.26 423.516 114.26C424.649 114.26 425.662 114.5 426.556 114.98C427.449 115.447 428.149 116.094 428.656 116.92C429.162 117.747 429.416 118.707 429.416 119.8C429.416 120.867 429.162 121.82 428.656 122.66C428.149 123.487 427.449 124.14 426.556 124.62C425.662 125.1 424.649 125.34 423.516 125.34ZM423.516 122.78C424.036 122.78 424.502 122.66 424.916 122.42C425.329 122.18 425.656 121.84 425.896 121.4C426.136 120.947 426.256 120.414 426.256 119.8C426.256 119.174 426.136 118.64 425.896 118.2C425.656 117.76 425.329 117.42 424.916 117.18C424.502 116.94 424.036 116.82 423.516 116.82C422.996 116.82 422.529 116.94 422.116 117.18C421.702 117.42 421.369 117.76 421.116 118.2C420.876 118.64 420.756 119.174 420.756 119.8C420.756 120.414 420.876 120.947 421.116 121.4C421.369 121.84 421.702 122.18 422.116 122.42C422.529 122.66 422.996 122.78 423.516 122.78ZM433.668 125.18L429.788 114.42H432.728L435.948 123.68H434.548L437.908 114.42H440.548L443.808 123.68H442.408L445.728 114.42H448.488L444.588 125.18H441.568L438.708 117.24H439.628L436.668 125.18H433.668ZM453.403 125.34C452.483 125.34 451.596 125.234 450.743 125.02C449.903 124.794 449.236 124.514 448.743 124.18L449.783 121.94C450.276 122.247 450.856 122.5 451.523 122.7C452.203 122.887 452.869 122.98 453.523 122.98C454.243 122.98 454.749 122.894 455.043 122.72C455.349 122.547 455.503 122.307 455.503 122C455.503 121.747 455.383 121.56 455.143 121.44C454.916 121.307 454.609 121.207 454.223 121.14C453.836 121.074 453.409 121.007 452.943 120.94C452.489 120.874 452.029 120.787 451.563 120.68C451.096 120.56 450.669 120.387 450.283 120.16C449.896 119.934 449.583 119.627 449.343 119.24C449.116 118.854 449.003 118.354 449.003 117.74C449.003 117.06 449.196 116.46 449.583 115.94C449.983 115.42 450.556 115.014 451.303 114.72C452.049 114.414 452.943 114.26 453.983 114.26C454.716 114.26 455.463 114.34 456.223 114.5C456.983 114.66 457.616 114.894 458.123 115.2L457.083 117.42C456.563 117.114 456.036 116.907 455.503 116.8C454.983 116.68 454.476 116.62 453.983 116.62C453.289 116.62 452.783 116.714 452.463 116.9C452.143 117.087 451.983 117.327 451.983 117.62C451.983 117.887 452.096 118.087 452.323 118.22C452.563 118.354 452.876 118.46 453.263 118.54C453.649 118.62 454.069 118.694 454.523 118.76C454.989 118.814 455.456 118.9 455.923 119.02C456.389 119.14 456.809 119.314 457.183 119.54C457.569 119.754 457.883 120.054 458.123 120.44C458.363 120.814 458.483 121.307 458.483 121.92C458.483 122.587 458.283 123.18 457.883 123.7C457.483 124.207 456.903 124.607 456.143 124.9C455.396 125.194 454.483 125.34 453.403 125.34ZM465.748 125.34C464.521 125.34 463.441 125.1 462.508 124.62C461.588 124.14 460.874 123.487 460.368 122.66C459.861 121.82 459.608 120.867 459.608 119.8C459.608 118.72 459.854 117.767 460.348 116.94C460.854 116.1 461.541 115.447 462.408 114.98C463.274 114.5 464.254 114.26 465.348 114.26C466.401 114.26 467.348 114.487 468.188 114.94C469.041 115.38 469.714 116.02 470.208 116.86C470.701 117.687 470.948 118.68 470.948 119.84C470.948 119.96 470.941 120.1 470.928 120.26C470.914 120.407 470.901 120.547 470.888 120.68H462.148V118.86H469.248L468.048 119.4C468.048 118.84 467.934 118.354 467.708 117.94C467.481 117.527 467.168 117.207 466.768 116.98C466.368 116.74 465.901 116.62 465.368 116.62C464.834 116.62 464.361 116.74 463.948 116.98C463.548 117.207 463.234 117.534 463.008 117.96C462.781 118.374 462.668 118.867 462.668 119.44V119.92C462.668 120.507 462.794 121.027 463.048 121.48C463.314 121.92 463.681 122.26 464.148 122.5C464.628 122.727 465.188 122.84 465.828 122.84C466.401 122.84 466.901 122.754 467.328 122.58C467.768 122.407 468.168 122.147 468.528 121.8L470.188 123.6C469.694 124.16 469.074 124.594 468.328 124.9C467.581 125.194 466.721 125.34 465.748 125.34ZM479.069 125.18V114.18C479.069 112.967 479.429 112 480.149 111.28C480.869 110.547 481.895 110.18 483.229 110.18C483.682 110.18 484.115 110.227 484.529 110.32C484.955 110.414 485.315 110.56 485.609 110.76L484.789 113.02C484.615 112.9 484.422 112.807 484.209 112.74C483.995 112.674 483.769 112.64 483.529 112.64C483.075 112.64 482.722 112.774 482.469 113.04C482.229 113.294 482.109 113.68 482.109 114.2V115.2L482.189 116.54V125.18H479.069ZM477.409 117.06V114.66H484.869V117.06H477.409ZM486.629 125.18V114.42H489.749V125.18H486.629ZM488.189 112.92C487.615 112.92 487.149 112.754 486.789 112.42C486.429 112.087 486.249 111.674 486.249 111.18C486.249 110.687 486.429 110.274 486.789 109.94C487.149 109.607 487.615 109.44 488.189 109.44C488.762 109.44 489.229 109.6 489.589 109.92C489.949 110.227 490.129 110.627 490.129 111.12C490.129 111.64 489.949 112.074 489.589 112.42C489.242 112.754 488.775 112.92 488.189 112.92ZM492.634 125.18V110.34H495.754V125.18H492.634ZM503.99 125.34C502.763 125.34 501.683 125.1 500.75 124.62C499.83 124.14 499.116 123.487 498.61 122.66C498.103 121.82 497.85 120.867 497.85 119.8C497.85 118.72 498.096 117.767 498.59 116.94C499.096 116.1 499.783 115.447 500.65 114.98C501.516 114.5 502.496 114.26 503.59 114.26C504.643 114.26 505.59 114.487 506.43 114.94C507.283 115.38 507.956 116.02 508.45 116.86C508.943 117.687 509.19 118.68 509.19 119.84C509.19 119.96 509.183 120.1 509.17 120.26C509.156 120.407 509.143 120.547 509.13 120.68H500.39V118.86H507.49L506.29 119.4C506.29 118.84 506.176 118.354 505.95 117.94C505.723 117.527 505.41 117.207 505.01 116.98C504.61 116.74 504.143 116.62 503.61 116.62C503.076 116.62 502.603 116.74 502.19 116.98C501.79 117.207 501.476 117.534 501.25 117.96C501.023 118.374 500.91 118.867 500.91 119.44V119.92C500.91 120.507 501.036 121.027 501.29 121.48C501.556 121.92 501.923 122.26 502.39 122.5C502.87 122.727 503.43 122.84 504.07 122.84C504.643 122.84 505.143 122.754 505.57 122.58C506.01 122.407 506.41 122.147 506.77 121.8L508.43 123.6C507.936 124.16 507.316 124.594 506.57 124.9C505.823 125.194 504.963 125.34 503.99 125.34ZM514.887 125.34C513.967 125.34 513.08 125.234 512.227 125.02C511.387 124.794 510.72 124.514 510.227 124.18L511.267 121.94C511.76 122.247 512.34 122.5 513.007 122.7C513.687 122.887 514.354 122.98 515.007 122.98C515.727 122.98 516.234 122.894 516.527 122.72C516.834 122.547 516.987 122.307 516.987 122C516.987 121.747 516.867 121.56 516.627 121.44C516.4 121.307 516.094 121.207 515.707 121.14C515.32 121.074 514.894 121.007 514.427 120.94C513.974 120.874 513.514 120.787 513.047 120.68C512.58 120.56 512.154 120.387 511.767 120.16C511.38 119.934 511.067 119.627 510.827 119.24C510.6 118.854 510.487 118.354 510.487 117.74C510.487 117.06 510.68 116.46 511.067 115.94C511.467 115.42 512.04 115.014 512.787 114.72C513.534 114.414 514.427 114.26 515.467 114.26C516.2 114.26 516.947 114.34 517.707 114.5C518.467 114.66 519.1 114.894 519.607 115.2L518.567 117.42C518.047 117.114 517.52 116.907 516.987 116.8C516.467 116.68 515.96 116.62 515.467 116.62C514.774 116.62 514.267 116.714 513.947 116.9C513.627 117.087 513.467 117.327 513.467 117.62C513.467 117.887 513.58 118.087 513.807 118.22C514.047 118.354 514.36 118.46 514.747 118.54C515.134 118.62 515.554 118.694 516.007 118.76C516.474 118.814 516.94 118.9 517.407 119.02C517.874 119.14 518.294 119.314 518.667 119.54C519.054 119.754 519.367 120.054 519.607 120.44C519.847 120.814 519.967 121.307 519.967 121.92C519.967 122.587 519.767 123.18 519.367 123.7C518.967 124.207 518.387 124.607 517.627 124.9C516.88 125.194 515.967 125.34 514.887 125.34Z" fill="#9F06FF"/>
<path d="M263.93 166.18V156.38H265.806L269.978 163.296H268.984L273.086 156.38H274.948L274.976 166.18H272.848L272.834 159.642H273.226L269.95 165.144H268.928L265.582 159.642H266.058V166.18H263.93ZM278.099 169.008C277.707 169.008 277.32 168.948 276.937 168.826C276.555 168.705 276.242 168.537 275.999 168.322L276.797 166.768C276.965 166.918 277.157 167.034 277.371 167.118C277.595 167.202 277.815 167.244 278.029 167.244C278.337 167.244 278.58 167.17 278.757 167.02C278.944 166.88 279.112 166.642 279.261 166.306L279.653 165.382L279.821 165.144L282.523 158.648H284.623L281.221 166.642C280.979 167.249 280.699 167.725 280.381 168.07C280.073 168.416 279.728 168.658 279.345 168.798C278.972 168.938 278.557 169.008 278.099 169.008ZM279.387 166.474L276.027 158.648H278.281L280.885 164.948L279.387 166.474ZM289.633 166.18V156.38H294.085C295.149 156.38 296.087 156.586 296.899 156.996C297.711 157.398 298.346 157.962 298.803 158.69C299.261 159.418 299.489 160.282 299.489 161.28C299.489 162.27 299.261 163.133 298.803 163.87C298.346 164.598 297.711 165.168 296.899 165.578C296.087 165.98 295.149 166.18 294.085 166.18H289.633ZM291.901 164.318H293.973C294.627 164.318 295.191 164.197 295.667 163.954C296.153 163.702 296.526 163.348 296.787 162.89C297.058 162.433 297.193 161.896 297.193 161.28C297.193 160.655 297.058 160.118 296.787 159.67C296.526 159.213 296.153 158.863 295.667 158.62C295.191 158.368 294.627 158.242 293.973 158.242H291.901V164.318ZM304.784 166.292C303.925 166.292 303.169 166.124 302.516 165.788C301.872 165.452 301.373 164.995 301.018 164.416C300.663 163.828 300.486 163.161 300.486 162.414C300.486 161.658 300.659 160.991 301.004 160.412C301.359 159.824 301.839 159.367 302.446 159.04C303.053 158.704 303.739 158.536 304.504 158.536C305.241 158.536 305.904 158.695 306.492 159.012C307.089 159.32 307.561 159.768 307.906 160.356C308.251 160.935 308.424 161.63 308.424 162.442C308.424 162.526 308.419 162.624 308.41 162.736C308.401 162.839 308.391 162.937 308.382 163.03H302.264V161.756H307.234L306.394 162.134C306.394 161.742 306.315 161.402 306.156 161.112C305.997 160.823 305.778 160.599 305.498 160.44C305.218 160.272 304.891 160.188 304.518 160.188C304.145 160.188 303.813 160.272 303.524 160.44C303.244 160.599 303.025 160.828 302.866 161.126C302.707 161.416 302.628 161.761 302.628 162.162V162.498C302.628 162.909 302.717 163.273 302.894 163.59C303.081 163.898 303.337 164.136 303.664 164.304C304 164.463 304.392 164.542 304.84 164.542C305.241 164.542 305.591 164.482 305.89 164.36C306.198 164.239 306.478 164.057 306.73 163.814L307.892 165.074C307.547 165.466 307.113 165.77 306.59 165.984C306.067 166.19 305.465 166.292 304.784 166.292ZM311.785 166.18L308.621 158.648H310.875L313.507 165.13H312.387L315.117 158.648H317.217L314.039 166.18H311.785ZM318.108 166.18V158.648H320.292V166.18H318.108ZM319.2 157.598C318.799 157.598 318.472 157.482 318.22 157.248C317.968 157.015 317.842 156.726 317.842 156.38C317.842 156.035 317.968 155.746 318.22 155.512C318.472 155.279 318.799 155.162 319.2 155.162C319.602 155.162 319.928 155.274 320.18 155.498C320.432 155.713 320.558 155.993 320.558 156.338C320.558 156.702 320.432 157.006 320.18 157.248C319.938 157.482 319.611 157.598 319.2 157.598ZM325.959 166.292C325.147 166.292 324.424 166.129 323.789 165.802C323.155 165.466 322.655 165.004 322.291 164.416C321.937 163.828 321.759 163.161 321.759 162.414C321.759 161.658 321.937 160.991 322.291 160.412C322.655 159.824 323.155 159.367 323.789 159.04C324.424 158.704 325.147 158.536 325.959 158.536C326.753 158.536 327.443 158.704 328.031 159.04C328.619 159.367 329.053 159.838 329.333 160.454L327.639 161.364C327.443 161.01 327.196 160.748 326.897 160.58C326.608 160.412 326.291 160.328 325.945 160.328C325.572 160.328 325.236 160.412 324.937 160.58C324.639 160.748 324.401 160.986 324.223 161.294C324.055 161.602 323.971 161.976 323.971 162.414C323.971 162.853 324.055 163.226 324.223 163.534C324.401 163.842 324.639 164.08 324.937 164.248C325.236 164.416 325.572 164.5 325.945 164.5C326.291 164.5 326.608 164.421 326.897 164.262C327.196 164.094 327.443 163.828 327.639 163.464L329.333 164.388C329.053 164.995 328.619 165.466 328.031 165.802C327.443 166.129 326.753 166.292 325.959 166.292ZM334.233 166.292C333.374 166.292 332.618 166.124 331.965 165.788C331.321 165.452 330.822 164.995 330.467 164.416C330.112 163.828 329.935 163.161 329.935 162.414C329.935 161.658 330.108 160.991 330.453 160.412C330.808 159.824 331.288 159.367 331.895 159.04C332.502 158.704 333.188 158.536 333.953 158.536C334.69 158.536 335.353 158.695 335.941 159.012C336.538 159.32 337.01 159.768 337.355 160.356C337.7 160.935 337.873 161.63 337.873 162.442C337.873 162.526 337.868 162.624 337.859 162.736C337.85 162.839 337.84 162.937 337.831 163.03H331.713V161.756H336.683L335.843 162.134C335.843 161.742 335.764 161.402 335.605 161.112C335.446 160.823 335.227 160.599 334.947 160.44C334.667 160.272 334.34 160.188 333.967 160.188C333.594 160.188 333.262 160.272 332.973 160.44C332.693 160.599 332.474 160.828 332.315 161.126C332.156 161.416 332.077 161.761 332.077 162.162V162.498C332.077 162.909 332.166 163.273 332.343 163.59C332.53 163.898 332.786 164.136 333.113 164.304C333.449 164.463 333.841 164.542 334.289 164.542C334.69 164.542 335.04 164.482 335.339 164.36C335.647 164.239 335.927 164.057 336.179 163.814L337.341 165.074C336.996 165.466 336.562 165.77 336.039 165.984C335.516 166.19 334.914 166.292 334.233 166.292Z" fill="#001A49"/>
<path d="M268.662 206.348C267.888 206.348 267.174 206.227 266.52 205.984C265.876 205.732 265.312 205.378 264.826 204.92C264.35 204.463 263.977 203.926 263.706 203.31C263.445 202.694 263.314 202.018 263.314 201.28C263.314 200.543 263.445 199.866 263.706 199.25C263.977 198.634 264.355 198.098 264.84 197.64C265.326 197.183 265.895 196.833 266.548 196.59C267.202 196.338 267.92 196.212 268.704 196.212C269.572 196.212 270.352 196.357 271.042 196.646C271.742 196.936 272.33 197.356 272.806 197.906L271.35 199.25C270.996 198.877 270.608 198.602 270.188 198.424C269.768 198.238 269.311 198.144 268.816 198.144C268.34 198.144 267.906 198.219 267.514 198.368C267.122 198.518 266.782 198.732 266.492 199.012C266.212 199.292 265.993 199.624 265.834 200.006C265.685 200.389 265.61 200.814 265.61 201.28C265.61 201.738 265.685 202.158 265.834 202.54C265.993 202.923 266.212 203.259 266.492 203.548C266.782 203.828 267.118 204.043 267.5 204.192C267.892 204.342 268.322 204.416 268.788 204.416C269.236 204.416 269.67 204.346 270.09 204.206C270.52 204.057 270.935 203.81 271.336 203.464L272.624 205.102C272.092 205.504 271.472 205.812 270.762 206.026C270.062 206.241 269.362 206.348 268.662 206.348ZM270.552 204.808V201.126H272.624V205.102L270.552 204.808ZM278.161 206.292C277.358 206.292 276.644 206.124 276.019 205.788C275.403 205.452 274.913 204.995 274.549 204.416C274.194 203.828 274.017 203.161 274.017 202.414C274.017 201.658 274.194 200.991 274.549 200.412C274.913 199.824 275.403 199.367 276.019 199.04C276.644 198.704 277.358 198.536 278.161 198.536C278.954 198.536 279.664 198.704 280.289 199.04C280.914 199.367 281.404 199.82 281.759 200.398C282.114 200.977 282.291 201.649 282.291 202.414C282.291 203.161 282.114 203.828 281.759 204.416C281.404 204.995 280.914 205.452 280.289 205.788C279.664 206.124 278.954 206.292 278.161 206.292ZM278.161 204.5C278.525 204.5 278.852 204.416 279.141 204.248C279.43 204.08 279.659 203.842 279.827 203.534C279.995 203.217 280.079 202.844 280.079 202.414C280.079 201.976 279.995 201.602 279.827 201.294C279.659 200.986 279.43 200.748 279.141 200.58C278.852 200.412 278.525 200.328 278.161 200.328C277.797 200.328 277.47 200.412 277.181 200.58C276.892 200.748 276.658 200.986 276.481 201.294C276.313 201.602 276.229 201.976 276.229 202.414C276.229 202.844 276.313 203.217 276.481 203.534C276.658 203.842 276.892 204.08 277.181 204.248C277.47 204.416 277.797 204.5 278.161 204.5ZM287.335 206.292C286.532 206.292 285.818 206.124 285.193 205.788C284.577 205.452 284.087 204.995 283.723 204.416C283.368 203.828 283.191 203.161 283.191 202.414C283.191 201.658 283.368 200.991 283.723 200.412C284.087 199.824 284.577 199.367 285.193 199.04C285.818 198.704 286.532 198.536 287.335 198.536C288.128 198.536 288.838 198.704 289.463 199.04C290.088 199.367 290.578 199.82 290.933 200.398C291.288 200.977 291.465 201.649 291.465 202.414C291.465 203.161 291.288 203.828 290.933 204.416C290.578 204.995 290.088 205.452 289.463 205.788C288.838 206.124 288.128 206.292 287.335 206.292ZM287.335 204.5C287.699 204.5 288.026 204.416 288.315 204.248C288.604 204.08 288.833 203.842 289.001 203.534C289.169 203.217 289.253 202.844 289.253 202.414C289.253 201.976 289.169 201.602 289.001 201.294C288.833 200.986 288.604 200.748 288.315 200.58C288.026 200.412 287.699 200.328 287.335 200.328C286.971 200.328 286.644 200.412 286.355 200.58C286.066 200.748 285.832 200.986 285.655 201.294C285.487 201.602 285.403 201.976 285.403 202.414C285.403 202.844 285.487 203.217 285.655 203.534C285.832 203.842 286.066 204.08 286.355 204.248C286.644 204.416 286.971 204.5 287.335 204.5ZM296.467 209.008C295.757 209.008 295.071 208.92 294.409 208.742C293.755 208.574 293.209 208.318 292.771 207.972L293.639 206.404C293.956 206.666 294.357 206.871 294.843 207.02C295.337 207.179 295.823 207.258 296.299 207.258C297.073 207.258 297.633 207.086 297.979 206.74C298.333 206.395 298.511 205.882 298.511 205.2V204.066L298.651 202.176L298.623 200.272V198.648H300.695V204.92C300.695 206.32 300.331 207.352 299.603 208.014C298.875 208.677 297.829 209.008 296.467 209.008ZM296.131 205.816C295.431 205.816 294.796 205.667 294.227 205.368C293.667 205.06 293.214 204.636 292.869 204.094C292.533 203.544 292.365 202.904 292.365 202.176C292.365 201.439 292.533 200.8 292.869 200.258C293.214 199.708 293.667 199.283 294.227 198.984C294.796 198.686 295.431 198.536 296.131 198.536C296.765 198.536 297.325 198.667 297.811 198.928C298.296 199.18 298.674 199.577 298.945 200.118C299.215 200.65 299.351 201.336 299.351 202.176C299.351 203.007 299.215 203.693 298.945 204.234C298.674 204.766 298.296 205.163 297.811 205.424C297.325 205.686 296.765 205.816 296.131 205.816ZM296.565 204.024C296.947 204.024 297.288 203.95 297.587 203.8C297.885 203.642 298.119 203.422 298.287 203.142C298.455 202.862 298.539 202.54 298.539 202.176C298.539 201.803 298.455 201.481 298.287 201.21C298.119 200.93 297.885 200.716 297.587 200.566C297.288 200.408 296.947 200.328 296.565 200.328C296.182 200.328 295.841 200.408 295.543 200.566C295.244 200.716 295.006 200.93 294.829 201.21C294.661 201.481 294.577 201.803 294.577 202.176C294.577 202.54 294.661 202.862 294.829 203.142C295.006 203.422 295.244 203.642 295.543 203.8C295.841 203.95 296.182 204.024 296.565 204.024ZM302.727 206.18V195.792H304.911V206.18H302.727ZM310.676 206.292C309.818 206.292 309.062 206.124 308.408 205.788C307.764 205.452 307.265 204.995 306.91 204.416C306.556 203.828 306.378 203.161 306.378 202.414C306.378 201.658 306.551 200.991 306.896 200.412C307.251 199.824 307.732 199.367 308.338 199.04C308.945 198.704 309.631 198.536 310.396 198.536C311.134 198.536 311.796 198.695 312.384 199.012C312.982 199.32 313.453 199.768 313.798 200.356C314.144 200.935 314.316 201.63 314.316 202.442C314.316 202.526 314.312 202.624 314.302 202.736C314.293 202.839 314.284 202.937 314.274 203.03H308.156V201.756H313.126L312.286 202.134C312.286 201.742 312.207 201.402 312.048 201.112C311.89 200.823 311.67 200.599 311.39 200.44C311.11 200.272 310.784 200.188 310.41 200.188C310.037 200.188 309.706 200.272 309.416 200.44C309.136 200.599 308.917 200.828 308.758 201.126C308.6 201.416 308.52 201.761 308.52 202.162V202.498C308.52 202.909 308.609 203.273 308.786 203.59C308.973 203.898 309.23 204.136 309.556 204.304C309.892 204.463 310.284 204.542 310.732 204.542C311.134 204.542 311.484 204.482 311.782 204.36C312.09 204.239 312.37 204.057 312.622 203.814L313.784 205.074C313.439 205.466 313.005 205.77 312.482 205.984C311.96 206.19 311.358 206.292 310.676 206.292ZM319.889 206.18V196.38H324.341C325.405 196.38 326.343 196.586 327.155 196.996C327.967 197.398 328.602 197.962 329.059 198.69C329.517 199.418 329.745 200.282 329.745 201.28C329.745 202.27 329.517 203.133 329.059 203.87C328.602 204.598 327.967 205.168 327.155 205.578C326.343 205.98 325.405 206.18 324.341 206.18H319.889ZM322.157 204.318H324.229C324.883 204.318 325.447 204.197 325.923 203.954C326.409 203.702 326.782 203.348 327.043 202.89C327.314 202.433 327.449 201.896 327.449 201.28C327.449 200.655 327.314 200.118 327.043 199.67C326.782 199.213 326.409 198.863 325.923 198.62C325.447 198.368 324.883 198.242 324.229 198.242H322.157V204.318ZM331.302 206.18V198.648H333.388V200.776L333.094 200.16C333.318 199.628 333.677 199.227 334.172 198.956C334.666 198.676 335.268 198.536 335.978 198.536V200.552C335.884 200.543 335.8 200.538 335.726 200.538C335.651 200.529 335.572 200.524 335.488 200.524C334.89 200.524 334.405 200.697 334.032 201.042C333.668 201.378 333.486 201.906 333.486 202.624V206.18H331.302ZM337.29 206.18V198.648H339.474V206.18H337.29ZM338.382 197.598C337.981 197.598 337.654 197.482 337.402 197.248C337.15 197.015 337.024 196.726 337.024 196.38C337.024 196.035 337.15 195.746 337.402 195.512C337.654 195.279 337.981 195.162 338.382 195.162C338.783 195.162 339.11 195.274 339.362 195.498C339.614 195.713 339.74 195.993 339.74 196.338C339.74 196.702 339.614 197.006 339.362 197.248C339.119 197.482 338.793 197.598 338.382 197.598ZM343.545 206.18L340.381 198.648H342.635L345.267 205.13H344.147L346.877 198.648H348.977L345.799 206.18H343.545ZM353.401 206.292C352.542 206.292 351.786 206.124 351.133 205.788C350.489 205.452 349.99 204.995 349.635 204.416C349.28 203.828 349.103 203.161 349.103 202.414C349.103 201.658 349.276 200.991 349.621 200.412C349.976 199.824 350.456 199.367 351.063 199.04C351.67 198.704 352.356 198.536 353.121 198.536C353.858 198.536 354.521 198.695 355.109 199.012C355.706 199.32 356.178 199.768 356.523 200.356C356.868 200.935 357.041 201.63 357.041 202.442C357.041 202.526 357.036 202.624 357.027 202.736C357.018 202.839 357.008 202.937 356.999 203.03H350.881V201.756H355.851L355.011 202.134C355.011 201.742 354.932 201.402 354.773 201.112C354.614 200.823 354.395 200.599 354.115 200.44C353.835 200.272 353.508 200.188 353.135 200.188C352.762 200.188 352.43 200.272 352.141 200.44C351.861 200.599 351.642 200.828 351.483 201.126C351.324 201.416 351.245 201.761 351.245 202.162V202.498C351.245 202.909 351.334 203.273 351.511 203.59C351.698 203.898 351.954 204.136 352.281 204.304C352.617 204.463 353.009 204.542 353.457 204.542C353.858 204.542 354.208 204.482 354.507 204.36C354.815 204.239 355.095 204.057 355.347 203.814L356.509 205.074C356.164 205.466 355.73 205.77 355.207 205.984C354.684 206.19 354.082 206.292 353.401 206.292Z" fill="#001A49"/>
<path d="M263.591 246.138V236.338H265.859V244.29H270.773V246.138H263.591ZM271.886 246.138V238.606H274.07V246.138H271.886ZM272.978 237.556C272.577 237.556 272.25 237.44 271.998 237.206C271.746 236.973 271.62 236.684 271.62 236.338C271.62 235.993 271.746 235.704 271.998 235.47C272.25 235.237 272.577 235.12 272.978 235.12C273.38 235.12 273.706 235.232 273.958 235.456C274.21 235.671 274.336 235.951 274.336 236.296C274.336 236.66 274.21 236.964 273.958 237.206C273.716 237.44 273.389 237.556 272.978 237.556ZM280.675 238.494C281.272 238.494 281.804 238.616 282.271 238.858C282.747 239.092 283.12 239.456 283.391 239.95C283.662 240.436 283.797 241.061 283.797 241.826V246.138H281.613V242.162C281.613 241.556 281.478 241.108 281.207 240.818C280.946 240.529 280.572 240.384 280.087 240.384C279.742 240.384 279.429 240.459 279.149 240.608C278.878 240.748 278.664 240.968 278.505 241.266C278.356 241.565 278.281 241.948 278.281 242.414V246.138H276.097V238.606H278.183V240.692L277.791 240.062C278.062 239.558 278.449 239.171 278.953 238.9C279.457 238.63 280.031 238.494 280.675 238.494ZM287.583 244.598L287.639 241.938L291.153 238.606H293.757L290.383 242.036L289.249 242.96L287.583 244.598ZM285.777 246.138V235.75H287.961V246.138H285.777ZM291.391 246.138L288.843 242.974L290.215 241.28L294.037 246.138H291.391Z" fill="#001A49"/>
<path d="M263.591 285.238V275.438H268.043C269.107 275.438 270.045 275.643 270.857 276.054C271.669 276.455 272.304 277.02 272.761 277.748C273.218 278.476 273.447 279.339 273.447 280.338C273.447 281.327 273.218 282.19 272.761 282.928C272.304 283.656 271.669 284.225 270.857 284.636C270.045 285.037 269.107 285.238 268.043 285.238H263.591ZM265.859 283.376H267.931C268.584 283.376 269.149 283.254 269.625 283.012C270.11 282.76 270.484 282.405 270.745 281.948C271.016 281.49 271.151 280.954 271.151 280.338C271.151 279.712 271.016 279.176 270.745 278.728C270.484 278.27 270.11 277.92 269.625 277.678C269.149 277.426 268.584 277.3 267.931 277.3H265.859V283.376ZM275.003 285.238V277.706H277.089V279.834L276.795 279.218C277.019 278.686 277.379 278.284 277.873 278.014C278.368 277.734 278.97 277.594 279.679 277.594V279.61C279.586 279.6 279.502 279.596 279.427 279.596C279.353 279.586 279.273 279.582 279.189 279.582C278.592 279.582 278.107 279.754 277.733 280.1C277.369 280.436 277.187 280.963 277.187 281.682V285.238H275.003ZM284.507 285.35C283.705 285.35 282.991 285.182 282.365 284.846C281.749 284.51 281.259 284.052 280.895 283.474C280.541 282.886 280.363 282.218 280.363 281.472C280.363 280.716 280.541 280.048 280.895 279.47C281.259 278.882 281.749 278.424 282.365 278.098C282.991 277.762 283.705 277.594 284.507 277.594C285.301 277.594 286.01 277.762 286.635 278.098C287.261 278.424 287.751 278.877 288.105 279.456C288.46 280.034 288.637 280.706 288.637 281.472C288.637 282.218 288.46 282.886 288.105 283.474C287.751 284.052 287.261 284.51 286.635 284.846C286.01 285.182 285.301 285.35 284.507 285.35ZM284.507 283.558C284.871 283.558 285.198 283.474 285.487 283.306C285.777 283.138 286.005 282.9 286.173 282.592C286.341 282.274 286.425 281.901 286.425 281.472C286.425 281.033 286.341 280.66 286.173 280.352C286.005 280.044 285.777 279.806 285.487 279.638C285.198 279.47 284.871 279.386 284.507 279.386C284.143 279.386 283.817 279.47 283.527 279.638C283.238 279.806 283.005 280.044 282.827 280.352C282.659 280.66 282.575 281.033 282.575 281.472C282.575 281.901 282.659 282.274 282.827 282.592C283.005 282.9 283.238 283.138 283.527 283.306C283.817 283.474 284.143 283.558 284.507 283.558ZM294.549 285.35C293.914 285.35 293.359 285.21 292.883 284.93C292.407 284.65 292.034 284.225 291.763 283.656C291.502 283.077 291.371 282.349 291.371 281.472C291.371 280.585 291.497 279.857 291.749 279.288C292.001 278.718 292.365 278.294 292.841 278.014C293.317 277.734 293.886 277.594 294.549 277.594C295.258 277.594 295.893 277.757 296.453 278.084C297.022 278.401 297.47 278.849 297.797 279.428C298.133 280.006 298.301 280.688 298.301 281.472C298.301 282.265 298.133 282.951 297.797 283.53C297.47 284.108 297.022 284.556 296.453 284.874C295.893 285.191 295.258 285.35 294.549 285.35ZM290.097 287.954V277.706H292.183V279.246L292.141 281.486L292.281 283.712V287.954H290.097ZM294.171 283.558C294.535 283.558 294.857 283.474 295.137 283.306C295.426 283.138 295.655 282.9 295.823 282.592C296 282.274 296.089 281.901 296.089 281.472C296.089 281.033 296 280.66 295.823 280.352C295.655 280.044 295.426 279.806 295.137 279.638C294.857 279.47 294.535 279.386 294.171 279.386C293.807 279.386 293.48 279.47 293.191 279.638C292.902 279.806 292.673 280.044 292.505 280.352C292.337 280.66 292.253 281.033 292.253 281.472C292.253 281.901 292.337 282.274 292.505 282.592C292.673 282.9 292.902 283.138 293.191 283.306C293.48 283.474 293.807 283.558 294.171 283.558ZM304.215 285.35C303.552 285.35 302.983 285.21 302.507 284.93C302.031 284.65 301.667 284.225 301.415 283.656C301.163 283.077 301.037 282.349 301.037 281.472C301.037 280.585 301.168 279.857 301.429 279.288C301.7 278.718 302.073 278.294 302.549 278.014C303.025 277.734 303.58 277.594 304.215 277.594C304.924 277.594 305.559 277.752 306.119 278.07C306.688 278.387 307.136 278.835 307.463 279.414C307.799 279.992 307.967 280.678 307.967 281.472C307.967 282.256 307.799 282.937 307.463 283.516C307.136 284.094 306.688 284.547 306.119 284.874C305.559 285.191 304.924 285.35 304.215 285.35ZM299.763 285.238V274.85H301.947V279.232L301.807 281.458L301.849 283.698V285.238H299.763ZM303.837 283.558C304.201 283.558 304.523 283.474 304.803 283.306C305.092 283.138 305.321 282.9 305.489 282.592C305.666 282.274 305.755 281.901 305.755 281.472C305.755 281.033 305.666 280.66 305.489 280.352C305.321 280.044 305.092 279.806 304.803 279.638C304.523 279.47 304.201 279.386 303.837 279.386C303.473 279.386 303.146 279.47 302.857 279.638C302.568 279.806 302.339 280.044 302.171 280.352C302.003 280.66 301.919 281.033 301.919 281.472C301.919 281.901 302.003 282.274 302.171 282.592C302.339 282.9 302.568 283.138 302.857 283.306C303.146 283.474 303.473 283.558 303.837 283.558ZM313.013 285.35C312.21 285.35 311.496 285.182 310.871 284.846C310.255 284.51 309.765 284.052 309.401 283.474C309.046 282.886 308.869 282.218 308.869 281.472C308.869 280.716 309.046 280.048 309.401 279.47C309.765 278.882 310.255 278.424 310.871 278.098C311.496 277.762 312.21 277.594 313.013 277.594C313.806 277.594 314.516 277.762 315.141 278.098C315.766 278.424 316.256 278.877 316.611 279.456C316.966 280.034 317.143 280.706 317.143 281.472C317.143 282.218 316.966 282.886 316.611 283.474C316.256 284.052 315.766 284.51 315.141 284.846C314.516 285.182 313.806 285.35 313.013 285.35ZM313.013 283.558C313.377 283.558 313.704 283.474 313.993 283.306C314.282 283.138 314.511 282.9 314.679 282.592C314.847 282.274 314.931 281.901 314.931 281.472C314.931 281.033 314.847 280.66 314.679 280.352C314.511 280.044 314.282 279.806 313.993 279.638C313.704 279.47 313.377 279.386 313.013 279.386C312.649 279.386 312.322 279.47 312.033 279.638C311.744 279.806 311.51 280.044 311.333 280.352C311.165 280.66 311.081 281.033 311.081 281.472C311.081 281.901 311.165 282.274 311.333 282.592C311.51 282.9 311.744 283.138 312.033 283.306C312.322 283.474 312.649 283.558 313.013 283.558ZM317.419 285.238L320.793 280.814L320.751 282.018L317.517 277.706H319.967L322.011 280.52L321.087 280.548L323.201 277.706H325.525L322.277 281.976V280.8L325.637 285.238H323.159L321.017 282.242L321.927 282.368L319.799 285.238H317.419Z" fill="#001A49"/>
<path d="M263.93 326.18V316.38H266.198V326.18H263.93ZM272.948 318.536C273.545 318.536 274.077 318.658 274.544 318.9C275.02 319.134 275.393 319.498 275.664 319.992C275.935 320.478 276.07 321.103 276.07 321.868V326.18H273.886V322.204C273.886 321.598 273.751 321.15 273.48 320.86C273.219 320.571 272.845 320.426 272.36 320.426C272.015 320.426 271.702 320.501 271.422 320.65C271.151 320.79 270.937 321.01 270.778 321.308C270.629 321.607 270.554 321.99 270.554 322.456V326.18H268.37V318.648H270.456V320.734L270.064 320.104C270.335 319.6 270.722 319.213 271.226 318.942C271.73 318.672 272.304 318.536 272.948 318.536ZM280.584 326.292C279.94 326.292 279.319 326.218 278.722 326.068C278.134 325.91 277.667 325.714 277.322 325.48L278.05 323.912C278.395 324.127 278.801 324.304 279.268 324.444C279.744 324.575 280.21 324.64 280.668 324.64C281.172 324.64 281.526 324.58 281.732 324.458C281.946 324.337 282.054 324.169 282.054 323.954C282.054 323.777 281.97 323.646 281.802 323.562C281.643 323.469 281.428 323.399 281.158 323.352C280.887 323.306 280.588 323.259 280.262 323.212C279.944 323.166 279.622 323.105 279.296 323.03C278.969 322.946 278.67 322.825 278.4 322.666C278.129 322.508 277.91 322.293 277.742 322.022C277.583 321.752 277.504 321.402 277.504 320.972C277.504 320.496 277.639 320.076 277.91 319.712C278.19 319.348 278.591 319.064 279.114 318.858C279.636 318.644 280.262 318.536 280.99 318.536C281.503 318.536 282.026 318.592 282.558 318.704C283.09 318.816 283.533 318.98 283.888 319.194L283.16 320.748C282.796 320.534 282.427 320.389 282.054 320.314C281.69 320.23 281.335 320.188 280.99 320.188C280.504 320.188 280.15 320.254 279.926 320.384C279.702 320.515 279.59 320.683 279.59 320.888C279.59 321.075 279.669 321.215 279.828 321.308C279.996 321.402 280.215 321.476 280.486 321.532C280.756 321.588 281.05 321.64 281.368 321.686C281.694 321.724 282.021 321.784 282.348 321.868C282.674 321.952 282.968 322.074 283.23 322.232C283.5 322.382 283.72 322.592 283.888 322.862C284.056 323.124 284.14 323.469 284.14 323.898C284.14 324.365 284 324.78 283.72 325.144C283.44 325.499 283.034 325.779 282.502 325.984C281.979 326.19 281.34 326.292 280.584 326.292ZM288.567 326.292C287.681 326.292 286.99 326.068 286.495 325.62C286.001 325.163 285.753 324.486 285.753 323.59V316.982H287.937V323.562C287.937 323.88 288.021 324.127 288.189 324.304C288.357 324.472 288.586 324.556 288.875 324.556C289.221 324.556 289.515 324.463 289.757 324.276L290.345 325.816C290.121 325.975 289.851 326.096 289.533 326.18C289.225 326.255 288.903 326.292 288.567 326.292ZM284.591 320.496V318.816H289.813V320.496H284.591ZM296.191 326.18V324.71L296.051 324.388V321.756C296.051 321.29 295.907 320.926 295.617 320.664C295.337 320.403 294.903 320.272 294.315 320.272C293.914 320.272 293.517 320.338 293.125 320.468C292.743 320.59 292.416 320.758 292.145 320.972L291.361 319.446C291.772 319.157 292.267 318.933 292.845 318.774C293.424 318.616 294.012 318.536 294.609 318.536C295.757 318.536 296.649 318.807 297.283 319.348C297.918 319.89 298.235 320.734 298.235 321.882V326.18H296.191ZM293.895 326.292C293.307 326.292 292.803 326.194 292.383 325.998C291.963 325.793 291.641 325.518 291.417 325.172C291.193 324.827 291.081 324.44 291.081 324.01C291.081 323.562 291.189 323.17 291.403 322.834C291.627 322.498 291.977 322.237 292.453 322.05C292.929 321.854 293.55 321.756 294.315 321.756H296.317V323.03H294.553C294.04 323.03 293.685 323.114 293.489 323.282C293.303 323.45 293.209 323.66 293.209 323.912C293.209 324.192 293.317 324.416 293.531 324.584C293.755 324.743 294.059 324.822 294.441 324.822C294.805 324.822 295.132 324.738 295.421 324.57C295.711 324.393 295.921 324.136 296.051 323.8L296.387 324.808C296.229 325.294 295.939 325.662 295.519 325.914C295.099 326.166 294.558 326.292 293.895 326.292ZM303.809 329.008C303.099 329.008 302.413 328.92 301.751 328.742C301.097 328.574 300.551 328.318 300.113 327.972L300.981 326.404C301.298 326.666 301.699 326.871 302.185 327.02C302.679 327.179 303.165 327.258 303.641 327.258C304.415 327.258 304.975 327.086 305.321 326.74C305.675 326.395 305.853 325.882 305.853 325.2V324.066L305.993 322.176L305.965 320.272V318.648H308.037V324.92C308.037 326.32 307.673 327.352 306.945 328.014C306.217 328.677 305.171 329.008 303.809 329.008ZM303.473 325.816C302.773 325.816 302.138 325.667 301.569 325.368C301.009 325.06 300.556 324.636 300.211 324.094C299.875 323.544 299.707 322.904 299.707 322.176C299.707 321.439 299.875 320.8 300.211 320.258C300.556 319.708 301.009 319.283 301.569 318.984C302.138 318.686 302.773 318.536 303.473 318.536C304.107 318.536 304.667 318.667 305.153 318.928C305.638 319.18 306.016 319.577 306.287 320.118C306.557 320.65 306.693 321.336 306.693 322.176C306.693 323.007 306.557 323.693 306.287 324.234C306.016 324.766 305.638 325.163 305.153 325.424C304.667 325.686 304.107 325.816 303.473 325.816ZM303.907 324.024C304.289 324.024 304.63 323.95 304.929 323.8C305.227 323.642 305.461 323.422 305.629 323.142C305.797 322.862 305.881 322.54 305.881 322.176C305.881 321.803 305.797 321.481 305.629 321.21C305.461 320.93 305.227 320.716 304.929 320.566C304.63 320.408 304.289 320.328 303.907 320.328C303.524 320.328 303.183 320.408 302.885 320.566C302.586 320.716 302.348 320.93 302.171 321.21C302.003 321.481 301.919 321.803 301.919 322.176C301.919 322.54 302.003 322.862 302.171 323.142C302.348 323.422 302.586 323.642 302.885 323.8C303.183 323.95 303.524 324.024 303.907 324.024ZM310.069 326.18V318.648H312.155V320.776L311.861 320.16C312.085 319.628 312.445 319.227 312.939 318.956C313.434 318.676 314.036 318.536 314.745 318.536V320.552C314.652 320.543 314.568 320.538 314.493 320.538C314.419 320.529 314.339 320.524 314.255 320.524C313.658 320.524 313.173 320.697 312.799 321.042C312.435 321.378 312.253 321.906 312.253 322.624V326.18H310.069ZM320.172 326.18V324.71L320.032 324.388V321.756C320.032 321.29 319.887 320.926 319.598 320.664C319.318 320.403 318.884 320.272 318.296 320.272C317.894 320.272 317.498 320.338 317.106 320.468C316.723 320.59 316.396 320.758 316.126 320.972L315.342 319.446C315.752 319.157 316.247 318.933 316.826 318.774C317.404 318.616 317.992 318.536 318.59 318.536C319.738 318.536 320.629 318.807 321.264 319.348C321.898 319.89 322.216 320.734 322.216 321.882V326.18H320.172ZM317.876 326.292C317.288 326.292 316.784 326.194 316.364 325.998C315.944 325.793 315.622 325.518 315.398 325.172C315.174 324.827 315.062 324.44 315.062 324.01C315.062 323.562 315.169 323.17 315.384 322.834C315.608 322.498 315.958 322.237 316.434 322.05C316.91 321.854 317.53 321.756 318.296 321.756H320.298V323.03H318.534C318.02 323.03 317.666 323.114 317.47 323.282C317.283 323.45 317.19 323.66 317.19 323.912C317.19 324.192 317.297 324.416 317.512 324.584C317.736 324.743 318.039 324.822 318.422 324.822C318.786 324.822 319.112 324.738 319.402 324.57C319.691 324.393 319.901 324.136 320.032 323.8L320.368 324.808C320.209 325.294 319.92 325.662 319.5 325.914C319.08 326.166 318.538 326.292 317.876 326.292ZM333.838 318.536C334.436 318.536 334.963 318.658 335.42 318.9C335.887 319.134 336.251 319.498 336.512 319.992C336.783 320.478 336.918 321.103 336.918 321.868V326.18H334.734V322.204C334.734 321.598 334.608 321.15 334.356 320.86C334.104 320.571 333.75 320.426 333.292 320.426C332.975 320.426 332.69 320.501 332.438 320.65C332.186 320.79 331.99 321.005 331.85 321.294C331.71 321.584 331.64 321.952 331.64 322.4V326.18H329.456V322.204C329.456 321.598 329.33 321.15 329.078 320.86C328.836 320.571 328.486 320.426 328.028 320.426C327.711 320.426 327.426 320.501 327.174 320.65C326.922 320.79 326.726 321.005 326.586 321.294C326.446 321.584 326.376 321.952 326.376 322.4V326.18H324.192V318.648H326.278V320.706L325.886 320.104C326.148 319.591 326.516 319.204 326.992 318.942C327.478 318.672 328.028 318.536 328.644 318.536C329.335 318.536 329.937 318.714 330.45 319.068C330.973 319.414 331.318 319.946 331.486 320.664L330.716 320.454C330.968 319.866 331.37 319.4 331.92 319.054C332.48 318.709 333.12 318.536 333.838 318.536Z" fill="#001A49"/>
<g clip-path="url(#clip0_110_26)">
<path d="M235.178 321.546C235.178 319.865 236.54 318.503 238.22 318.503C239.9 318.503 241.263 319.865 241.263 321.546C241.263 323.226 239.9 324.589 238.22 324.589C236.54 324.589 235.178 323.226 235.178 321.546ZM233.533 321.546C233.533 324.134 235.631 326.233 238.22 326.233C240.809 326.233 242.907 324.134 242.907 321.546C242.907 318.957 240.809 316.859 238.22 316.859C235.631 316.859 233.533 318.957 233.533 321.546ZM241.997 316.673C241.997 317.277 242.488 317.768 243.093 317.768C243.697 317.768 244.189 317.277 244.189 316.673C244.189 316.068 243.698 315.578 243.093 315.578C242.488 315.578 241.997 316.068 241.997 316.673ZM234.532 328.976C233.642 328.935 233.158 328.787 232.837 328.661C232.411 328.496 232.107 328.298 231.787 327.979C231.468 327.659 231.269 327.356 231.104 326.93C230.979 326.608 230.831 326.124 230.79 325.234C230.746 324.272 230.737 323.983 230.737 321.546C230.737 319.108 230.747 318.82 230.79 317.857C230.831 316.967 230.98 316.484 231.104 316.162C231.27 315.736 231.468 315.432 231.787 315.112C232.106 314.793 232.41 314.594 232.837 314.429C233.158 314.304 233.642 314.156 234.532 314.115C235.494 314.071 235.783 314.062 238.22 314.062C240.658 314.062 240.946 314.072 241.909 314.115C242.799 314.156 243.282 314.305 243.604 314.429C244.03 314.594 244.334 314.793 244.654 315.112C244.973 315.431 245.171 315.736 245.337 316.162C245.462 316.483 245.61 316.967 245.651 317.857C245.695 318.82 245.704 319.108 245.704 321.546C245.704 323.982 245.695 324.272 245.651 325.234C245.61 326.124 245.461 326.608 245.337 326.93C245.171 327.356 244.973 327.659 244.654 327.979C244.335 328.298 244.03 328.496 243.604 328.661C243.282 328.787 242.799 328.935 241.909 328.976C240.947 329.02 240.658 329.029 238.22 329.029C235.783 329.029 235.494 329.02 234.532 328.976ZM234.457 312.473C233.485 312.517 232.821 312.671 232.241 312.897C231.641 313.13 231.132 313.443 230.624 313.95C230.117 314.457 229.804 314.966 229.571 315.567C229.346 316.147 229.192 316.811 229.147 317.782C229.102 318.756 229.092 319.067 229.092 321.546C229.092 324.025 229.102 324.336 229.147 325.309C229.192 326.281 229.346 326.944 229.571 327.525C229.804 328.125 230.116 328.634 230.624 329.141C231.131 329.649 231.64 329.961 232.241 330.194C232.822 330.42 233.485 330.574 234.457 330.618C235.431 330.663 235.741 330.674 238.22 330.674C240.7 330.674 241.01 330.663 241.983 330.618C242.955 330.574 243.619 330.42 244.199 330.194C244.799 329.961 245.308 329.649 245.816 329.141C246.323 328.634 246.635 328.125 246.869 327.525C247.094 326.944 247.249 326.281 247.293 325.309C247.337 324.335 247.347 324.025 247.347 321.546C247.347 319.067 247.337 318.756 247.293 317.782C247.248 316.811 247.094 316.147 246.869 315.567C246.635 314.967 246.323 314.458 245.816 313.95C245.309 313.443 244.799 313.13 244.2 312.897C243.619 312.671 242.955 312.517 241.984 312.473C241.011 312.429 240.7 312.418 238.221 312.418C235.741 312.418 235.431 312.428 234.457 312.473Z" fill="#9F06FF"/>
</g>
<path d="M246.025 202.924L241.263 193.739H235.971L240.733 202.924H246.025ZM235.389 194.786L230.679 203.263L233.326 208.026L237.944 199.713L235.389 194.786ZM236.736 203.944L234.468 208.026H244.074L246.554 203.944H236.736Z" fill="#9F06FF"/>
<path d="M231.858 277.497L238.22 281.412L233.815 285.07L227.505 280.976L231.858 277.497ZM244.557 284.621V286.007L238.246 289.768V289.781L238.233 289.768L238.22 289.781V289.768L231.922 286.007V284.621L233.815 285.853L238.22 282.208V282.182L238.233 282.195L238.246 282.182V282.208L242.663 285.853L244.557 284.621ZM233.815 269.937L238.22 273.595L231.858 277.497L227.505 274.032L233.815 269.937ZM244.582 277.497L248.935 280.976L242.638 285.07L238.22 281.412L244.582 277.497ZM242.638 269.937L248.935 274.032L244.582 277.497L238.22 273.595L242.638 269.937Z" fill="#9F06FF"/>
<g clip-path="url(#clip1_110_26)">
<path d="M238.398 237.145L239.228 236.314C239.52 236.022 239.866 235.791 240.246 235.633C240.627 235.475 241.035 235.394 241.447 235.394C241.86 235.394 242.268 235.475 242.649 235.633C243.029 235.79 243.375 236.021 243.667 236.313C243.958 236.604 244.19 236.95 244.347 237.331C244.505 237.712 244.586 238.12 244.586 238.532C244.586 238.944 244.505 239.353 244.347 239.733C244.189 240.114 243.957 240.46 243.666 240.751L241.649 242.768C241.357 243.06 241.012 243.291 240.631 243.448C240.25 243.606 239.842 243.687 239.43 243.687C239.018 243.687 238.61 243.606 238.229 243.448C237.849 243.291 237.503 243.06 237.211 242.768" stroke="#9F06FF" stroke-width="3" stroke-linecap="round" stroke-linejoin="round"/>
<path d="M238.042 246.375L237.211 247.206C236.92 247.497 236.574 247.729 236.194 247.887C235.813 248.044 235.405 248.126 234.992 248.126C234.58 248.126 234.172 248.045 233.791 247.887C233.41 247.729 233.064 247.498 232.773 247.207C232.482 246.915 232.25 246.569 232.093 246.188C231.935 245.808 231.854 245.399 231.854 244.987C231.854 244.575 231.935 244.167 232.093 243.786C232.251 243.406 232.482 243.06 232.774 242.768L234.791 240.751C235.082 240.46 235.428 240.229 235.809 240.071C236.19 239.913 236.598 239.832 237.01 239.832C237.422 239.832 237.83 239.913 238.211 240.071C238.591 240.229 238.937 240.46 239.228 240.751" stroke="#9F06FF" stroke-width="3" stroke-linecap="round" stroke-linejoin="round"/>
</g>
<path d="M247.348 163.536C247.348 163.735 247.252 163.945 247.06 164.169L243.937 167.964C243.671 168.29 243.298 168.566 242.817 168.793C242.337 169.02 241.893 169.133 241.484 169.133H231.373C231.162 169.133 230.975 169.092 230.81 169.009C230.646 168.926 230.564 168.788 230.564 168.597C230.564 168.398 230.66 168.188 230.852 167.964L233.975 164.169C234.241 163.843 234.614 163.567 235.095 163.34C235.575 163.113 236.019 163 236.428 163H246.539C246.75 163 246.937 163.041 247.102 163.124C247.266 163.207 247.348 163.345 247.348 163.536ZM244.16 160.24V161.773H236.428C235.846 161.773 235.236 161.925 234.597 162.228C233.959 162.532 233.451 162.914 233.073 163.374L229.942 167.169L229.895 167.226C229.895 167.201 229.893 167.161 229.89 167.106C229.887 167.052 229.886 167.012 229.886 166.986V157.786C229.886 157.199 230.09 156.694 230.499 156.272C230.908 155.851 231.397 155.64 231.967 155.64H234.941C235.511 155.64 236.001 155.851 236.41 156.272C236.819 156.694 237.023 157.199 237.023 157.786V158.093H242.079C242.649 158.093 243.138 158.304 243.547 158.726C243.956 159.147 244.16 159.652 244.16 160.24V160.24Z" fill="#9F06FF"/>
<g clip-path="url(#clip2_110_26)">
<mask id="mask1_110_26" style="mask-type:luminance" maskUnits="userSpaceOnUse" x="566" y="34" width="26" height="26">
<path d="M566.429 34.1985H591.828V59.5979H566.429V34.1985Z" fill="white"/>
</mask>
<g mask="url(#mask1_110_26)">
<path d="M591.16 56.2559C591.16 56.965 590.878 57.645 590.377 58.1464C589.876 58.6478 589.196 58.9295 588.486 58.9295H569.771C569.062 58.9295 568.382 58.6478 567.88 58.1464C567.379 57.645 567.097 56.965 567.097 56.2559V37.5405C567.097 36.8314 567.379 36.1514 567.88 35.65C568.382 35.1486 569.062 34.8669 569.771 34.8669H588.486C589.196 34.8669 589.876 35.1486 590.377 35.65C590.878 36.1514 591.16 36.8314 591.16 37.5405V56.2559Z" fill="#9F06FF"/>
<path d="M581.152 46.8946L585.853 42.1941C585.986 42.0617 586.091 41.9045 586.163 41.7314C586.235 41.5584 586.271 41.3729 586.271 41.1855C586.271 40.9982 586.235 40.8127 586.163 40.6397C586.091 40.4666 585.986 40.3094 585.853 40.177C585.721 40.0445 585.564 39.9393 585.391 39.8676C585.217 39.7958 585.032 39.7589 584.845 39.7589C584.657 39.7589 584.472 39.7958 584.299 39.8676C584.126 39.9393 583.968 40.0445 583.836 40.177L579.135 44.8776L574.433 40.177C574.301 40.0436 574.144 39.9376 573.971 39.8651C573.797 39.7926 573.611 39.7551 573.423 39.7546C573.236 39.7542 573.049 39.7909 572.876 39.8625C572.702 39.9342 572.544 40.0395 572.411 40.1723C572.279 40.3051 572.173 40.4629 572.102 40.6365C572.03 40.8101 571.993 40.9962 571.993 41.184C571.994 41.3719 572.031 41.5578 572.104 41.7311C572.176 41.9045 572.282 42.0618 572.416 42.1941L577.117 46.8946L572.405 51.6065C572.205 51.8058 572.068 52.06 572.013 52.3369C571.957 52.6137 571.985 52.9008 572.094 53.1617C572.202 53.4226 572.385 53.6455 572.62 53.8022C572.855 53.9589 573.131 54.0423 573.413 54.0418C573.778 54.0418 574.144 53.9026 574.422 53.6236L579.135 48.9116L583.836 53.6122C583.968 53.7448 584.126 53.85 584.299 53.9217C584.472 53.9933 584.657 54.0301 584.845 54.0299C585.127 54.0302 585.403 53.9468 585.638 53.7901C585.873 53.6335 586.056 53.4106 586.164 53.1499C586.272 52.8891 586.3 52.6021 586.245 52.3253C586.189 52.0486 586.053 51.7944 585.853 51.5951L581.152 46.8946Z" fill="white"/>
</g>
</g>
<line x1="202.105" y1="140.852" x2="591.828" y2="140.852" stroke="#979797"/>
<line x1="202.105" y1="180.539" x2="591.828" y2="180.539" stroke="#979797"/>
<line x1="202.105" y1="220.226" x2="591.828" y2="220.226" stroke="#979797"/>
<line x1="202.105" y1="259.913" x2="591.828" y2="259.913" stroke="#979797"/>
<line x1="202.105" y1="299.599" x2="591.828" y2="299.599" stroke="#979797"/>
</g>
<defs>
<filter id="filter0_d_110_26" x="0.759766" y="402.829" width="764.872" height="41.2679" filterUnits="userSpaceOnUse" color-interpolation-filters="sRGB">
<feFlood flood-opacity="0" result="BackgroundImageFix"/>
<feColorMatrix in="SourceAlpha" type="matrix" values="0 0 0 0 0 0 0 0 0 0 0 0 0 0 0 0 0 0 127 0" result="hardAlpha"/>
<feOffset dy="14"/>
<feGaussianBlur stdDeviation="7"/>
<feColorMatrix type="matrix" values="0 0 0 0 0 0 0 0 0 0 0 0 0 0 0 0 0 0 0.1 0"/>
<feBlend mode="normal" in2="BackgroundImageFix" result="effect1_dropShadow_110_26"/>
<feBlend mode="normal" in="SourceGraphic" in2="effect1_dropShadow_110_26" result="shape"/>
</filter>
<filter id="filter1_d_110_26" x="190.074" y="31.7546" width="50.2559" height="50.2559" filterUnits="userSpaceOnUse" color-interpolation-filters="sRGB">
<feFlood flood-opacity="0" result="BackgroundImageFix"/>
<feColorMatrix in="SourceAlpha" type="matrix" values="0 0 0 0 0 0 0 0 0 0 0 0 0 0 0 0 0 0 127 0" result="hardAlpha"/>
<feOffset dy="8"/>
<feGaussianBlur stdDeviation="8"/>
<feColorMatrix type="matrix" values="0 0 0 0 0 0 0 0 0 0 0 0 0 0 0 0 0 0 0.0535402 0"/>
<feBlend mode="normal" in2="BackgroundImageFix" result="effect1_dropShadow_110_26"/>
<feBlend mode="normal" in="SourceGraphic" in2="effect1_dropShadow_110_26" result="shape"/>
</filter>
<filter id="filter2_d_110_26" x="190.074" y="368.298" width="50.2559" height="50.2559" filterUnits="userSpaceOnUse" color-interpolation-filters="sRGB">
<feFlood flood-opacity="0" result="BackgroundImageFix"/>
<feColorMatrix in="SourceAlpha" type="matrix" values="0 0 0 0 0 0 0 0 0 0 0 0 0 0 0 0 0 0 127 0" result="hardAlpha"/>
<feOffset dy="8"/>
<feGaussianBlur stdDeviation="8"/>
<feColorMatrix type="matrix" values="0 0 0 0 0 0 0 0 0 0 0 0 0 0 0 0 0 0 0.0535402 0"/>
<feBlend mode="normal" in2="BackgroundImageFix" result="effect1_dropShadow_110_26"/>
<feBlend mode="normal" in="SourceGraphic" in2="effect1_dropShadow_110_26" result="shape"/>
</filter>
<linearGradient id="paint0_linear_110_26" x1="36858.3" y1="1729.62" x2="36858.3" y2="402.829" gradientUnits="userSpaceOnUse">
<stop stop-color="#A4A4A4"/>
<stop offset="1" stop-color="white"/>
</linearGradient>
<linearGradient id="paint1_linear_110_26" x1="426.562" y1="762.912" x2="825.971" y2="453.069" gradientUnits="userSpaceOnUse">
<stop stop-color="#CD10FF"/>
<stop offset="1" stop-color="#9F06FF"/>
</linearGradient>
<clipPath id="clip0_110_26">
<rect width="18.2559" height="18.2559" fill="white" transform="translate(229.092 312.418)"/>
</clipPath>
<clipPath id="clip1_110_26">
<rect width="18.2559" height="18.2559" fill="white" transform="translate(229.092 232.632)"/>
</clipPath>
<clipPath id="clip2_110_26">
<rect width="25.3995" height="25.3995" fill="white" transform="translate(566.429 34.1985)"/>
</clipPath>
</defs>
</svg>
