<svg width="44" height="45" viewBox="0 0 44 45" fill="none" xmlns="http://www.w3.org/2000/svg">
<rect y="0.333496" width="44" height="44" rx="5" fill="#0E76A8" fill-opacity="0.08"/>
<g clip-path="url(#clip0_108_152)">
<path d="M31.9951 32.3335V32.3327H32.0001V24.9977C32.0001 21.4094 31.2276 18.6452 27.0326 18.6452C25.0159 18.6452 23.6626 19.7519 23.1101 20.801H23.0517V18.9802H19.0742V32.3327H23.2159V25.721C23.2159 23.9802 23.5459 22.2969 25.7017 22.2969C27.8259 22.2969 27.8576 24.2835 27.8576 25.8327V32.3335H31.9951Z" fill="#0E76A8"/>
<path d="M12.3301 18.981H16.4767V32.3335H12.3301V18.981Z" fill="#0E76A8"/>
<path d="M14.4017 12.3335C13.0758 12.3335 12 13.4093 12 14.7352C12 16.061 13.0758 17.1593 14.4017 17.1593C15.7275 17.1593 16.8033 16.061 16.8033 14.7352C16.8025 13.4093 15.7267 12.3335 14.4017 12.3335V12.3335Z" fill="#0E76A8"/>
</g>
<defs>
<clipPath id="clip0_108_152">
<rect width="20" height="20" fill="white" transform="translate(12 12.3335)"/>
</clipPath>
</defs>
</svg>
