<svg width="50" height="32" viewBox="0 0 50 32" fill="none" xmlns="http://www.w3.org/2000/svg">
<g id="Layer_1" clip-path="url(#clip0_1_4483)">
<path id="Vector" d="M43.7697 13.6684C41.7212 14.5413 39.7919 15.3742 37.8476 16.1731C37.7002 16.2338 37.404 16.1051 37.2566 15.9749C34.5933 13.6122 31.5354 12.0041 28.0161 11.3857C22.295 10.3812 17.1738 11.7777 12.6734 15.4097C11.8338 16.0873 11.0805 16.8699 10.2632 17.5682C13.6932 12.0218 18.4794 8.27002 25.0327 7.18116C32.3617 5.96359 38.5354 8.38097 43.7697 13.667V13.6684Z" fill="#9F06FF"/>
<path id="Vector_2" d="M0 27.4894C0.256059 24.5247 0.875365 21.6368 1.98446 18.8718C5.20157 10.8518 10.6399 4.94297 18.8159 1.77404C28.954 -2.15532 40.8772 0.603813 48.2731 8.4862C48.6602 8.89896 48.7033 9.35758 48.3833 9.68453C48.0349 10.0411 47.5838 10.0159 47.1461 9.5721C44.9086 7.31005 42.3897 5.43562 39.5016 4.07011C35.4478 2.15573 31.1797 1.29618 26.7016 1.66456C17.025 2.46197 10.0414 7.41509 5.26112 15.623C3.14119 19.2609 1.96957 23.2287 1.6093 27.4258C1.60335 27.4983 1.59293 27.5693 1.57953 27.6403C1.47532 28.1818 1.16864 28.4511 0.704163 28.4096C0.244149 28.3697 -0.010421 28.0353 0.00148872 27.488L0 27.4894Z" fill="#9F06FF"/>
<path id="Vector_3" d="M41.5457 16.3906C38.2675 19.1408 34.9924 21.897 31.7038 24.6354C31.3018 24.9698 31.1351 25.3115 31.1768 25.8441C31.4046 28.8311 29.1447 31.605 26.2357 31.9512C23.0648 32.3299 20.2169 30.3519 19.6854 27.3117C19.276 24.9757 20.0323 22.9992 21.9706 21.5952C23.9223 20.1809 26.0496 20.0611 28.177 21.2061C28.777 21.5286 29.2444 21.5331 29.8489 21.2727C33.6272 19.6409 37.419 18.0416 41.2078 16.4335C41.3045 16.3921 41.4043 16.3566 41.5025 16.3196C41.5174 16.3433 41.5308 16.3669 41.5457 16.3906ZM25.3901 22.8439C23.5054 22.8424 21.9497 24.3839 21.9542 26.248C21.9587 28.1106 23.5337 29.6566 25.405 29.6374C27.2763 29.6181 28.8023 28.1062 28.8127 26.2598C28.8246 24.3928 27.2734 22.8453 25.3887 22.8439H25.3901Z" fill="#9F06FF"/>
<path id="Vector_4" d="M45.163 15.3624C47.9693 19.0876 49.5294 23.2241 49.9984 27.8725C49.6128 27.8725 49.2734 27.8725 48.9339 27.8725C47.408 27.8725 45.8806 27.8695 44.3546 27.8754C44.0852 27.8754 43.8619 27.8754 43.7949 27.5307C43.2232 24.6443 42.0665 22.0006 40.414 19.567C40.3947 19.5388 40.3902 19.4989 40.356 19.4013C41.928 18.0816 43.518 16.7457 45.1645 15.3624H45.163Z" fill="#9F06FF"/>
</g>
<defs>
<clipPath id="clip0_1_4483">
<rect width="50" height="32" fill="white"/>
</clipPath>
</defs>
</svg>
