<svg width="35" height="35" viewBox="0 0 35 35" fill="none" xmlns="http://www.w3.org/2000/svg">
<g id="Repeat">
<path id="Path 2 Copy" d="M32.1849 8.42537C32.8115 8.0337 32.8115 7.12104 32.1849 6.72938L23.405 1.24196C22.7389 0.825676 21.875 1.30452 21.875 2.08996V13.0648C21.875 13.8502 22.739 14.3291 23.405 13.9128L32.1849 8.42537Z" fill="#AF3EFF"/>
<path id="Path 2 Copy 2" d="M2.98066 27.3836C2.35399 26.992 2.35399 26.0793 2.98066 25.6876L11.7605 20.2002C12.4266 19.7839 13.2905 20.2628 13.2905 21.0482V32.023C13.2905 32.8085 12.4266 33.2873 11.7605 32.871L2.98066 27.3836Z" fill="#AF3EFF"/>
<path id="Path 4" d="M5.8335 16.0416V16.0416C5.8335 11.2091 9.751 7.29163 14.5835 7.29163V7.29163H21.8752" stroke="#AF3EFF" stroke-width="2" stroke-linecap="round" stroke-linejoin="round"/>
<path id="Path 4 Copy" d="M27.7085 17.5V17.5C27.7085 22.3325 23.791 26.25 18.9585 26.25V26.25H11.6668" stroke="#AF3EFF" stroke-width="2" stroke-linecap="round" stroke-linejoin="round"/>
</g>
</svg>
