<svg width="43" height="43" viewBox="0 0 43 43" fill="none" xmlns="http://www.w3.org/2000/svg">
<g id="Page" clip-path="url(#clip0_68_884)">
<path id="Vector" d="M3.36182 0C7.9802 0 12.5996 0 17.218 0C17.2548 0.018933 17.2885 0.0473325 17.3274 0.0557472C19.1638 0.444925 20.2503 1.56934 20.508 3.42267C20.7657 5.2781 20.9813 7.13879 21.2127 8.99843C21.5903 12.0372 21.9636 15.0759 22.3402 18.1147C22.6904 20.9452 23.0428 23.7756 23.3941 26.6061C23.7043 29.1032 24.0178 31.6002 24.3207 34.0983C24.3933 34.6979 23.839 35.4405 23.3446 35.4405C16.8667 35.4415 10.3888 35.451 3.9098 35.4247C3.32711 35.4226 2.6971 35.2911 2.17121 35.045C0.699763 34.355 0.012949 33.1138 0.00558656 31.5056C-0.00703483 28.8192 0.00243121 26.1328 0.00243121 23.4464C0.00243121 16.9682 0.00348299 10.4899 0.00137943 4.01064C0.000327647 2.6685 0.44418 1.51569 1.57274 0.756268C2.09968 0.400748 2.76126 0.246129 3.36182 0ZM13.1676 19.0845C13.4316 20.4161 13.683 21.7193 13.9512 23.0194C14.1068 23.7756 14.7726 24.2311 15.4563 24.0765C16.1662 23.9155 16.5701 23.2666 16.4176 22.5071C15.5962 18.3976 14.7737 14.2881 13.948 10.1786C13.7818 9.35185 13.3317 8.99212 12.4797 8.98791C11.7519 8.98371 11.0251 8.98476 10.2973 8.98791C9.42009 8.99212 8.98044 9.34449 8.80795 10.2028C7.99072 14.2702 7.17769 18.3398 6.36571 22.4083C6.19322 23.2708 6.57502 23.9271 7.32599 24.0828C8.04436 24.2321 8.65544 23.7588 8.82583 22.9163C9.08352 21.6446 9.33805 20.373 9.59679 19.0855H13.1665L13.1676 19.0845Z" fill="#EDB7FF"/>
<path id="Vector_2" d="M42.9998 11.0852V39.6393C42.9788 39.6909 42.9493 39.7414 42.9399 39.795C42.5686 41.7598 41.0961 42.9947 39.0703 42.9968C32.9679 43.0042 26.8665 43 20.7641 42.9979C20.6642 42.9979 20.5642 42.9768 20.417 42.96C22.2176 40.9005 23.9699 38.8831 25.7401 36.8804C26.5447 35.9706 26.9422 34.9229 26.815 33.7228C26.6257 31.9294 26.3795 30.1413 26.1566 28.3511C25.7811 25.326 25.4045 22.2999 25.028 19.2748C24.6494 16.2361 24.2686 13.1973 23.89 10.1575C23.7869 9.33182 23.6891 8.50508 23.5881 7.67623C23.6786 7.65835 23.7196 7.64363 23.7596 7.64363C28.9101 7.64363 34.0607 7.63311 39.2102 7.64994C40.4072 7.65415 41.3927 8.16218 42.1521 9.10462C42.6233 9.68944 42.8378 10.3731 43.0009 11.0842L42.9998 11.0852ZM32.3495 27.0931C32.1927 27.2298 32.0697 27.3434 31.9414 27.4496C31.1525 28.0976 30.3595 28.7402 29.5717 29.3903C29.1615 29.729 28.9722 30.1623 29.1026 30.6935C29.2278 31.2015 29.5664 31.516 30.0724 31.6317C30.5183 31.7338 30.8938 31.5634 31.2346 31.2857C32.1854 30.5084 33.1372 29.7332 34.1091 28.9411C34.23 29.04 34.3468 29.1368 34.4646 29.2304C35.3502 29.9362 36.2284 30.6514 37.1256 31.3425C37.7588 31.8305 38.514 31.7432 38.9525 31.17C39.3953 30.5915 39.2828 29.8499 38.6633 29.3566C38.1932 28.9822 37.7072 28.6267 37.2371 28.2522C36.7701 27.8799 36.3136 27.4949 35.8382 27.1025C37.215 25.4291 38.25 23.621 38.8779 21.5972C39.0083 21.5909 39.1061 21.5867 39.2029 21.5825C39.9538 21.5436 40.4913 21.003 40.4776 20.2993C40.464 19.5967 39.9139 19.0802 39.1545 19.0655C38.7348 19.0571 38.3152 19.0634 37.8955 19.0634C37.0604 19.0634 36.2263 19.0634 35.3576 19.0634C35.3576 18.6563 35.3607 18.2955 35.3576 17.9348C35.3491 17.1154 34.8359 16.5506 34.1028 16.5474C33.3686 16.5442 32.8491 17.1101 32.8396 17.9253C32.8354 18.2966 32.8396 18.6689 32.8396 19.0634C31.609 19.0634 30.4352 19.0613 29.2614 19.0634C28.3927 19.0655 27.8236 19.5462 27.8037 20.2888C27.7837 21.0124 28.3117 21.5099 29.152 21.5909C29.2667 21.6025 29.4329 21.7182 29.4676 21.8213C30.1113 23.7346 31.0442 25.488 32.3505 27.091L32.3495 27.0931Z" fill="#EDB7FF"/>
<path id="Vector_3" d="M13.168 19.0845H9.59823C9.33949 20.372 9.08496 21.6436 8.82728 22.9153C8.65689 23.7578 8.04685 24.2311 7.32743 24.0818C6.57646 23.9261 6.19466 23.2698 6.36716 22.4072C7.17913 18.3388 7.99216 14.2692 8.80939 10.2018C8.98189 9.34348 9.42153 8.99111 10.2987 8.98691C11.0266 8.98375 11.7533 8.9827 12.4812 8.98691C13.3331 8.99217 13.7833 9.35084 13.9495 10.1776C14.7762 14.286 15.5976 18.3956 16.419 22.5061C16.5705 23.2645 16.1677 23.9145 15.4577 24.0755C14.7741 24.2301 14.1083 23.7746 13.9526 23.0184C13.6844 21.7183 13.433 20.4151 13.169 19.0835L13.168 19.0845ZM11.1075 11.5239C10.7752 13.1932 10.4439 14.8519 10.1115 16.5191H12.6537C12.3171 14.8372 11.9868 13.1848 11.6545 11.5239H11.1065H11.1075Z" fill="#9F06FF"/>
<path id="Vector_4" d="M32.3501 27.0931C31.0438 25.4902 30.1109 23.7367 29.4672 21.8235C29.4325 21.7204 29.2663 21.6047 29.1517 21.5931C28.3113 21.5121 27.7833 21.0146 27.8033 20.2909C27.8233 19.5484 28.3923 19.0666 29.2611 19.0656C30.4348 19.0635 31.6076 19.0656 32.8392 19.0656C32.8392 18.6711 32.8361 18.2988 32.8392 17.9275C32.8487 17.1123 33.3693 16.5464 34.1024 16.5496C34.8355 16.5527 35.3477 17.1176 35.3572 17.9369C35.3614 18.2977 35.3572 18.6585 35.3572 19.0656C36.226 19.0656 37.06 19.0656 37.8951 19.0656C38.3148 19.0656 38.7345 19.0592 39.1541 19.0677C39.9135 19.0824 40.4625 19.5988 40.4773 20.3015C40.4909 21.0051 39.9545 21.5458 39.2025 21.5847C39.1057 21.59 39.0079 21.5942 38.8775 21.5994C38.2496 23.6232 37.2136 25.4313 35.8378 27.1047C36.3133 27.496 36.7697 27.882 37.2367 28.2544C37.7069 28.6288 38.1938 28.9833 38.6629 29.3588C39.2824 29.8532 39.395 30.5936 38.9522 31.1722C38.5136 31.7454 37.7584 31.8327 37.1252 31.3447C36.2281 30.6536 35.3498 29.9384 34.4642 29.2326C34.3464 29.139 34.2297 29.0422 34.1087 28.9433C33.1369 29.7354 32.185 30.5106 31.2342 31.2879C30.8945 31.5655 30.519 31.7359 30.072 31.6339C29.5661 31.5172 29.2274 31.2037 29.1022 30.6957C28.9718 30.1645 29.1611 29.7311 29.5713 29.3925C30.3581 28.7424 31.1511 28.0987 31.941 27.4518C32.0704 27.3456 32.1924 27.233 32.3491 27.0953L32.3501 27.0931ZM32.0525 21.5984C32.5531 22.9405 33.2158 24.1249 34.1045 25.2198C34.9964 24.087 35.74 22.9395 36.2217 21.5984H32.0514H32.0525Z" fill="#9F06FF"/>
<path id="Vector_5" d="M14.7422 37.9806H21.3242C19.9012 39.5478 18.5265 41.0625 17.155 42.5729C15.5584 41.8724 14.9063 40.769 14.7422 37.9806Z" fill="#EDB7FF"/>
<path id="Vector_6" d="M11.1083 11.5239H11.6562C11.9886 13.1858 12.3189 14.8372 12.6554 16.5191H10.1133C10.4456 14.8509 10.7759 13.1932 11.1093 11.5239H11.1083Z" fill="#EDB7FF"/>
<path id="Vector_7" d="M32.0518 21.5984H36.2221C35.7393 22.9384 34.9967 24.087 34.1048 25.2199C33.2161 24.1259 32.5535 22.9405 32.0528 21.5984H32.0518Z" fill="#EDB7FF"/>
</g>
<defs>
<clipPath id="clip0_68_884">
<rect width="43" height="43" fill="white"/>
</clipPath>
</defs>
</svg>
