<svg width="41" height="39" viewBox="0 0 41 39" fill="none" xmlns="http://www.w3.org/2000/svg">
<g id="Layer_1" clip-path="url(#clip0_68_899)">
<path id="Vector" d="M33.33 0H4.4524C1.99341 0 0 1.99341 0 4.4524V33.6905C0 36.1495 1.99341 38.1429 4.4524 38.1429H33.33C35.7889 38.1429 37.7824 36.1495 37.7824 33.6905V4.4524C37.7824 1.99341 35.7889 0 33.33 0Z" fill="#DBDBDB"/>
<path id="Vector_2" d="M0 7.82557V4.45122C0 1.99351 1.99351 0 4.4524 0H33.3311C35.79 0 37.7835 1.99351 37.7835 4.4524V7.82675H0V7.82557Z" fill="#9F06FF"/>
<path id="Vector_3" d="M28.1644 10.9502H9.61724C8.42581 10.9502 7.45996 11.916 7.45996 13.1075V23.5934C7.45996 24.7848 8.42581 25.7507 9.61724 25.7507H28.1644C29.3558 25.7507 30.3217 24.7848 30.3217 23.5934V13.1075C30.3217 11.916 29.3558 10.9502 28.1644 10.9502Z" fill="white"/>
<path id="Vector_4" d="M18.8915 23.4331C21.6993 23.4331 23.9754 21.1569 23.9754 18.3492C23.9754 15.5414 21.6993 13.2653 18.8915 13.2653C16.0838 13.2653 13.8076 15.5414 13.8076 18.3492C13.8076 21.1569 16.0838 23.4331 18.8915 23.4331Z" fill="#9F06FF"/>
<path id="Vector_5" d="M18.0024 18.5102C18.0024 18.1362 17.9959 17.7622 18.0043 17.3882C18.0126 17.0242 18.2441 16.9023 18.5991 17.0818C19.3148 17.4424 20.0259 17.8106 20.7332 18.1846C21.0929 18.3749 21.0883 18.6295 20.723 18.8224C20.0259 19.1905 19.3251 19.5537 18.6205 19.911C18.245 20.1013 18.0117 19.9811 18.0043 19.6013C17.9968 19.2381 18.0024 18.8741 18.0024 18.5102Z" fill="#EDB7FF"/>
<path id="Vector_6" d="M4.20612 5.1864C4.79565 5.1864 5.27356 4.70849 5.27356 4.11896C5.27356 3.52942 4.79565 3.05151 4.20612 3.05151C3.61658 3.05151 3.13867 3.52942 3.13867 4.11896C3.13867 4.70849 3.61658 5.1864 4.20612 5.1864Z" fill="#EDB7FF"/>
<path id="Vector_7" d="M7.17389 5.1864C7.76342 5.1864 8.24133 4.70849 8.24133 4.11896C8.24133 3.52942 7.76342 3.05151 7.17389 3.05151C6.58436 3.05151 6.10645 3.52942 6.10645 4.11896C6.10645 4.70849 6.58436 5.1864 7.17389 5.1864Z" fill="#EDB7FF"/>
<path id="Vector_8" d="M10.1426 5.1864C10.7322 5.1864 11.2101 4.70849 11.2101 4.11896C11.2101 3.52942 10.7322 3.05151 10.1426 3.05151C9.55311 3.05151 9.0752 3.52942 9.0752 4.11896C9.0752 4.70849 9.55311 5.1864 10.1426 5.1864Z" fill="#EDB7FF"/>
<path id="Vector_9" d="M32.1563 30.7438H5.62573C4.54556 30.7438 3.66992 31.6192 3.66992 32.699C3.66992 33.7788 4.54556 34.6542 5.62573 34.6542H32.1563C33.2365 34.6542 34.1121 33.7788 34.1121 32.699C34.1121 31.6192 33.2365 30.7438 32.1563 30.7438Z" fill="#B9B9B9"/>
<path id="Vector_10" d="M32.9985 3.00562H22.4054C21.7905 3.00562 21.292 3.50384 21.292 4.11842C21.292 4.73301 21.7905 5.23123 22.4054 5.23123H32.9985C33.6134 5.23123 34.1119 4.73301 34.1119 4.11842C34.1119 3.50384 33.6134 3.00562 32.9985 3.00562Z" fill="white"/>
<path id="Vector_11" d="M23.4824 34.6543H6.04634C4.73383 34.6543 3.66992 33.7789 3.66992 32.6985C3.66992 31.6181 4.73383 30.7427 6.04634 30.7427H23.4824V34.6531V34.6543Z" fill="#9F06FF"/>
<path id="Vector_12" d="M35.0446 38.1429C38.3339 38.1429 41.0004 35.4764 41.0004 32.1871C41.0004 28.8978 38.3339 26.2313 35.0446 26.2313C31.7554 26.2313 29.0889 28.8978 29.0889 32.1871C29.0889 35.4764 31.7554 38.1429 35.0446 38.1429Z" fill="#9F06FF"/>
<path id="Vector_13" d="M35 35C35.0924 35 35.1703 34.9682 35.2336 34.9047L36.905 33.2271C36.9683 33.1601 37 33.082 37 32.9926C37 32.905 36.9683 32.8277 36.905 32.7607L36.7125 32.5675C36.6474 32.5022 36.5695 32.4695 36.4788 32.4695C36.3881 32.4695 36.3102 32.5022 36.2452 32.5675L35.4929 33.3225L35.4929 30.3015C35.4929 30.2122 35.4608 30.1396 35.3967 30.0837C35.3325 30.0279 35.255 30 35.1643 30L34.8357 30C34.745 30 34.6675 30.0279 34.6033 30.0837C34.5392 30.1396 34.5071 30.2122 34.5071 30.3015L34.5071 33.3225L33.7522 32.5675C33.6906 32.5022 33.6136 32.4695 33.5212 32.4695C33.4288 32.4695 33.3517 32.5022 33.2901 32.5675L33.0976 32.7607C33.0325 32.826 33 32.9033 33 32.9926C33 33.0837 33.0325 33.1619 33.0976 33.2271L34.7689 34.9047C34.8288 34.9682 34.9059 35 35 35Z" fill="#FCF3FF"/>
</g>
<defs>
<clipPath id="clip0_68_899">
<rect width="41" height="38.1429" fill="white"/>
</clipPath>
</defs>
</svg>
