<svg width="38" height="37" viewBox="0 0 38 37" fill="none" xmlns="http://www.w3.org/2000/svg">
<g id="Group">
<path id="Vector" d="M18.4738 36.9918C14.4671 36.9918 10.4604 36.9939 6.45479 36.9918C3.32537 36.9898 0.795163 34.9556 0.132343 31.8951C0.0492336 31.5117 0.00819197 31.1108 0.00716593 30.7171C-1.63365e-05 22.5702 -0.00309433 14.4234 0.00408794 6.2765C0.00716606 3.16785 2.37013 0.491872 5.45953 0.0715081C5.77555 0.0284464 6.09568 0.0038362 6.41375 0.0038362C14.4784 -0.00026492 22.542 -0.00128594 30.6067 0.00178989C34.1948 0.00281517 37.0205 2.8131 37.0225 6.3903C37.0276 14.4603 37.0276 22.5302 37.0225 30.6002C37.0205 34.1764 34.1937 36.9887 30.6077 36.9918C26.5631 36.9959 22.5184 36.9918 18.4728 36.9918H18.4738ZM13.8966 18.4978C13.8966 20.3772 13.9018 22.2565 13.8925 24.1358C13.8905 24.6392 14.0485 25.0422 14.502 25.2841C14.9719 25.5333 15.4131 25.4297 15.8297 25.1324C18.4512 23.2602 21.0748 21.3922 23.6933 19.5159C24.4987 18.9387 24.5007 18.0662 23.6953 17.4889C21.0666 15.6045 18.4317 13.7303 15.7999 11.8489C15.3916 11.5567 14.9617 11.4747 14.5061 11.7156C14.0495 11.9565 13.8884 12.3554 13.8905 12.8598C13.8997 14.7391 13.8946 16.6185 13.8946 18.4978H13.8966ZM14.7503 6.91832C15.0571 6.91832 15.3639 6.92447 15.6696 6.9173C16.5674 6.89474 17.2785 6.2078 17.3513 5.30043C17.419 4.45663 16.7685 3.60257 15.8995 3.52362C15.1412 3.45595 14.3666 3.45698 13.6073 3.52362C12.7454 3.59847 12.1113 4.41254 12.1534 5.25942C12.1986 6.18422 12.9137 6.89372 13.83 6.9173C14.1367 6.9255 14.4435 6.91832 14.7493 6.91832H14.7503ZM22.2404 6.91832C22.5595 6.91832 22.8796 6.9255 23.1987 6.9173C24.0975 6.89372 24.7983 6.2078 24.8691 5.2912C24.9348 4.44535 24.2843 3.59949 23.409 3.52259C22.6498 3.45595 21.8761 3.45698 21.1169 3.52465C20.2612 3.60052 19.6271 4.42382 19.6712 5.26865C19.7184 6.17089 20.4335 6.88859 21.32 6.91627C21.6258 6.9255 21.9326 6.91729 22.2394 6.91832H22.2404ZM29.7592 6.91832C30.0783 6.91832 30.3984 6.9255 30.7175 6.9173C31.6204 6.89269 32.3202 6.20677 32.3807 5.2912C32.4382 4.42279 31.8102 3.60154 30.9279 3.52259C30.1696 3.45595 29.3949 3.45595 28.6367 3.52567C27.7615 3.60564 27.1366 4.43612 27.1951 5.30761C27.2536 6.18935 27.9667 6.88961 28.8409 6.91627C29.1467 6.9255 29.4534 6.91729 29.7602 6.91832H29.7592ZM14.7411 33.5346C14.7411 33.5171 14.7411 33.5007 14.7411 33.4833C15.1238 33.4833 15.5106 33.5233 15.8872 33.4751C16.7593 33.3633 17.4118 32.5493 17.3513 31.7024C17.2877 30.7981 16.5726 30.0927 15.6809 30.0753C15.055 30.063 14.4292 30.0619 13.8033 30.0753C12.9106 30.0958 12.2088 30.8042 12.1534 31.7188C12.1031 32.5605 12.7393 33.3541 13.594 33.473C13.9715 33.5253 14.3573 33.5151 14.739 33.5325L14.7411 33.5346ZM29.7705 33.5346C30.1635 33.5161 30.5626 33.5274 30.9525 33.473C31.8092 33.3531 32.432 32.5677 32.3828 31.7137C32.3304 30.7991 31.6297 30.0958 30.7329 30.0753C30.107 30.0619 29.4811 30.0619 28.8553 30.0753C27.9749 30.0937 27.2628 30.7858 27.1951 31.6686C27.1284 32.5349 27.7574 33.3459 28.6223 33.471C28.9989 33.5253 29.3857 33.5151 29.7705 33.5335V33.5346ZM22.2866 30.0732C21.9675 30.0732 21.6473 30.066 21.3282 30.0742C20.4376 30.0999 19.7256 30.8083 19.6712 31.7137C19.6219 32.5554 20.255 33.388 21.1087 33.4638C21.8802 33.5325 22.6672 33.5325 23.4378 33.4638C24.2894 33.3869 24.9276 32.54 24.8681 31.7075C24.8024 30.7919 24.0996 30.0989 23.2049 30.0753C22.8981 30.0671 22.5913 30.0742 22.2855 30.0742L22.2866 30.0732ZM7.20995 6.91627C7.52905 6.91627 7.84918 6.92345 8.16827 6.91525C9.04451 6.89064 9.75966 6.20165 9.83148 5.32094C9.90125 4.4638 9.26819 3.60667 8.40324 3.5267C7.63268 3.45596 6.84571 3.45595 6.07413 3.52465C5.21328 3.60052 4.59766 4.41562 4.64383 5.2748C4.69411 6.19037 5.39079 6.88859 6.29165 6.91525C6.59741 6.92447 6.90419 6.91627 7.21098 6.9173L7.20995 6.91627ZM7.23355 30.0722C6.92677 30.0722 6.61998 30.066 6.31422 30.0732C5.40413 30.0958 4.71052 30.7704 4.64486 31.6901C4.5833 32.5626 5.20507 33.3879 6.08644 33.4669C6.84468 33.5346 7.61934 33.5346 8.37759 33.4669C9.24972 33.389 9.88484 32.5544 9.83148 31.6921C9.77608 30.7991 9.04964 30.0958 8.15288 30.0732C7.8461 30.066 7.54034 30.0722 7.23355 30.0722Z" fill="#EDB7FF"/>
<path id="Vector_2" d="M13.8967 18.4978C13.8967 16.6185 13.9018 14.7391 13.8926 12.8598C13.8905 12.3554 14.0516 11.9565 14.5082 11.7156C14.9638 11.4757 15.3927 11.5567 15.8021 11.8489C18.4338 13.7292 21.0687 15.6045 23.6974 17.4889C24.5029 18.0662 24.5008 18.9387 23.6954 19.5159C21.0769 21.3922 18.4523 23.2602 15.8318 25.1324C15.4152 25.4297 14.974 25.5333 14.5041 25.2841C14.0496 25.0422 13.8916 24.6392 13.8946 24.1358C13.9039 22.2565 13.8988 20.3771 13.8988 18.4978H13.8967Z" fill="#9F06FF"/>
<path id="Vector_3" d="M14.7492 6.91833C14.4424 6.91833 14.1357 6.92449 13.8299 6.91731C12.9136 6.89373 12.1985 6.18423 12.1533 5.25943C12.1113 4.41255 12.7454 3.5995 13.6072 3.52363C14.3665 3.45699 15.1401 3.45597 15.8994 3.52363C16.7685 3.60156 17.42 4.45664 17.3513 5.30044C17.2784 6.20782 16.5674 6.89476 15.6696 6.91731C15.3628 6.92551 15.056 6.91833 14.7502 6.91833H14.7492Z" fill="#9F06FF"/>
<path id="Vector_4" d="M22.2412 6.91834C21.9345 6.91834 21.6277 6.92552 21.3219 6.91629C20.4354 6.88861 19.7203 6.17091 19.6731 5.26867C19.629 4.42384 20.262 3.60054 21.1188 3.52467C21.878 3.457 22.6517 3.45597 23.4109 3.52261C24.2861 3.59951 24.9366 4.44536 24.871 5.29122C24.8002 6.20782 24.0994 6.89271 23.2006 6.91732C22.8815 6.92552 22.5624 6.91834 22.2423 6.91732L22.2412 6.91834Z" fill="#9F06FF"/>
<path id="Vector_5" d="M29.7592 6.91821C29.4524 6.91821 29.1456 6.92539 28.8399 6.91617C27.9657 6.88848 27.2526 6.18822 27.1941 5.3075C27.1366 4.43704 27.7615 3.60554 28.6357 3.52557C29.3939 3.45688 30.1686 3.45585 30.9268 3.52249C31.8102 3.60041 32.4371 4.42268 32.3797 5.2911C32.3192 6.20667 31.6204 6.89361 30.7165 6.91719C30.3974 6.9254 30.0783 6.91822 29.7582 6.91719L29.7592 6.91821Z" fill="#9F06FF"/>
<path id="Vector_6" d="M14.7409 33.5345C14.3592 33.5161 13.9724 33.5273 13.5958 33.4751C12.7411 33.3561 12.1039 32.5626 12.1552 31.7208C12.2106 30.8063 12.9125 30.0978 13.8051 30.0773C14.431 30.0629 15.0569 30.064 15.6828 30.0773C16.5744 30.0947 17.2895 30.8001 17.3531 31.7044C17.4127 32.5513 16.7601 33.3654 15.889 33.4771C15.5124 33.5253 15.1256 33.4853 14.7429 33.4853C14.7429 33.5027 14.7429 33.5191 14.7429 33.5366L14.7409 33.5345Z" fill="#9F06FF"/>
<path id="Vector_7" d="M29.7695 33.5355C29.3837 33.516 28.9979 33.5273 28.6214 33.473C27.7564 33.3489 27.1285 32.5369 27.1942 31.6705C27.2619 30.7868 27.974 30.0947 28.8543 30.0773C29.4802 30.0639 30.1061 30.0639 30.7319 30.0773C31.6287 30.0967 32.3295 30.8011 32.3818 31.7157C32.4311 32.5687 31.8083 33.3541 30.9515 33.475C30.5616 33.5294 30.1625 33.5181 29.7695 33.5366V33.5355Z" fill="#9F06FF"/>
<path id="Vector_8" d="M22.287 30.0743C22.5937 30.0743 22.9005 30.0671 23.2063 30.0753C24.101 30.0999 24.8038 30.793 24.8695 31.7075C24.929 32.5401 24.2898 33.3869 23.4392 33.4638C22.6686 33.5336 21.8806 33.5336 21.1101 33.4638C20.2564 33.388 19.6234 32.5554 19.6726 31.7137C19.726 30.8084 20.4391 30.0999 21.3297 30.0743C21.6488 30.065 21.9679 30.0732 22.288 30.0722L22.287 30.0743Z" fill="#9F06FF"/>
<path id="Vector_9" d="M7.20934 6.91833C6.90255 6.91833 6.59576 6.92551 6.29001 6.91731C5.39017 6.89065 4.69246 6.19244 4.64219 5.27686C4.59499 4.41768 5.21061 3.60258 6.07248 3.52671C6.84407 3.45904 7.63104 3.45801 8.40159 3.52876C9.26654 3.60873 9.89961 4.46586 9.82984 5.323C9.75904 6.20371 9.04287 6.8927 8.16663 6.91731C7.84753 6.92654 7.52843 6.91833 7.20831 6.91833H7.20934Z" fill="#9F06FF"/>
<path id="Vector_10" d="M7.23365 30.0744C7.54043 30.0744 7.84722 30.0682 8.15298 30.0754C9.04871 30.0979 9.77514 30.8013 9.83158 31.6943C9.88596 32.5566 9.25084 33.3901 8.37768 33.469C7.61944 33.5367 6.84478 33.5367 6.08654 33.469C5.20517 33.3901 4.58236 32.5648 4.64495 31.6922C4.71062 30.7726 5.40422 30.0979 6.31432 30.0754C6.6211 30.0682 6.92686 30.0744 7.23365 30.0744Z" fill="#9F06FF"/>
</g>
</svg>
