<svg width="47" height="47" viewBox="0 0 47 47" fill="none" xmlns="http://www.w3.org/2000/svg">
<g id="Page" clip-path="url(#clip0_68_859)">
<path id="Vector" d="M33.1146 19.691C32.0229 19.2991 30.9789 19.2127 29.922 19.4718C27.5661 20.0493 25.9556 22.0872 25.8964 24.5583C25.8797 25.2479 25.8938 25.9375 25.8938 26.7096C25.5527 26.7096 25.2399 26.7096 24.9283 26.7096C23.2483 26.7096 22.7282 27.0976 22.2777 28.705H19.6309C19.645 27.9677 19.9321 27.389 20.3556 26.8373C20.514 26.631 20.6067 26.2611 20.5384 26.0187C20.4033 25.5379 19.7969 25.4993 19.403 25.913C18.6731 26.6787 18.3242 27.6094 18.2624 28.696H16.733C16.6764 27.9419 16.8334 27.2046 17.1681 26.5343C17.4655 25.9375 17.862 25.3845 18.2611 24.8457C18.5958 24.3946 18.6576 24.0272 18.3461 23.741C18.0397 23.46 17.6264 23.5245 17.2557 23.9267C16.1138 25.1641 15.4804 26.622 15.371 28.3067C15.3633 28.4318 15.3491 28.5555 15.3324 28.736H14.7956C10.1534 28.736 5.51116 28.736 0.868964 28.736C0.0708045 28.736 0 28.6638 0 27.8427C0 18.8531 0 9.86353 0 0.873951C0 0.0657397 0.0682298 0 0.888274 0C11.33 0 21.7704 0 32.2122 0C33.0618 0 33.1159 0.0541385 33.1159 0.90102C33.1159 6.98001 33.1159 13.059 33.1159 19.1367V19.691H33.1146ZM16.5605 21.6889C20.6865 21.6567 23.9036 18.3904 23.8701 14.2668C23.8379 10.2554 20.5307 7.00836 16.5052 7.03414C12.4925 7.05992 9.19686 10.3804 9.22775 14.3673C9.25865 18.438 12.5453 21.7186 16.5592 21.6876L16.5605 21.6889Z" fill="#EDB7FF"/>
<path id="Vector_2" d="M35.0459 28.7786C35.0459 30.114 35.0523 31.4481 35.0446 32.7835C35.033 35.047 33.3466 36.7859 31.1645 36.7962C28.9953 36.8065 27.2587 35.0573 27.2458 32.8145C27.2304 30.065 27.2213 27.3142 27.2509 24.5648C27.2728 22.523 28.8383 20.8357 30.7719 20.6939C32.8805 20.5392 34.6185 21.8798 34.9905 23.9589C35.0382 24.2258 35.042 24.5029 35.0433 24.7749C35.0484 26.109 35.0459 27.4444 35.0459 28.7799V28.7786Z" fill="#EDB7FF"/>
<path id="Vector_3" d="M37.2616 29.4333C36.9436 29.4153 36.6926 29.4024 36.4209 29.3869V28.085C36.9783 28.085 37.528 28.0309 38.0559 28.1121C38.2631 28.1443 38.585 28.4807 38.5824 28.6767C38.5592 30.6489 38.8309 32.6391 38.4112 34.5919C37.7714 37.5618 35.2752 39.846 32.2641 40.2933C32.0697 40.3216 31.8315 40.2868 31.8328 40.6129C31.8392 42.2667 31.8354 43.9205 31.8354 45.6491C32.2203 45.6491 32.5679 45.6388 32.9142 45.6517C33.3647 45.6697 33.6467 45.9353 33.648 46.3155C33.648 46.6932 33.3686 46.9819 32.918 46.9884C31.7453 47.0051 30.5725 47.0064 29.401 46.9884C28.9105 46.9819 28.6479 46.6997 28.6659 46.2833C28.6826 45.8876 28.9401 45.6646 29.419 45.6491C29.7524 45.6388 30.0859 45.6465 30.445 45.6465C30.4618 45.4699 30.4824 45.3462 30.4824 45.2237C30.4849 43.7439 30.4759 42.2654 30.4901 40.7857C30.4927 40.4724 30.4116 40.3384 30.0807 40.2881C26.3783 39.7261 23.7173 36.6569 23.68 32.9149C23.6671 31.5963 23.6748 30.2776 23.6787 28.959C23.6813 28.2938 23.9091 28.0683 24.5811 28.0605C24.9957 28.0554 25.4115 28.0605 25.8595 28.0605V29.3856C25.5891 29.4037 25.3381 29.4204 25.0266 29.4411C25.0266 30.5986 25.0098 31.7342 25.0343 32.8685C25.0446 33.3468 25.0986 33.8327 25.2042 34.2993C25.8723 37.2576 28.7264 39.3149 31.7118 39.0094C34.8439 38.6884 37.2242 36.1143 37.259 32.9962C37.2719 31.8244 37.2616 30.6514 37.2616 29.432V29.4333Z" fill="#EDB7FF"/>
<path id="Vector_4" d="M46.9995 28.745C46.9184 30.5999 46.294 32.2125 45.026 33.5518C44.8445 33.7438 44.4956 33.9024 44.2446 33.8753C43.7116 33.8199 43.5739 33.1689 43.9858 32.7178C44.7145 31.9173 45.2423 31.0137 45.4547 29.9477C45.8293 28.0619 45.389 26.3848 44.1274 24.9295C44.0644 24.8574 43.9935 24.7903 43.933 24.7156C43.6511 24.3611 43.6575 23.9847 43.9717 23.7333C44.2987 23.4704 44.6334 23.5116 44.9204 23.8017C45.774 24.6627 46.3752 25.681 46.6777 26.8528C46.8373 27.4702 46.8952 28.1134 46.9982 28.745H46.9995Z" fill="#EDB7FF"/>
<path id="Vector_5" d="M44.0183 28.7256C44.0119 29.793 43.6605 30.7017 42.9782 31.4816C42.6074 31.9056 42.2251 31.9701 41.8981 31.6775C41.5917 31.4029 41.6084 31.0214 41.9444 30.6166C42.9344 29.4256 42.928 28.0657 41.9251 26.8488C41.6007 26.4557 41.5981 26.0548 41.9161 25.788C42.2289 25.5263 42.5894 25.5753 42.928 25.9465C43.6502 26.7406 44.0158 27.6764 44.0183 28.7256Z" fill="#EDB7FF"/>
<path id="Vector_6" d="M15.4941 30.0881C15.9177 30.0881 16.2691 30.0662 16.6154 30.101C16.73 30.1126 16.8883 30.2518 16.9257 30.3652C17.2243 31.2804 17.7071 32.0771 18.3649 32.7783C18.6482 33.0799 18.643 33.4189 18.3546 33.7231C18.0972 33.9938 17.7045 33.9964 17.4123 33.7077C16.4236 32.7241 15.7889 31.5473 15.4941 30.0881Z" fill="#EDB7FF"/>
<path id="Vector_7" d="M18.5969 30.0881C18.9934 30.0881 19.3912 30.0649 19.7851 30.0946C20.2138 30.1268 20.7365 31.0549 20.573 31.4467C20.3953 31.8695 19.8212 32.01 19.5019 31.6491C19.1183 31.216 18.8132 30.7133 18.4746 30.2402C18.5158 30.1886 18.557 30.1384 18.5982 30.0868L18.5969 30.0881Z" fill="#EDB7FF"/>
<path id="Vector_8" d="M16.5622 21.6889C12.5469 21.7199 9.26158 18.4393 9.23068 14.3686C9.19979 10.3804 12.4941 7.06121 16.5081 7.03543C20.5337 7.00965 23.8409 10.2567 23.873 14.2681C23.9065 18.3916 20.6894 21.658 16.5635 21.6902L16.5622 21.6889ZM14.6801 14.3815C14.6801 14.9435 14.6723 15.5042 14.6826 16.0663C14.6929 16.6528 15.0161 16.8384 15.5361 16.5445C16.512 15.9928 17.4826 15.4321 18.4481 14.8636C18.9541 14.5658 18.9605 14.1727 18.4623 13.8788C17.4826 13.3013 16.4978 12.7342 15.5065 12.176C15.0148 11.8989 14.6942 12.0871 14.6826 12.6491C14.671 13.2266 14.6801 13.804 14.6801 14.3815Z" fill="#9F06FF"/>
<path id="Vector_9" d="M14.6781 14.3815C14.6781 13.804 14.6691 13.2265 14.6807 12.6491C14.6923 12.0871 15.0129 11.8989 15.5046 12.176C16.4959 12.7329 17.4807 13.3013 18.4604 13.8788C18.9586 14.1727 18.9522 14.5658 18.4462 14.8636C17.4807 15.432 16.51 15.9928 15.5342 16.5445C15.0141 16.8384 14.691 16.6527 14.6807 16.0662C14.6704 15.5055 14.6781 14.9435 14.6781 14.3815Z" fill="#EDB7FF"/>
</g>
<defs>
<clipPath id="clip0_68_859">
<rect width="47" height="47" fill="white"/>
</clipPath>
</defs>
</svg>
