<svg width="44" height="45" viewBox="0 0 44 45" fill="none" xmlns="http://www.w3.org/2000/svg">
<rect y="0.333496" width="44" height="44" rx="5" fill="#1DA1F2"/>
<g clip-path="url(#clip0_108_151)">
<path d="M32 16.1322C31.2562 16.4585 30.4637 16.6747 29.6375 16.7797C30.4875 16.2722 31.1363 15.4747 31.4413 14.5135C30.6488 14.986 29.7737 15.3197 28.8412 15.506C28.0887 14.7047 27.0162 14.2085 25.8462 14.2085C23.5762 14.2085 21.7487 16.051 21.7487 18.3097C21.7487 18.6347 21.7762 18.9472 21.8438 19.2447C18.435 19.0785 15.4188 17.4447 13.3925 14.956C13.0387 15.5697 12.8313 16.2722 12.8313 17.0285C12.8313 18.4485 13.5625 19.7072 14.6525 20.436C13.9937 20.4235 13.3475 20.2322 12.8 19.931C12.8 19.9435 12.8 19.9597 12.8 19.976C12.8 21.9685 14.2212 23.6235 16.085 24.0047C15.7512 24.096 15.3875 24.1397 15.01 24.1397C14.7475 24.1397 14.4825 24.1247 14.2337 24.0697C14.765 25.6935 16.2725 26.8872 18.065 26.926C16.67 28.0172 14.8988 28.6747 12.9813 28.6747C12.645 28.6747 12.3225 28.6597 12 28.6185C13.8162 29.7897 15.9688 30.4585 18.29 30.4585C25.835 30.4585 29.96 24.2085 29.96 18.791C29.96 18.6097 29.9537 18.4347 29.945 18.261C30.7587 17.6835 31.4425 16.9622 32 16.1322Z" fill="white"/>
</g>
<defs>
<clipPath id="clip0_108_151">
<rect width="20" height="20" fill="white" transform="translate(12 12.3335)"/>
</clipPath>
</defs>
</svg>
